<?xml version="1.0" encoding="UTF-8" standalone="no"?>
<svg
   xmlns:dc="http://purl.org/dc/elements/1.1/"
   xmlns:cc="http://creativecommons.org/ns#"
   xmlns:rdf="http://www.w3.org/1999/02/22-rdf-syntax-ns#"
   xmlns:svg="http://www.w3.org/2000/svg"
   xmlns="http://www.w3.org/2000/svg"
   viewBox="0 0 627 1002"
   height="1002"
   width="627"
   xml:space="preserve"
   version="1.1"
   id="svg2"><metadata
     id="metadata8"><rdf:RDF><cc:Work
         rdf:about=""><dc:format>image/svg+xml</dc:format><dc:type
           rdf:resource="http://purl.org/dc/dcmitype/StillImage" /><dc:title></dc:title></cc:Work></rdf:RDF></metadata><defs
     id="defs6"><clipPath
       id="clipPath16"
       clipPathUnits="userSpaceOnUse"><path
         id="path18"
         d="m 193,654.889 c 0,-3.999 -0.5,-2.999 -5.5,-6.499 l 0,0 c -5,-3.5 -0.5,-8.501 -0.5,-8.501 l 0,0 c -2.5,-9 -9,-9 -12.5,-8.499 l 0,0 c -3.5,0.5 -10.5,-1 -6.5,-5.001 l 0,0 c 4,-3.999 -4,-12.999 -6.5,-5.999 l 0,0 c -2.5,7 -8.5,7 -8.5,7 l 0,0 c -13,2 -18.5,6.999 -21,9 l 0,0 c -2.5,2 -7,6.5 -7.5,3 l 0,0 c -0.5,-3.5 0.5,-7.5 -2.5,-7.5 l 0,0 c -3,0 -8,-0.5 -5,-5 l 0,0 c 3,-4.5 8.5,-10 4,-10.501 l 0,0 c -4.5,-0.499 -5.5,-3.5 -7,-8.499 l 0,0 c -1.5,-5.001 -5.5,-4.001 -15,-3 l 0,0 c -9.5,1 -9,-7.501 -14,-7.501 l 0,0 c -5,0 -14.5,0.501 -18,-4.999 l 0,0 c -3.5,-5.5 -1.5,-9.501 -13.5,-9.501 l 0,0 c -12,0 -4.5,-11.5 -4.5,-11.5 l 0,0 c 2,-2.25 1.25,-4.749 1.25,-4.749 l 0,0 c 0.25,-15.75 7,-16.501 7,-16.501 l 0,0 c 4.5,-2.749 7.5,-6.75 7.5,-6.75 l 0,0 c 5,-6.75 12.75,-11.5 12.75,-11.5 l 0,0 c 6.25,-0.249 13.75,-5.749 13.75,-5.749 l 0,0 c 29.5,-17 23,-11.5 34.25,-14.501 l 0,0 c 11.25,-3 28.5,2.5 38.5,9 l 0,0 c 10,6.501 13.75,-4.5 13.75,-4.5 l 0,0 14,-25.999 22.5,-36 15,-29.001 c 9.25,-10.749 17.5,-33.999 17.5,-33.999 l 0,0 c 0,0 4.75,-16.751 16,-47.001 l 0,0 c 11.25,-30.25 4.5,-50.249 3.75,-56 l 0,0 c -0.75,-5.75 -6.75,-28.749 -14.5,-46.25 l 0,0 c -7.75,-17.499 -4,-50.999 -4,-50.999 l 0,0 c -2.75,-37.5 -10,-53.501 -11.5,-65.25 l 0,0 C 235,113.89 225.75,109.89 220,108.889 l 0,0 c -5.75,-1 -12,-3 -11.75,-6.75 l 0,0 c 0.25,-3.749 -3.5,-7.249 5.25,-12.25 l 0,0 c 8.75,-4.999 18.25,7 18.25,7 l 0,0 8,20 c 0,0 10.75,39.25 12.75,44.751 l 0,0 c 2,5.5 2.75,27 3.5,48.749 l 0,0 c 0.75,21.751 8.5,44 8.5,44 l 0,0 c 0,0 13.25,27 11.5,60.5 l 0,0 c -1.75,33.501 -16,58.001 -16.5,63.501 l 0,0 c -0.5,5.5 -21.75,45 -22.75,50.249 l 0,0 c -1,5.251 -20.25,35.75 -20.25,35.75 l 0,0 -23.25,33.75 c 0,0 -6.75,12.75 -11.75,19.751 l 0,0 c -5,7 -1,10.5 -1,10.5 l 0,0 c 0,0 6,1.499 11.5,4.999 l 0,0 c 5.5,3.501 3.5,-4.5 18,19.501 l 0,0 c 14.5,23.999 8,32.999 8.5,47.999 l 0,0 c 0.5,15.001 -13.5,28 -15,33.5 l 0,0 c -1.5,5.5 -12,10 -7.5,14.001 l 0,0 c 3.508,3.117 -0.275,7.754 -2.115,7.753 l 0,0 c -0.52,0 -0.885,-0.371 -0.885,-1.254" /></clipPath><linearGradient
       id="linearGradient24"
       spreadMethod="pad"
       gradientTransform="matrix(41.999924,-519,-519,-41.999924,193.64456,590.98768)"
       gradientUnits="userSpaceOnUse"
       y2="0"
       x2="1"
       y1="0"
       x1="0"><stop
         id="stop26"
         offset="0"
         style="stop-opacity:1;stop-color:#bf1e2d" /><stop
         id="stop28"
         offset="0.64828561"
         style="stop-opacity:1;stop-color:#d75593" /><stop
         id="stop30"
         offset="1"
         style="stop-opacity:1;stop-color:#d75593" /></linearGradient><clipPath
       id="clipPath38"
       clipPathUnits="userSpaceOnUse"><path
         id="path40"
         d="m 0,841.89 595.28,0 L 595.28,0 0,0 0,841.89 Z" /></clipPath><clipPath
       id="clipPath50"
       clipPathUnits="userSpaceOnUse"><path
         id="path52"
         d="m 282.667,820.224 c 0,0 -22.999,-1.001 -23.667,-2.667 l 0,0 c 0,0 -3.666,-6 -12.666,-3 l 0,0 c 0,0 -7.334,0 -10.334,-1.333 l 0,0 c 0,0 -3,5.666 -6,4.999 l 0,0 c 0,0 -1.666,1.334 -0.333,-6.666 l 0,0 c 0,0 -2.001,-5 -12.333,-4.333 l 0,0 c 0,0 -3.668,-1 -11,-10 l 0,0 c 0,0 -1,-7.334 -5,-8.667 l 0,0 c 0,0 -5.334,-2.666 0,-9 l 0,0 c 0,0 7,-9.333 -2.667,-12 l 0,0 c 0,0 -8.001,-2.667 -8.667,-4.667 l 0,0 c 0,0 -1.333,-3.334 -5.333,-3.333 l 0,0 c 0,0 8.333,-13.001 9.667,-16 l 0,0 c 1.333,-3 4.333,-11.334 7.333,-13.334 l 0,0 c 3,-2 8.333,-6.333 9.333,-9.334 l 0,0 c 1,-3 10,-13.332 21,-18.666 l 0,0 c 3.674,-1.781 5.228,-2.373 5.793,-2.544 l 0,0 c -0.345,-0.011 -0.744,-0.324 0.541,-2.122 l 0,0 C 241.667,692.889 251,692.223 258,691.556 l 0,0 c 7,-0.667 25,2 27.667,3.334 l 0,0 c 2.667,1.333 13.999,1.333 18.333,-8 l 0,0 c 4.334,-9.333 15,-23.666 20,-33.667 l 0,0 c 5,-10 11.667,-29 1.667,-52.334 l 0,0 c -10,-23.334 -22,-27.332 -29.667,-36.665 l 0,0 c -7.666,-9.333 -23,-30.334 -31,-42.001 l 0,0 c -8,-11.666 -27,-51.668 -27,-51.668 l 0,0 c 0,0 -10.666,-22.666 -12.333,-24.666 l 0,0 c -1.667,-2 -7.999,-26.333 -9.667,-31.001 l 0,0 c -1.666,-4.666 -7,-48.666 -7,-48.666 l 0,0 c 0,0 -0.332,-37 7,-87.001 l 0,0 c 0,0 7.334,-28.666 7.667,-32.999 l 0,0 c 0.333,-4.333 13.667,-56.668 13.667,-56.668 l 0,0 c 0,0 10.334,-40.666 11.666,-56.999 l 0,0 c 1.334,-16.334 4.334,-37.666 4.334,-37.666 l 0,0 c 0,0 2,-26.334 12.333,-29.667 l 0,0 c 10.333,-3.333 17.334,2.646 17,10.334 l 0,0 c -0.333,7.668 -11.235,12.568 -10.999,12.333 l 0,0 c 0.334,-0.332 -11.648,2.317 -11.334,13.001 l 0,0 c 1,33.999 -8.334,63.333 -9.667,68.665 l 0,0 c -1.333,5.334 -13,55 -13,55 l 0,0 c 0,0 -16.667,63.334 -15.667,75.335 l 0,0 c 1,12 -6.999,51.666 -3.666,72 l 0,0 c 0,0 -0.666,34.334 10.666,58.333 l 0,0 c 0,0 3.668,11 5,15 l 0,0 c 1.334,4 8.667,19 17.334,37.333 l 0,0 c 0,0 21,37.333 23.333,39.666 l 0,0 c 0,0 7,14 17,22.334 l 0,0 c 0,0 6.526,12.055 14.333,17.667 l 0,0 c 10.667,7.668 22.668,24.333 25.334,38 l 0,0 c 2.666,13.666 12.999,22.334 1.333,52.334 l 0,0 -17.333,28.999 c 0,0 -9.001,8.667 -5.334,14.667 l 0,0 c 0,0 8.333,3.666 15,3.999 l 0,0 c 0,0 24.668,7.334 34.334,22.334 l 0,0 c 9.666,15 8,14.333 8,14.333 l 0,0 c 0,0 1.667,4.667 5,5.667 l 0,0 c 0,0 3.666,-0.666 2.666,9.334 l 0,0 c 0,0 -1.334,5.333 3,9.333 l 0,0 c 0,0 4.667,7.667 -2.333,16 l 0,0 c 0,0 -9.334,1.667 -3.667,10 l 0,0 c 0,0 8.333,4.666 8,14 l 0,0 c 0,0 -1,5.333 -3,4.667 l 0,0 c 0,0 -4.332,-7.333 -11.666,-2 l 0,0 c 0,0 -7.334,7.666 -15.667,6.999 l 0,0 c 0,0 -10.001,-5.999 -13.667,-3.332 l 0,0 c 0,0 -3.999,-2.667 -6.666,-5.668 l 0,0 c 0,0 -5.001,-7.332 -17.334,0.668 l 0,0 c 0,0 -5.333,2 -8,3 l 0,0 c 0,0 -6.332,10 -14,12 l 0,0 c 0,0 -2.111,3.048 -5.348,3.048 l 0,0 c -0.623,0 -1.287,-0.112 -1.985,-0.381" /></clipPath><linearGradient
       id="linearGradient58"
       spreadMethod="pad"
       gradientTransform="matrix(-27.999969,-276.5,-276.5,27.999969,297.73587,445.40712)"
       gradientUnits="userSpaceOnUse"
       y2="0"
       x2="1"
       y1="0"
       x1="0"><stop
         id="stop60"
         offset="0"
         style="stop-opacity:1;stop-color:#f15a29" /><stop
         id="stop62"
         offset="0.21944502"
         style="stop-opacity:1;stop-color:#d75593" /><stop
         id="stop64"
         offset="1"
         style="stop-opacity:1;stop-color:#d75593" /></linearGradient><clipPath
       id="clipPath72"
       clipPathUnits="userSpaceOnUse"><path
         id="path74"
         d="m 0,841.89 595.28,0 L 595.28,0 0,0 0,841.89 Z" /></clipPath></defs><g
     transform="matrix(1.25,0,0,-1.25,0,1002)"
     id="g10"><g
       transform="translate(-45.684602,-19.2245)"
       id="g3504"><g
         id="g12"><g
           id="g14"
           clip-path="url(#clipPath16)"><g
             id="g20"><g
               id="g22"><path
                 d="m 193,654.889 c 0,-3.999 -0.5,-2.999 -5.5,-6.499 l 0,0 c -5,-3.5 -0.5,-8.501 -0.5,-8.501 l 0,0 c -2.5,-9 -9,-9 -12.5,-8.499 l 0,0 c -3.5,0.5 -10.5,-1 -6.5,-5.001 l 0,0 c 4,-3.999 -4,-12.999 -6.5,-5.999 l 0,0 c -2.5,7 -8.5,7 -8.5,7 l 0,0 c -13,2 -18.5,6.999 -21,9 l 0,0 c -2.5,2 -7,6.5 -7.5,3 l 0,0 c -0.5,-3.5 0.5,-7.5 -2.5,-7.5 l 0,0 c -3,0 -8,-0.5 -5,-5 l 0,0 c 3,-4.5 8.5,-10 4,-10.501 l 0,0 c -4.5,-0.499 -5.5,-3.5 -7,-8.499 l 0,0 c -1.5,-5.001 -5.5,-4.001 -15,-3 l 0,0 c -9.5,1 -9,-7.501 -14,-7.501 l 0,0 c -5,0 -14.5,0.501 -18,-4.999 l 0,0 c -3.5,-5.5 -1.5,-9.501 -13.5,-9.501 l 0,0 c -12,0 -4.5,-11.5 -4.5,-11.5 l 0,0 c 2,-2.25 1.25,-4.749 1.25,-4.749 l 0,0 c 0.25,-15.75 7,-16.501 7,-16.501 l 0,0 c 4.5,-2.749 7.5,-6.75 7.5,-6.75 l 0,0 c 5,-6.75 12.75,-11.5 12.75,-11.5 l 0,0 c 6.25,-0.249 13.75,-5.749 13.75,-5.749 l 0,0 c 29.5,-17 23,-11.5 34.25,-14.501 l 0,0 c 11.25,-3 28.5,2.5 38.5,9 l 0,0 c 10,6.501 13.75,-4.5 13.75,-4.5 l 0,0 14,-25.999 22.5,-36 15,-29.001 c 9.25,-10.749 17.5,-33.999 17.5,-33.999 l 0,0 c 0,0 4.75,-16.751 16,-47.001 l 0,0 c 11.25,-30.25 4.5,-50.249 3.75,-56 l 0,0 c -0.75,-5.75 -6.75,-28.749 -14.5,-46.25 l 0,0 c -7.75,-17.499 -4,-50.999 -4,-50.999 l 0,0 c -2.75,-37.5 -10,-53.501 -11.5,-65.25 l 0,0 C 235,113.89 225.75,109.89 220,108.889 l 0,0 c -5.75,-1 -12,-3 -11.75,-6.75 l 0,0 c 0.25,-3.749 -3.5,-7.249 5.25,-12.25 l 0,0 c 8.75,-4.999 18.25,7 18.25,7 l 0,0 8,20 c 0,0 10.75,39.25 12.75,44.751 l 0,0 c 2,5.5 2.75,27 3.5,48.749 l 0,0 c 0.75,21.751 8.5,44 8.5,44 l 0,0 c 0,0 13.25,27 11.5,60.5 l 0,0 c -1.75,33.501 -16,58.001 -16.5,63.501 l 0,0 c -0.5,5.5 -21.75,45 -22.75,50.249 l 0,0 c -1,5.251 -20.25,35.75 -20.25,35.75 l 0,0 -23.25,33.75 c 0,0 -6.75,12.75 -11.75,19.751 l 0,0 c -5,7 -1,10.5 -1,10.5 l 0,0 c 0,0 6,1.499 11.5,4.999 l 0,0 c 5.5,3.501 3.5,-4.5 18,19.501 l 0,0 c 14.5,23.999 8,32.999 8.5,47.999 l 0,0 c 0.5,15.001 -13.5,28 -15,33.5 l 0,0 c -1.5,5.5 -12,10 -7.5,14.001 l 0,0 c 3.508,3.117 -0.275,7.754 -2.115,7.753 l 0,0 c -0.52,0 -0.885,-0.371 -0.885,-1.254"
                 style="fill:url(#linearGradient24);stroke:none"
                 id="path32" /></g></g></g></g><g
         id="g34"><g
           id="g36"
           clip-path="url(#clipPath38)"><g
             id="g42"
             transform="translate(458.3311,251.8896)"><path
               d="m 0,0 c 0,0 12.666,19.999 60.333,18.333 0,0 13.001,-1 15.334,1 0,0 8.332,-6.667 0.666,-20 l -4,-6 c 0,0 -0.334,4.334 -4,5.667 L 66,-3.333 c 0,0 -10.666,12.334 -24.333,10 0,0 -34.334,0.667 -35.667,-27 0,0 -4.667,-19.666 45,-30 0,0 50.001,-9.334 34.667,-56.667 0,0 -5.668,-46.334 -53.334,-46.667 0,0 -11.667,-1 -16,-3.333 0,0 -26.667,-6.334 -26,12.333 l 0,12 c 0,0 3,2.334 18.667,-7.333 0,0 50.999,-13.333 61.333,33 0,0 6,25 -26.333,38 0,0 -15,5.666 -33,11.333 l -16,14.334 c 0,0 -14.333,21 5,43.333"
               style="fill:#d75593;fill-opacity:1;fill-rule:nonzero;stroke:none"
               id="path44" /></g></g></g><g
         id="g46"><g
           id="g48"
           clip-path="url(#clipPath50)"><g
             id="g54"><g
               id="g56"><path
                 d="m 282.667,820.224 c 0,0 -22.999,-1.001 -23.667,-2.667 l 0,0 c 0,0 -3.666,-6 -12.666,-3 l 0,0 c 0,0 -7.334,0 -10.334,-1.333 l 0,0 c 0,0 -3,5.666 -6,4.999 l 0,0 c 0,0 -1.666,1.334 -0.333,-6.666 l 0,0 c 0,0 -2.001,-5 -12.333,-4.333 l 0,0 c 0,0 -3.668,-1 -11,-10 l 0,0 c 0,0 -1,-7.334 -5,-8.667 l 0,0 c 0,0 -5.334,-2.666 0,-9 l 0,0 c 0,0 7,-9.333 -2.667,-12 l 0,0 c 0,0 -8.001,-2.667 -8.667,-4.667 l 0,0 c 0,0 -1.333,-3.334 -5.333,-3.333 l 0,0 c 0,0 8.333,-13.001 9.667,-16 l 0,0 c 1.333,-3 4.333,-11.334 7.333,-13.334 l 0,0 c 3,-2 8.333,-6.333 9.333,-9.334 l 0,0 c 1,-3 10,-13.332 21,-18.666 l 0,0 c 3.674,-1.781 5.228,-2.373 5.793,-2.544 l 0,0 c -0.345,-0.011 -0.744,-0.324 0.541,-2.122 l 0,0 C 241.667,692.889 251,692.223 258,691.556 l 0,0 c 7,-0.667 25,2 27.667,3.334 l 0,0 c 2.667,1.333 13.999,1.333 18.333,-8 l 0,0 c 4.334,-9.333 15,-23.666 20,-33.667 l 0,0 c 5,-10 11.667,-29 1.667,-52.334 l 0,0 c -10,-23.334 -22,-27.332 -29.667,-36.665 l 0,0 c -7.666,-9.333 -23,-30.334 -31,-42.001 l 0,0 c -8,-11.666 -27,-51.668 -27,-51.668 l 0,0 c 0,0 -10.666,-22.666 -12.333,-24.666 l 0,0 c -1.667,-2 -7.999,-26.333 -9.667,-31.001 l 0,0 c -1.666,-4.666 -7,-48.666 -7,-48.666 l 0,0 c 0,0 -0.332,-37 7,-87.001 l 0,0 c 0,0 7.334,-28.666 7.667,-32.999 l 0,0 c 0.333,-4.333 13.667,-56.668 13.667,-56.668 l 0,0 c 0,0 10.334,-40.666 11.666,-56.999 l 0,0 c 1.334,-16.334 4.334,-37.666 4.334,-37.666 l 0,0 c 0,0 2,-26.334 12.333,-29.667 l 0,0 c 10.333,-3.333 17.334,2.646 17,10.334 l 0,0 c -0.333,7.668 -11.235,12.568 -10.999,12.333 l 0,0 c 0.334,-0.332 -11.648,2.317 -11.334,13.001 l 0,0 c 1,33.999 -8.334,63.333 -9.667,68.665 l 0,0 c -1.333,5.334 -13,55 -13,55 l 0,0 c 0,0 -16.667,63.334 -15.667,75.335 l 0,0 c 1,12 -6.999,51.666 -3.666,72 l 0,0 c 0,0 -0.666,34.334 10.666,58.333 l 0,0 c 0,0 3.668,11 5,15 l 0,0 c 1.334,4 8.667,19 17.334,37.333 l 0,0 c 0,0 21,37.333 23.333,39.666 l 0,0 c 0,0 7,14 17,22.334 l 0,0 c 0,0 6.526,12.055 14.333,17.667 l 0,0 c 10.667,7.668 22.668,24.333 25.334,38 l 0,0 c 2.666,13.666 12.999,22.334 1.333,52.334 l 0,0 -17.333,28.999 c 0,0 -9.001,8.667 -5.334,14.667 l 0,0 c 0,0 8.333,3.666 15,3.999 l 0,0 c 0,0 24.668,7.334 34.334,22.334 l 0,0 c 9.666,15 8,14.333 8,14.333 l 0,0 c 0,0 1.667,4.667 5,5.667 l 0,0 c 0,0 3.666,-0.666 2.666,9.334 l 0,0 c 0,0 -1.334,5.333 3,9.333 l 0,0 c 0,0 4.667,7.667 -2.333,16 l 0,0 c 0,0 -9.334,1.667 -3.667,10 l 0,0 c 0,0 8.333,4.666 8,14 l 0,0 c 0,0 -1,5.333 -3,4.667 l 0,0 c 0,0 -4.332,-7.333 -11.666,-2 l 0,0 c 0,0 -7.334,7.666 -15.667,6.999 l 0,0 c 0,0 -10.001,-5.999 -13.667,-3.332 l 0,0 c 0,0 -3.999,-2.667 -6.666,-5.668 l 0,0 c 0,0 -5.001,-7.332 -17.334,0.668 l 0,0 c 0,0 -5.333,2 -8,3 l 0,0 c 0,0 -6.332,10 -14,12 l 0,0 c 0,0 -2.111,3.048 -5.348,3.048 l 0,0 c -0.623,0 -1.287,-0.112 -1.985,-0.381"
                 style="fill:url(#linearGradient58);stroke:none"
                 id="path66" /></g></g></g></g><g
         id="g68"><g
           id="g70"
           clip-path="url(#clipPath72)"><g
             id="g76"
             transform="translate(70.6294,43.4736)"><path
               d="m 0,0 -12.39,0 0,-7.51 11.871,0 0,-3.146 -11.871,0 0,-12.819 -3.539,0 0,26.621 L 0,3.146 0,0 Z"
               style="fill:#939598;fill-opacity:1;fill-rule:nonzero;stroke:none"
               id="path78" /></g><g
             id="g80"
             transform="translate(89.4458,19.999)"><path
               d="m 0,0 -3.361,0 0,2.217 c -1.037,-0.906 -2.02,-1.594 -2.95,-2.065 -0.93,-0.47 -1.967,-0.707 -3.111,-0.707 -0.87,0 -1.689,0.145 -2.458,0.43 -0.769,0.287 -1.439,0.738 -2.011,1.359 -0.572,0.62 -1.017,1.401 -1.332,2.342 -0.316,0.942 -0.474,2.086 -0.474,3.432 l 0,12.963 3.361,0 0,-11.371 c 0,-1.061 0.039,-1.94 0.116,-2.637 0.077,-0.697 0.253,-1.309 0.528,-1.832 0.274,-0.514 0.646,-0.889 1.117,-1.127 0.471,-0.238 1.147,-0.358 2.029,-0.358 0.822,0 1.699,0.233 2.628,0.698 0.93,0.465 1.782,1.037 2.557,1.717 l 0,14.91 3.361,0 L 0,0 Z"
               style="fill:#939598;fill-opacity:1;fill-rule:nonzero;stroke:none"
               id="path82" /></g><g
             id="g84"
             transform="translate(110.3716,19.999)"><path
               d="m 0,0 -3.361,0 0,11.371 c 0,0.918 -0.045,1.772 -0.134,2.565 -0.09,0.793 -0.259,1.427 -0.51,1.904 -0.274,0.502 -0.656,0.873 -1.144,1.117 -0.489,0.244 -1.156,0.367 -2.002,0.367 -0.835,0 -1.696,-0.222 -2.584,-0.67 -0.888,-0.447 -1.755,-1.029 -2.601,-1.744 l 0,-14.91 -3.361,0 0,19.971 3.361,0 0,-2.217 c 1.001,0.892 1.99,1.578 2.968,2.055 0.977,0.476 2.008,0.714 3.093,0.714 1.966,0 3.504,-0.646 4.612,-1.939 C -0.554,17.291 0,15.418 0,12.963 L 0,0 Z"
               style="fill:#939598;fill-opacity:1;fill-rule:nonzero;stroke:none"
               id="path86" /></g><g
             id="g88"
             transform="translate(127.4712,24.8623)"><path
               d="m 0,0 0,11.514 c -0.834,0.404 -1.582,0.685 -2.244,0.84 -0.661,0.154 -1.38,0.232 -2.154,0.232 -1.728,0 -3.081,-0.647 -4.058,-1.94 -0.978,-1.292 -1.466,-3.162 -1.466,-5.605 0,-2.348 0.375,-4.145 1.126,-5.389 0.751,-1.246 1.955,-1.869 3.611,-1.869 0.882,0 1.77,0.199 2.664,0.6 C -1.627,-1.219 -0.787,-0.68 0,0 m 3.361,-4.863 -3.361,0 0,2.039 C -0.524,-3.266 -0.978,-3.629 -1.359,-3.916 -1.74,-4.201 -2.187,-4.463 -2.7,-4.701 c -0.476,-0.227 -0.971,-0.403 -1.484,-0.528 -0.512,-0.125 -1.108,-0.189 -1.787,-0.189 -1.085,0 -2.089,0.227 -3.012,0.68 -0.924,0.453 -1.708,1.115 -2.351,1.984 -0.656,0.883 -1.163,1.971 -1.52,3.264 -0.358,1.293 -0.537,2.779 -0.537,4.461 0,1.752 0.227,3.267 0.68,4.549 0.453,1.281 1.078,2.398 1.877,3.353 0.727,0.869 1.606,1.551 2.637,2.047 1.031,0.494 2.113,0.74 3.245,0.74 1.001,0 1.871,-0.109 2.61,-0.33 0.739,-0.221 1.52,-0.562 2.342,-1.027 l 0,8.652 3.361,0 0,-27.818 z"
               style="fill:#939598;fill-opacity:1;fill-rule:nonzero;stroke:none"
               id="path90" /></g><g
             id="g92"
             transform="translate(149.0225,29.9756)"><path
               d="m 0,0 c 0,2.586 -0.471,4.508 -1.413,5.766 -0.941,1.257 -2.282,1.886 -4.022,1.886 -1.752,0 -3.102,-0.629 -4.049,-1.886 -0.948,-1.258 -1.422,-3.18 -1.422,-5.766 0,-2.504 0.474,-4.4 1.422,-5.693 0.947,-1.295 2.297,-1.942 4.049,-1.942 1.728,0 3.066,0.635 4.014,1.905 C -0.474,-4.461 0,-2.551 0,0 m 3.468,0 c 0,-3.361 -0.81,-5.957 -2.431,-7.785 -1.621,-1.83 -3.779,-2.746 -6.472,-2.746 -2.777,0 -4.961,0.945 -6.552,2.834 -1.592,1.888 -2.387,4.455 -2.387,7.697 0,3.336 0.819,5.93 2.458,7.777 1.639,1.846 3.799,2.77 6.481,2.77 2.693,0 4.851,-0.92 6.472,-2.762 C 2.658,5.943 3.468,3.35 3.468,0"
               style="fill:#939598;fill-opacity:1;fill-rule:nonzero;stroke:none"
               id="path94" /></g><g
             id="g96"
             transform="translate(180.1294,24.8623)"><path
               d="m 0,0 0,11.514 c -0.834,0.404 -1.582,0.685 -2.244,0.84 -0.661,0.154 -1.38,0.232 -2.154,0.232 -1.728,0 -3.081,-0.647 -4.058,-1.94 -0.978,-1.292 -1.466,-3.162 -1.466,-5.605 0,-2.348 0.375,-4.145 1.126,-5.389 0.751,-1.246 1.955,-1.869 3.611,-1.869 0.882,0 1.77,0.199 2.664,0.6 C -1.627,-1.219 -0.787,-0.68 0,0 m 3.361,-4.863 -3.361,0 0,2.039 C -0.524,-3.266 -0.978,-3.629 -1.359,-3.916 -1.74,-4.201 -2.187,-4.463 -2.7,-4.701 c -0.476,-0.227 -0.971,-0.403 -1.484,-0.528 -0.512,-0.125 -1.108,-0.189 -1.787,-0.189 -1.085,0 -2.089,0.227 -3.012,0.68 -0.924,0.453 -1.708,1.115 -2.351,1.984 -0.656,0.883 -1.163,1.971 -1.52,3.264 -0.358,1.293 -0.537,2.779 -0.537,4.461 0,1.752 0.227,3.267 0.68,4.549 0.453,1.281 1.078,2.398 1.877,3.353 0.727,0.869 1.606,1.551 2.637,2.047 1.031,0.494 2.113,0.74 3.245,0.74 1.001,0 1.871,-0.109 2.61,-0.33 0.739,-0.221 1.52,-0.562 2.342,-1.027 l 0,8.652 3.361,0 0,-27.818 z"
               style="fill:#939598;fill-opacity:1;fill-rule:nonzero;stroke:none"
               id="path98" /></g><g
             id="g100"
             transform="translate(201.3232,32.21)"><path
               d="M 0,0 C -0.024,0.906 -0.131,1.688 -0.322,2.342 -0.512,2.998 -0.787,3.551 -1.144,4.004 -1.537,4.506 -2.041,4.887 -2.655,5.148 -3.269,5.41 -4.028,5.543 -4.934,5.543 -5.828,5.543 -6.588,5.408 -7.213,5.141 -7.839,4.871 -8.409,4.48 -8.921,3.969 -9.421,3.445 -9.803,2.863 -10.065,2.227 -10.328,1.588 -10.494,0.846 -10.566,0 L 0,0 Z m -3.933,-12.676 c -3.182,0 -5.652,0.897 -7.41,2.692 -1.759,1.793 -2.637,4.341 -2.637,7.642 0,3.254 0.852,5.844 2.556,7.768 1.704,1.926 3.933,2.887 6.687,2.887 1.239,0 2.335,-0.178 3.289,-0.536 C -0.495,7.42 0.34,6.859 1.055,6.096 1.77,5.334 2.318,4.4 2.7,3.299 3.081,2.195 3.272,0.846 3.272,-0.75 l 0,-1.824 -13.838,0 c 0,-2.324 0.584,-4.1 1.753,-5.328 1.167,-1.227 2.782,-1.842 4.844,-1.842 0.739,0 1.463,0.084 2.173,0.252 0.709,0.166 1.349,0.381 1.921,0.642 0.608,0.274 1.121,0.539 1.538,0.795 0.417,0.258 0.762,0.498 1.037,0.725 l 0.196,0 0,-3.664 c -0.393,-0.156 -0.882,-0.35 -1.466,-0.582 -0.584,-0.233 -1.108,-0.414 -1.573,-0.545 -0.655,-0.18 -1.249,-0.317 -1.779,-0.412 -0.53,-0.094 -1.201,-0.143 -2.011,-0.143"
               style="fill:#939598;fill-opacity:1;fill-rule:nonzero;stroke:none"
               id="path102" /></g><g
             id="g104"
             transform="translate(229.7305,19.999)"><path
               d="m 0,0 -10.333,0 0,2.719 3.396,0 0,21.183 -3.396,0 0,2.719 10.333,0 0,-2.719 -3.397,0 0,-21.183 L 0,2.719 0,0 Z"
               style="fill:#939598;fill-opacity:1;fill-rule:nonzero;stroke:none"
               id="path106" /></g><g
             id="g108"
             transform="translate(249.709,19.999)"><path
               d="m 0,0 -3.361,0 0,11.371 c 0,0.918 -0.045,1.772 -0.134,2.565 -0.09,0.793 -0.259,1.427 -0.51,1.904 -0.274,0.502 -0.656,0.873 -1.144,1.117 -0.489,0.244 -1.156,0.367 -2.002,0.367 -0.835,0 -1.696,-0.222 -2.584,-0.67 -0.888,-0.447 -1.755,-1.029 -2.601,-1.744 l 0,-14.91 -3.361,0 0,19.971 3.361,0 0,-2.217 c 1.001,0.892 1.99,1.578 2.968,2.055 0.977,0.476 2.008,0.714 3.093,0.714 1.966,0 3.504,-0.646 4.612,-1.939 C -0.554,17.291 0,15.418 0,12.963 L 0,0 Z"
               style="fill:#939598;fill-opacity:1;fill-rule:nonzero;stroke:none"
               id="path110" /></g><g
             id="g112"
             transform="translate(270.1699,39.9697)"><path
               d="m 0,0 -7.527,-19.971 -3.021,0 L -18.021,0 -14.392,0 -8.921,-15.412 -3.504,0 0,0 Z"
               style="fill:#939598;fill-opacity:1;fill-rule:nonzero;stroke:none"
               id="path114" /></g><g
             id="g116"
             transform="translate(285.3921,32.21)"><path
               d="M 0,0 C -0.024,0.906 -0.131,1.688 -0.322,2.342 -0.512,2.998 -0.787,3.551 -1.144,4.004 -1.537,4.506 -2.041,4.887 -2.655,5.148 -3.269,5.41 -4.028,5.543 -4.934,5.543 -5.828,5.543 -6.588,5.408 -7.213,5.141 -7.839,4.871 -8.409,4.48 -8.921,3.969 -9.421,3.445 -9.803,2.863 -10.065,2.227 -10.328,1.588 -10.494,0.846 -10.566,0 L 0,0 Z m -3.933,-12.676 c -3.182,0 -5.652,0.897 -7.41,2.692 -1.759,1.793 -2.637,4.341 -2.637,7.642 0,3.254 0.852,5.844 2.556,7.768 1.704,1.926 3.933,2.887 6.687,2.887 1.239,0 2.335,-0.178 3.289,-0.536 C -0.495,7.42 0.34,6.859 1.055,6.096 1.77,5.334 2.318,4.4 2.7,3.299 3.081,2.195 3.272,0.846 3.272,-0.75 l 0,-1.824 -13.838,0 c 0,-2.324 0.584,-4.1 1.753,-5.328 1.167,-1.227 2.782,-1.842 4.844,-1.842 0.739,0 1.463,0.084 2.173,0.252 0.709,0.166 1.349,0.381 1.921,0.642 0.608,0.274 1.121,0.539 1.538,0.795 0.417,0.258 0.762,0.498 1.037,0.725 l 0.196,0 0,-3.664 c -0.393,-0.156 -0.882,-0.35 -1.466,-0.582 -0.584,-0.233 -1.108,-0.414 -1.573,-0.545 -0.655,-0.18 -1.249,-0.317 -1.779,-0.412 -0.53,-0.094 -1.201,-0.143 -2.011,-0.143"
               style="fill:#939598;fill-opacity:1;fill-rule:nonzero;stroke:none"
               id="path118" /></g><g
             id="g120"
             transform="translate(297.8267,19.5166)"><path
               d="m 0,0 c -1.335,0 -2.584,0.18 -3.746,0.537 -1.162,0.358 -2.125,0.738 -2.887,1.145 l 0,3.771 0.178,0 C -6.168,5.227 -5.832,4.977 -5.444,4.701 -5.057,4.428 -4.542,4.143 -3.898,3.844 -3.326,3.582 -2.697,3.35 -2.012,3.146 -1.327,2.943 -0.615,2.844 0.125,2.844 0.661,2.844 1.234,2.906 1.841,3.031 2.449,3.156 2.902,3.314 3.199,3.504 3.617,3.777 3.917,4.07 4.103,4.381 4.287,4.689 4.38,5.154 4.38,5.775 4.38,6.572 4.162,7.176 3.726,7.58 3.292,7.986 2.521,8.324 1.412,8.6 0.982,8.707 0.423,8.832 -0.269,8.975 -0.96,9.117 -1.598,9.273 -2.182,9.439 c -1.526,0.442 -2.634,1.124 -3.325,2.047 -0.691,0.924 -1.037,2.041 -1.037,3.354 0,1.799 0.68,3.264 2.038,4.396 1.359,1.133 3.165,1.7 5.417,1.7 1.108,0 2.223,-0.137 3.344,-0.413 1.12,-0.273 2.061,-0.619 2.825,-1.037 l 0,-3.591 -0.18,0 c -0.858,0.677 -1.815,1.214 -2.869,1.607 -1.055,0.394 -2.119,0.59 -3.191,0.59 -1.109,0 -2.045,-0.233 -2.807,-0.697 -0.763,-0.465 -1.144,-1.168 -1.144,-2.11 0,-0.834 0.226,-1.457 0.679,-1.867 0.453,-0.412 1.18,-0.748 2.181,-1.01 0.501,-0.133 1.058,-0.26 1.672,-0.385 0.614,-0.125 1.26,-0.271 1.94,-0.437 C 4.837,11.215 5.951,10.602 6.695,9.744 7.439,8.885 7.812,7.717 7.812,6.24 7.812,5.381 7.642,4.568 7.302,3.799 6.962,3.031 6.464,2.371 5.81,1.824 5.095,1.229 4.287,0.775 3.388,0.465 2.488,0.154 1.359,0 0,0"
               style="fill:#939598;fill-opacity:1;fill-rule:nonzero;stroke:none"
               id="path122" /></g><g
             id="g124"
             transform="translate(315.1758,19.6064)"><path
               d="m 0,0 c -1.836,0 -3.266,0.521 -4.291,1.564 -1.025,1.043 -1.537,2.69 -1.537,4.944 l 0,11.066 -2.272,0 0,2.789 2.272,0 0,5.739 3.361,0 0,-5.739 6.186,0 0,-2.789 -6.186,0 0,-9.494 c 0,-1.012 0.018,-1.793 0.053,-2.342 0.037,-0.549 0.174,-1.06 0.412,-1.537 0.203,-0.418 0.529,-0.73 0.982,-0.939 0.454,-0.207 1.067,-0.313 1.842,-0.313 0.549,0 1.078,0.08 1.592,0.242 0.512,0.161 0.881,0.295 1.107,0.403 l 0.198,0 0,-3.022 C 3.086,0.393 2.445,0.254 1.797,0.152 1.146,0.051 0.549,0 0,0"
               style="fill:#939598;fill-opacity:1;fill-rule:nonzero;stroke:none"
               id="path126" /></g><path
             d="m 325.18,19.999 -3.361,0 0,19.971 3.361,0 0,-19.971 z m 0.232,23.313 -3.826,0 0,3.486 3.826,0 0,-3.486 z"
             style="fill:#939598;fill-opacity:1;fill-rule:nonzero;stroke:none"
             id="path128" /><g
             id="g130"
             transform="translate(353.1484,19.999)"><path
               d="m 0,0 0,11.549 c 0,0.918 -0.037,1.767 -0.107,2.549 -0.073,0.779 -0.221,1.39 -0.448,1.832 -0.238,0.476 -0.578,0.828 -1.019,1.054 -0.442,0.227 -1.037,0.34 -1.787,0.34 -0.692,0 -1.434,-0.211 -2.227,-0.635 -0.793,-0.423 -1.611,-1.033 -2.457,-1.832 0.012,-0.203 0.025,-0.445 0.045,-0.724 0.018,-0.279 0.025,-0.612 0.025,-0.992 l 0,-13.141 -3.361,0 0,11.549 c 0,0.918 -0.035,1.767 -0.105,2.549 -0.073,0.779 -0.221,1.39 -0.448,1.832 -0.238,0.476 -0.578,0.828 -1.019,1.054 -0.442,0.227 -1.037,0.34 -1.787,0.34 -0.729,0 -1.491,-0.226 -2.289,-0.679 -0.799,-0.454 -1.575,-1.032 -2.325,-1.735 l 0,-14.91 -3.361,0 0,19.971 3.361,0 0,-2.217 c 0.883,0.881 1.754,1.564 2.62,2.047 0.863,0.482 1.814,0.722 2.851,0.722 1.18,0 2.227,-0.267 3.137,-0.802 0.912,-0.537 1.607,-1.42 2.084,-2.647 1.012,1.133 2.002,1.99 2.967,2.574 0.966,0.584 2.013,0.875 3.146,0.875 0.859,0 1.639,-0.132 2.342,-0.4 C 0.541,19.854 1.156,19.422 1.68,18.826 2.217,18.219 2.631,17.461 2.922,16.555 3.215,15.65 3.361,14.512 3.361,13.141 L 3.361,0 0,0 Z"
               style="fill:#939598;fill-opacity:1;fill-rule:nonzero;stroke:none"
               id="path132" /></g><g
             id="g134"
             transform="translate(374.1992,32.21)"><path
               d="M 0,0 C -0.023,0.906 -0.131,1.688 -0.322,2.342 -0.514,2.998 -0.787,3.551 -1.145,4.004 -1.537,4.506 -2.041,4.887 -2.654,5.148 -3.27,5.41 -4.029,5.543 -4.936,5.543 -5.828,5.543 -6.588,5.408 -7.215,5.141 -7.84,4.871 -8.408,4.48 -8.922,3.969 -9.422,3.445 -9.803,2.863 -10.066,2.227 -10.328,1.588 -10.494,0.846 -10.566,0 L 0,0 Z m -3.934,-12.676 c -3.181,0 -5.652,0.897 -7.41,2.692 -1.758,1.793 -2.636,4.341 -2.636,7.642 0,3.254 0.851,5.844 2.556,7.768 1.703,1.926 3.934,2.887 6.686,2.887 1.24,0 2.336,-0.178 3.289,-0.536 C -0.494,7.42 0.34,6.859 1.055,6.096 1.77,5.334 2.318,4.4 2.699,3.299 3.08,2.195 3.271,0.846 3.271,-0.75 l 0,-1.824 -13.837,0 c 0,-2.324 0.584,-4.1 1.752,-5.328 1.168,-1.227 2.783,-1.842 4.845,-1.842 0.739,0 1.463,0.084 2.172,0.252 0.709,0.166 1.35,0.381 1.922,0.642 0.607,0.274 1.119,0.539 1.537,0.795 0.418,0.258 0.764,0.498 1.037,0.725 l 0.197,0 0,-3.664 c -0.394,-0.156 -0.882,-0.35 -1.466,-0.582 -0.584,-0.233 -1.108,-0.414 -1.573,-0.545 -0.656,-0.18 -1.25,-0.317 -1.779,-0.412 -0.531,-0.094 -1.201,-0.143 -2.012,-0.143"
               style="fill:#939598;fill-opacity:1;fill-rule:nonzero;stroke:none"
               id="path136" /></g><g
             id="g138"
             transform="translate(396.9297,19.999)"><path
               d="m 0,0 -3.359,0 0,11.371 c 0,0.918 -0.045,1.772 -0.135,2.565 -0.09,0.793 -0.26,1.427 -0.51,1.904 -0.273,0.502 -0.656,0.873 -1.144,1.117 -0.489,0.244 -1.157,0.367 -2.002,0.367 -0.834,0 -1.696,-0.222 -2.584,-0.67 -0.887,-0.447 -1.754,-1.029 -2.602,-1.744 l 0,-14.91 -3.359,0 0,19.971 3.359,0 0,-2.217 c 1.002,0.892 1.992,1.578 2.969,2.055 0.976,0.476 2.008,0.714 3.094,0.714 1.964,0 3.503,-0.646 4.611,-1.939 C -0.553,17.291 0,15.418 0,12.963 L 0,0 Z"
               style="fill:#939598;fill-opacity:1;fill-rule:nonzero;stroke:none"
               id="path140" /></g><g
             id="g142"
             transform="translate(408.0586,19.6064)"><path
               d="m 0,0 c -1.836,0 -3.266,0.521 -4.291,1.564 -1.025,1.043 -1.537,2.69 -1.537,4.944 l 0,11.066 -2.272,0 0,2.789 2.272,0 0,5.739 3.361,0 0,-5.739 6.186,0 0,-2.789 -6.186,0 0,-9.494 c 0,-1.012 0.018,-1.793 0.053,-2.342 0.037,-0.549 0.174,-1.06 0.412,-1.537 0.203,-0.418 0.529,-0.73 0.982,-0.939 0.454,-0.207 1.067,-0.313 1.842,-0.313 0.549,0 1.078,0.08 1.592,0.242 0.512,0.161 0.881,0.295 1.107,0.403 l 0.198,0 0,-3.022 C 3.086,0.393 2.445,0.254 1.797,0.152 1.146,0.051 0.549,0 0,0"
               style="fill:#939598;fill-opacity:1;fill-rule:nonzero;stroke:none"
               id="path144" /></g><g
             id="g146"
             transform="translate(427.5898,29.9756)"><path
               d="m 0,0 c 0,2.586 -0.471,4.508 -1.412,5.766 -0.942,1.257 -2.281,1.886 -4.022,1.886 -1.752,0 -3.101,-0.629 -4.05,-1.886 -0.948,-1.258 -1.42,-3.18 -1.42,-5.766 0,-2.504 0.472,-4.4 1.42,-5.693 0.949,-1.295 2.298,-1.942 4.05,-1.942 1.727,0 3.067,0.635 4.014,1.905 C -0.473,-4.461 0,-2.551 0,0 m 3.469,0 c 0,-3.361 -0.811,-5.957 -2.432,-7.785 -1.621,-1.83 -3.777,-2.746 -6.471,-2.746 -2.777,0 -4.961,0.945 -6.552,2.834 -1.592,1.888 -2.387,4.455 -2.387,7.697 0,3.336 0.818,5.93 2.459,7.777 1.639,1.846 3.799,2.77 6.48,2.77 2.694,0 4.85,-0.92 6.471,-2.762 C 2.658,5.943 3.469,3.35 3.469,0"
               style="fill:#939598;fill-opacity:1;fill-rule:nonzero;stroke:none"
               id="path148" /></g><g
             id="g150"
             transform="translate(454.3711,19.5166)"><path
               d="m 0,0 c -1.932,0 -3.574,0.199 -4.926,0.6 -1.353,0.398 -2.625,0.89 -3.816,1.474 l 0,4.434 0.25,0 c 1.168,-1.098 2.49,-1.945 3.969,-2.547 1.476,-0.604 2.902,-0.904 4.271,-0.904 1.955,0 3.434,0.408 4.436,1.224 1,0.817 1.5,1.893 1.5,3.229 0,1.06 -0.262,1.924 -0.786,2.592 -0.525,0.668 -1.359,1.162 -2.503,1.484 -0.823,0.238 -1.573,0.434 -2.252,0.59 -0.68,0.154 -1.532,0.363 -2.557,0.625 -0.918,0.238 -1.74,0.543 -2.467,0.912 -0.728,0.369 -1.371,0.851 -1.932,1.447 -0.548,0.584 -0.974,1.274 -1.277,2.065 -0.305,0.793 -0.457,1.709 -0.457,2.746 0,2.156 0.84,3.965 2.522,5.425 1.679,1.459 3.826,2.19 6.435,2.19 1.49,0 2.899,-0.148 4.229,-0.447 1.328,-0.297 2.558,-0.721 3.691,-1.27 l 0,-4.236 -0.267,0 c -0.848,0.773 -1.932,1.451 -3.254,2.029 -1.323,0.578 -2.711,0.867 -4.166,0.867 -1.645,0 -2.973,-0.384 -3.987,-1.154 -1.013,-0.768 -1.519,-1.777 -1.519,-3.029 0,-1.133 0.297,-2.033 0.894,-2.7 0.596,-0.667 1.459,-1.156 2.592,-1.466 0.75,-0.203 1.668,-0.432 2.752,-0.688 C 2.461,15.234 3.359,15 4.076,14.785 5.91,14.225 7.252,13.379 8.098,12.246 8.943,11.113 9.367,9.719 9.367,8.063 9.367,7.025 9.156,6.002 8.732,4.988 8.309,3.975 7.717,3.117 6.953,2.414 6.096,1.639 5.127,1.043 4.049,0.625 2.971,0.209 1.619,0 0,0"
               style="fill:#939598;fill-opacity:1;fill-rule:nonzero;stroke:none"
               id="path152" /></g><g
             id="g154"
             transform="translate(480.4805,29.9756)"><path
               d="m 0,0 c 0,2.586 -0.471,4.508 -1.412,5.766 -0.942,1.257 -2.281,1.886 -4.022,1.886 -1.752,0 -3.101,-0.629 -4.05,-1.886 -0.948,-1.258 -1.42,-3.18 -1.42,-5.766 0,-2.504 0.472,-4.4 1.42,-5.693 0.949,-1.295 2.298,-1.942 4.05,-1.942 1.727,0 3.067,0.635 4.014,1.905 C -0.473,-4.461 0,-2.551 0,0 m 3.469,0 c 0,-3.361 -0.811,-5.957 -2.432,-7.785 -1.621,-1.83 -3.777,-2.746 -6.471,-2.746 -2.777,0 -4.961,0.945 -6.552,2.834 -1.592,1.888 -2.387,4.455 -2.387,7.697 0,3.336 0.818,5.93 2.459,7.777 1.639,1.846 3.799,2.77 6.48,2.77 2.694,0 4.85,-0.92 6.471,-2.762 C 2.658,5.943 3.469,3.35 3.469,0"
               style="fill:#939598;fill-opacity:1;fill-rule:nonzero;stroke:none"
               id="path156" /></g><g
             id="g158"
             transform="translate(495.7031,19.5518)"><path
               d="m 0,0 c -1.371,0 -2.627,0.213 -3.771,0.635 -1.145,0.424 -2.127,1.064 -2.95,1.922 -0.822,0.859 -1.461,1.941 -1.914,3.246 -0.453,1.304 -0.679,2.84 -0.679,4.603 0,1.752 0.236,3.266 0.707,4.541 0.47,1.276 1.099,2.348 1.886,3.217 0.785,0.871 1.766,1.541 2.94,2.012 1.174,0.47 2.435,0.707 3.781,0.707 1.098,0 2.154,-0.156 3.174,-0.465 C 4.193,20.107 5.102,19.75 5.9,19.344 l 0,-3.772 -0.197,0 c -0.238,0.203 -0.545,0.436 -0.92,0.698 -0.375,0.261 -0.832,0.531 -1.367,0.804 -0.465,0.239 -1.014,0.447 -1.646,0.625 -0.631,0.18 -1.239,0.27 -1.823,0.27 -1.74,0 -3.138,-0.66 -4.193,-1.977 -1.055,-1.316 -1.582,-3.179 -1.582,-5.586 0,-2.361 0.51,-4.199 1.529,-5.515 1.02,-1.317 2.434,-1.977 4.246,-1.977 1.096,0 2.139,0.227 3.129,0.68 0.988,0.453 1.865,1.037 2.627,1.752 l 0.197,0 0,-3.772 C 5.566,1.42 5.148,1.23 4.648,1.012 4.148,0.791 3.695,0.627 3.291,0.52 2.719,0.352 2.205,0.225 1.752,0.135 1.299,0.045 0.715,0 0,0"
               style="fill:#939598;fill-opacity:1;fill-rule:nonzero;stroke:none"
               id="path160" /></g><path
             d="m 508.459,19.999 -3.361,0 0,19.971 3.361,0 0,-19.971 z m 0.232,23.313 -3.826,0 0,3.486 3.826,0 0,-3.486 z"
             style="fill:#939598;fill-opacity:1;fill-rule:nonzero;stroke:none"
             id="path162" /><g
             id="g164"
             transform="translate(524.916,24.915)"><path
               d="M 0,0 0,5.543 C -0.799,5.471 -1.809,5.373 -3.031,5.248 -4.252,5.123 -5.238,4.947 -5.99,4.721 -6.883,4.447 -7.623,4.025 -8.207,3.461 -8.791,2.895 -9.082,2.104 -9.082,1.092 c 0,-1.145 0.322,-2.01 0.965,-2.592 0.644,-0.584 1.586,-0.877 2.824,-0.877 1.063,0 2.022,0.229 2.879,0.688 C -1.555,-1.23 -0.752,-0.666 0,0 M 0,-2.787 C -0.275,-2.99 -0.641,-3.273 -1.1,-3.637 -1.559,-4 -2.002,-4.289 -2.432,-4.504 c -0.595,-0.31 -1.172,-0.549 -1.724,-0.715 -0.555,-0.168 -1.332,-0.252 -2.334,-0.252 -0.823,0 -1.604,0.157 -2.342,0.465 -0.738,0.311 -1.389,0.746 -1.949,1.307 -0.535,0.547 -0.965,1.224 -1.287,2.029 -0.321,0.805 -0.483,1.652 -0.483,2.547 0,1.383 0.293,2.559 0.877,3.531 0.584,0.971 1.508,1.742 2.77,2.315 1.121,0.511 2.443,0.867 3.97,1.064 1.526,0.195 3.17,0.342 4.934,0.438 l 0,0.644 c 0,0.785 -0.119,1.42 -0.357,1.902 -0.239,0.485 -0.573,0.856 -1.002,1.12 -0.428,0.273 -0.954,0.455 -1.573,0.545 -0.621,0.087 -1.257,0.132 -1.914,0.132 -0.773,0 -1.685,-0.115 -2.734,-0.347 -1.049,-0.233 -2.098,-0.571 -3.147,-1.01 l -0.197,0 0,3.414 c 0.619,0.18 1.508,0.375 2.664,0.59 1.156,0.215 2.301,0.322 3.432,0.322 1.371,0 2.527,-0.107 3.469,-0.322 C -0.418,15 0.43,14.613 1.18,14.053 1.906,13.504 2.449,12.795 2.807,11.926 3.164,11.055 3.344,9.994 3.344,8.744 l 0,-13.66 -3.344,0 0,2.129 z"
               style="fill:#939598;fill-opacity:1;fill-rule:nonzero;stroke:none"
               id="path166" /></g><path
             d="m 536.777,19.999 -3.361,0 0,27.818 3.361,0 0,-27.818 z"
             style="fill:#939598;fill-opacity:1;fill-rule:nonzero;stroke:none"
             id="path168" /><g
             id="g170"
             transform="translate(72,218.3896)"><path
               d="m 0,0 c -3,-5 11,-6 11,-6 l 47.5,3 c 0,0 26.5,-0.5 29,1 C 90,-0.5 95,19.5 86,29 77,38.5 75.5,40 52,40 28.5,40 4,6 4,6 4,6 3,5 0,0 m 4.334,27.833 c 0,0 21,17 30,20 l 8,0.333 c 0,0 22.999,9.333 40.666,3.333 0,0 18.334,-2.999 25.334,-25.666 0,0 1.666,-16 3,-18.667 0,0 3.666,-9.333 2.333,-14.333 l -3,-5 c 0,0 2,-3.667 -7.333,-3.667 0,0 -4.334,0.333 -5.334,-2.667 l -9,5 c 0,0 -8,-2.334 -16,0 0,0 -18.666,0.333 -21.666,-2 l -40.667,-1 c 0,0 -10.667,0.333 -13.667,-3 0,0 -1.666,-4.999 -5.333,-5.666 0,0 -4.667,-35.001 8.667,-49.334 0,0 18.666,-19.999 46.666,-25.666 0,0 17,-0.333 33.667,2 l 12.667,0 c 0,0 10.666,9 15.333,7 0,0 9.667,-18.001 -11.333,-28.334 0,0 -4.667,2.334 -11.667,0.334 0,0 -13.333,-1.666 -52,6 0,0 -36.334,-0.334 -54.667,38.666 0,0 -17,34.334 12,86.334 l 13.334,16 z"
               style="fill:#d75593;fill-opacity:1;fill-rule:nonzero;stroke:none"
               id="path172" /></g><g
             id="g174"
             transform="translate(324,164.3896)"><path
               d="m 0,0 c -5.5,-6 -22.5,-18 2,-40 24.5,-22 59,9 59,9 l -0.5,3.5 c 9.5,5 9.5,18 8.5,35 C 68,24.5 49.5,21 40.5,19.5 31.5,18 16,11 16,11 16,11 5.5,6 0,0 m 18.665,109.833 c 0,0 17,2.667 40.667,-5 23.667,-7.667 26.667,-55 26.333,-58 -0.334,-3 -1.333,-9.333 3.667,-11.666 5,-2.333 6,-4.334 3.667,-5 -2.333,-0.666 -2.334,0 -5.334,-8.667 -3,-8.667 -0.666,-53.333 -0.666,-53.333 0,0 -0.333,5.333 -1.667,-4.667 -1.334,-10 3.667,-31 3.667,-31 l 0.333,-16.667 c 0,0 -6.666,-5.666 -12,-10.333 -5.334,-4.667 -10.666,-1 -14,1 -3.334,2 -5.333,13.333 0,19.333 5.333,6 6,12.334 6,12.334 0,0 2.667,11.333 -1.333,14.666 -4,3.333 -19.667,-5.666 -19.667,-5.666 0,0 -28.666,-13.334 -57.333,-4.667 -28.667,8.667 -13.667,42.333 -13.667,42.333 0,0 3.667,14 34,31.334 30.333,17.334 34,12.333 40.667,16 6.667,3.667 13.333,-5.667 17,14.333 3.667,20 -6,27.667 -18.333,40 -12.333,12.333 -29.667,6 -41.334,7 -11.667,1 -5.333,-5.333 -18.333,-7 -13,-1.667 -6,5.667 -6,5.667 0,0 -3.333,-2.667 0.667,5.333 4,8 11.333,5.667 11.333,5.667 3.667,4.334 21.666,6.666 21.666,6.666"
               style="fill:#d75593;fill-opacity:1;fill-rule:nonzero;stroke:none"
               id="path176" /></g></g></g></g></g></svg>