<?xml version="1.0" encoding="UTF-8" standalone="no"?>
<svg
   xmlns:dc="http://purl.org/dc/elements/1.1/"
   xmlns:cc="http://creativecommons.org/ns#"
   xmlns:rdf="http://www.w3.org/1999/02/22-rdf-syntax-ns#"
   xmlns:svg="http://www.w3.org/2000/svg"
   xmlns="http://www.w3.org/2000/svg"
   viewBox="0 0 420 105"
   height="105"
   width="420"
   xml:space="preserve"
   version="1.1"
   id="svg2"><metadata
     id="metadata8"><rdf:RDF><cc:Work
         rdf:about=""><dc:format>image/svg+xml</dc:format><dc:type
           rdf:resource="http://purl.org/dc/dcmitype/StillImage" /><dc:title></dc:title></cc:Work></rdf:RDF></metadata><defs
     id="defs6" /><g
     transform="matrix(1.25,0,0,-1.25,0,105)"
     id="g10"><g
       transform="matrix(1.771695,0,0,1.771695,-31.972986,-165.28831)"
       id="g3556"><path
         d="m 182.644,96.045 -1.48,0 0,42.551 1.48,0 0,-42.551 z"
         style="fill:#231f20;fill-opacity:1;fill-rule:nonzero;stroke:none"
         id="path12" /><path
         d="m 160.629,118.061 42.551,0 0,-1.48 -42.551,0 0,1.48 z"
         style="fill:#231f20;fill-opacity:1;fill-rule:nonzero;stroke:none"
         id="path14" /><g
         id="g16"
         transform="translate(167.3838,101.7539)"><path
           d="M 0,0 -1.046,1.047 29.04,31.133 30.087,30.088 0,0 Z"
           style="fill:#231f20;fill-opacity:1;fill-rule:nonzero;stroke:none"
           id="path18" /></g><path
         d="m 44.577,95.404 -1.48,0 0,22.754 1.48,0 0,-22.754 z"
         style="fill:#bbbdbf;fill-opacity:1;fill-rule:nonzero;stroke:none"
         id="path20" /><path
         d="m 22.562,117.42 21.275,0 0,-1.48 -21.275,0 0,1.48 z"
         style="fill:#bbbdbf;fill-opacity:1;fill-rule:nonzero;stroke:none"
         id="path22" /><g
         id="g24"
         transform="translate(29.3174,101.1133)"><path
           d="M 0,0 -1.047,1.047 29.04,31.133 30.087,30.088 0,0 Z"
           style="fill:#bbbdbf;fill-opacity:1;fill-rule:nonzero;stroke:none"
           id="path26" /></g><path
         d="m 68.516,117.42 42.55,0 0,-1.48 -42.55,0 0,1.48 z"
         style="fill:#bbbdbf;fill-opacity:1;fill-rule:nonzero;stroke:none"
         id="path28" /><g
         id="g30"
         transform="translate(75.2705,101.1133)"><path
           d="M 0,0 -1.047,1.047 29.04,31.133 30.087,30.088 0,0 Z"
           style="fill:#bbbdbf;fill-opacity:1;fill-rule:nonzero;stroke:none"
           id="path32" /></g><g
         id="g34"
         transform="translate(73.4844,131.5449)"><path
           d="M 0,0 1.046,1.045 31.133,-29.041 30.087,-30.088 0,0 Z"
           style="fill:#bbbdbf;fill-opacity:1;fill-rule:nonzero;stroke:none"
           id="path36" /></g><g
         id="g38"
         transform="translate(166.3379,131.8418)"><path
           d="M 0,0 1.046,1.045 31.133,-29.041 30.087,-30.088 0,0 Z"
           style="fill:#231f20;fill-opacity:1;fill-rule:nonzero;stroke:none"
           id="path40" /></g><g
         id="g42"
         transform="translate(27.5303,131.5449)"><path
           d="M 0,0 1.046,1.045 31.133,-29.041 30.087,-30.088 0,0 Z"
           style="fill:#bbbdbf;fill-opacity:1;fill-rule:nonzero;stroke:none"
           id="path44" /></g><path
         d="m 44.577,116.063 -1.48,0 0,22.016 1.48,0 0,-22.016 z"
         style="fill:#231f20;fill-opacity:1;fill-rule:nonzero;stroke:none"
         id="path46" /><path
         d="m 43.063,117.543 22.015,0 0,-1.48 -22.015,0 0,1.48 z"
         style="fill:#231f20;fill-opacity:1;fill-rule:nonzero;stroke:none"
         id="path48" /><path
         d="m 136.606,95.404 -1.48,0 0,22.754 1.48,0 0,-22.754 z"
         style="fill:#bbbdbf;fill-opacity:1;fill-rule:nonzero;stroke:none"
         id="path50" /><path
         d="m 89.791,95.404 -1.48,0 0,42.674 1.48,0 0,-42.674 z"
         style="fill:#231f20;fill-opacity:1;fill-rule:nonzero;stroke:none"
         id="path52" /><path
         d="m 114.591,117.42 21.275,0 0,-1.48 -21.275,0 0,1.48 z"
         style="fill:#bbbdbf;fill-opacity:1;fill-rule:nonzero;stroke:none"
         id="path54" /><g
         id="g56"
         transform="translate(121.3467,101.1133)"><path
           d="M 0,0 -1.047,1.047 29.04,31.133 30.087,30.088 0,0 Z"
           style="fill:#bbbdbf;fill-opacity:1;fill-rule:nonzero;stroke:none"
           id="path58" /></g><g
         id="g60"
         transform="translate(119.5596,131.5449)"><path
           d="M 0,0 1.046,1.045 31.133,-29.041 30.087,-30.088 0,0 Z"
           style="fill:#bbbdbf;fill-opacity:1;fill-rule:nonzero;stroke:none"
           id="path62" /></g><path
         d="m 136.606,116.063 -1.48,0 0,22.016 1.48,0 0,-22.016 z"
         style="fill:#231f20;fill-opacity:1;fill-rule:nonzero;stroke:none"
         id="path64" /><path
         d="m 135.093,117.543 22.015,0 0,-1.48 -22.015,0 0,1.48 z"
         style="fill:#231f20;fill-opacity:1;fill-rule:nonzero;stroke:none"
         id="path66" /></g></g></svg>