<?xml version="1.0" standalone="no"?>
<!-- Generator: Adobe Fireworks 10, Export SVG Extension by Aaron Beall (http://fireworks.abeall.com) . Version: 0.6.1  -->
<!DOCTYPE svg PUBLIC "-//W3C//DTD SVG 1.1//EN" "http://www.w3.org/Graphics/SVG/1.1/DTD/svg11.dtd">
<svg id="logotipo_editable-P%E1gina%201" viewBox="0 0 790 274" style="background-color:#ffffff00" version="1.1"
	xmlns="http://www.w3.org/2000/svg" xmlns:xlink="http://www.w3.org/1999/xlink" xml:space="preserve"
	x="0px" y="0px" width="790px" height="274px"
>
	<defs>
	<clipPath id="mask1">
		<path d="M 0.0845 137.2317 C 0.0845 212.6901 61.2571 273.8627 136.7164 273.8627 C 212.1797 273.8627 273.3523 212.6901 273.3523 137.2317 C 273.3523 61.7684 212.1797 0.5998 136.7164 0.5998 C 61.2571 0.5998 0.0845 61.7684 0.0845 137.2317 L 0.0845 137.2317 Z" fill="none"/>
	</clipPath>
	</defs>
	<path d="M 353.8662 172.5459 C 353.6846 172.8515 353.4952 173.0761 353.2901 173.2294 C 353.0841 173.3827 352.8244 173.4588 352.4983 173.4588 C 352.1527 173.4588 351.7553 173.2889 351.2994 172.9404 C 350.8444 172.5987 350.2645 172.2208 349.5664 171.8029 C 348.8702 171.39 348.0286 171.0082 347.0445 170.6636 C 346.0623 170.3209 344.876 170.1451 343.476 170.1451 C 342.1599 170.1451 340.9931 170.3248 339.9777 170.6762 C 338.9672 171.0346 338.1198 171.5139 337.4461 172.1232 C 336.7646 172.7314 336.2501 173.4451 335.9044 174.2653 C 335.5627 175.0835 335.3909 175.9719 335.3909 176.9229 C 335.3909 178.1384 335.6896 179.145 336.2891 179.9466 C 336.8847 180.7472 337.6736 181.4297 338.6606 181.9989 C 339.638 182.5651 340.7559 183.0543 341.9987 183.4712 C 343.2475 183.8891 344.5246 184.3186 345.827 184.7619 C 347.1372 185.2071 348.4104 185.709 349.6581 186.2664 C 350.902 186.8229 352.017 187.5269 353.0021 188.3773 C 353.9843 189.2306 354.7722 190.2733 355.3727 191.5074 C 355.9673 192.7464 356.2641 194.2636 356.2641 196.064 C 356.2641 197.9708 355.938 199.7595 355.2936 201.4261 C 354.6414 203.1015 353.6973 204.5543 352.4554 205.7884 C 351.2086 207.0264 349.6777 207.9968 347.8597 208.7076 C 346.0486 209.4145 343.9905 209.7689 341.6805 209.7689 C 338.8657 209.7689 336.3028 209.2573 333.9762 208.235 C 331.6603 207.2119 329.6764 205.8303 328.0381 204.0847 L 329.7428 201.2933 C 329.9009 201.0687 330.0991 200.8793 330.3344 200.7299 C 330.5629 200.5796 330.8226 200.5015 331.1096 200.5015 C 331.5334 200.5015 332.0186 200.7299 332.5663 201.1859 C 333.1141 201.6418 333.7936 202.1437 334.6186 202.6904 C 335.4358 203.2372 336.4317 203.739 337.5916 204.195 C 338.7583 204.648 340.1779 204.8794 341.8669 204.8794 C 343.2602 204.8794 344.505 204.6841 345.6024 204.3033 C 346.6998 203.9148 347.6225 203.3748 348.3821 202.6748 C 349.1426 201.9777 349.7236 201.14 350.1268 200.1685 C 350.5378 199.1951 350.7399 198.1104 350.7399 196.9183 C 350.7399 195.6022 350.4402 194.5243 349.8398 193.6798 C 349.2442 192.8401 348.4582 192.1362 347.4858 191.5689 C 346.5134 191.0027 345.4042 190.5204 344.1594 190.123 C 342.9117 189.7285 341.6385 189.3243 340.3341 188.9084 C 339.018 188.4974 337.7478 188.0131 336.501 187.4644 C 335.2532 186.9177 334.147 186.2137 333.1746 185.3379 C 332.1983 184.4719 331.4162 183.3804 330.8167 182.0711 C 330.2231 180.7677 329.9166 179.1519 329.9166 177.2275 C 329.9166 175.6897 330.2231 174.2008 330.8167 172.7607 C 331.4162 171.3206 332.2783 170.0475 333.4157 168.9296 C 334.5493 167.8195 335.9562 166.9271 337.6248 166.2593 C 339.2963 165.5876 341.2138 165.2566 343.3842 165.2566 C 345.8133 165.2566 348.0325 165.6403 350.0418 166.4087 C 352.0424 167.177 353.7949 168.292 355.2936 169.7516 L 353.8662 172.5459 Z" fill="#5d6968"/>
	<path d="M 373.5872 178.0183 C 375.4306 178.0183 377.1314 178.3249 378.6877 178.9468 C 380.2518 179.5629 381.5972 180.4514 382.7346 181.6181 C 383.8652 182.7809 384.7537 184.22 385.3932 185.9335 C 386.0317 187.644 386.3441 189.5928 386.3441 191.7818 C 386.3441 192.6351 386.2602 193.2024 386.0776 193.4816 C 385.894 193.7647 385.5494 193.9083 385.0407 193.9083 L 364.561 193.9083 C 364.604 195.8531 364.8637 197.5441 365.3528 198.9843 C 365.841 200.4195 366.5059 201.6223 367.3592 202.586 C 368.2057 203.5438 369.222 204.2643 370.3946 204.7437 C 371.5682 205.2153 372.8863 205.4564 374.3469 205.4564 C 375.705 205.4564 376.8746 205.2972 377.8549 204.9839 C 378.839 204.6685 379.6855 204.3326 380.3894 203.9636 C 381.1002 203.6024 381.6987 203.2635 382.1742 202.9482 C 382.6428 202.6348 383.0578 202.4756 383.3985 202.4756 C 383.8476 202.4756 384.1874 202.6484 384.4344 202.997 L 385.9536 204.9702 C 385.2819 205.7786 384.4803 206.4855 383.5547 207.0791 C 382.6165 207.6776 381.6206 208.1696 380.5612 208.5543 C 379.4961 208.939 378.3948 209.228 377.2612 209.4213 C 376.1277 209.6127 375.001 209.7103 373.8929 209.7103 C 371.7635 209.7103 369.803 209.3481 368.0104 208.6324 C 366.2188 207.9129 364.6684 206.8594 363.366 205.4691 C 362.0567 204.0847 361.0364 202.3643 360.31 200.3218 C 359.5807 198.2774 359.2155 195.9244 359.2155 193.2707 C 359.2155 191.1227 359.5416 189.1203 360.2055 187.2535 C 360.8568 185.3897 361.8087 183.7778 363.0418 182.4089 C 364.2769 181.0381 365.7892 179.9671 367.5681 179.187 C 369.349 178.4098 371.3593 178.0183 373.5872 178.0183 ZM 373.7074 181.9989 C 371.0917 181.9989 369.0395 182.7516 367.5349 184.263 C 366.0431 185.7714 365.1078 187.8628 364.7465 190.5331 L 381.4868 190.5331 C 381.4868 189.2823 381.314 188.1293 380.9684 187.0865 C 380.6296 186.0448 380.119 185.1427 379.4512 184.3831 C 378.7804 183.6245 377.972 183.0357 377.0074 182.6179 C 376.0428 182.2049 374.9414 181.9989 373.7074 181.9989 Z" fill="#5d6968"/>
	<path d="M 412.7229 183.9691 C 412.5598 184.1976 412.3968 184.3675 412.2376 184.4875 C 412.0746 184.6115 411.8432 184.6691 411.5366 184.6691 C 411.2369 184.6691 410.904 184.5471 410.5476 184.2923 C 410.1951 184.0384 409.746 183.7612 409.1973 183.4556 C 408.6506 183.1519 407.9867 182.8717 407.2104 182.6179 C 406.4265 182.3669 405.4726 182.24 404.3391 182.24 C 402.8394 182.24 401.5106 182.5114 400.3575 183.0445 C 399.2006 183.5825 398.233 184.3577 397.451 185.3711 C 396.6767 186.3846 396.087 187.6089 395.6916 189.0451 C 395.2952 190.4881 395.0999 192.0971 395.0999 193.876 C 395.0999 195.7418 395.3138 197.3977 395.7375 198.8466 C 396.1622 200.2974 396.7617 201.511 397.5301 202.4922 C 398.2994 203.4754 399.2377 204.2242 400.338 204.7437 C 401.4461 205.2572 402.6861 205.5179 404.0637 205.5179 C 405.3798 205.5179 406.4684 205.3588 407.3149 205.0424 C 408.1624 204.7329 408.8751 204.3815 409.4395 203.9968 C 410.0057 203.6131 410.4753 203.2635 410.8405 202.9482 C 411.2057 202.6348 411.5698 202.4756 411.935 202.4756 C 412.3968 202.4756 412.7414 202.6484 412.964 202.997 L 414.4852 204.9702 C 413.1495 206.6104 411.4781 207.8104 409.4727 208.5699 C 407.4643 209.3295 405.3486 209.7103 403.1235 209.7103 C 401.1972 209.7103 399.4134 209.352 397.7575 208.6481 C 396.1095 207.9392 394.6694 206.9082 393.4577 205.5638 C 392.2402 204.2155 391.2893 202.5596 390.5873 200.5933 C 389.8873 198.6288 389.5387 196.3911 389.5387 193.876 C 389.5387 191.5934 389.856 189.4718 390.4975 187.5269 C 391.136 185.582 392.0645 183.9076 393.2888 182.4978 C 394.52 181.0899 396.0314 179.9915 397.8327 179.2007 C 399.6419 178.4118 401.7059 178.0183 404.0354 178.0183 C 406.1775 178.0183 408.0843 178.3669 409.746 179.0669 C 411.4058 179.765 412.8752 180.7511 414.1503 182.0291 L 412.7229 183.9691 Z" fill="#5d6968"/>
	<path d="M 418.5858 209.2837 L 418.5858 178.5036 L 421.6876 178.5036 C 422.2744 178.5036 422.6767 178.6139 422.8993 178.8365 C 423.1238 179.0611 423.2771 179.4447 423.3542 179.9915 L 423.7204 184.7941 C 424.7758 182.6472 426.0743 180.9698 427.6296 179.765 C 429.1791 178.5582 430.997 177.9558 433.0825 177.9558 C 433.929 177.9558 434.6983 178.0515 435.3886 178.2468 C 436.0789 178.4362 436.7174 178.7027 437.3042 179.0513 L 436.6071 183.0933 C 436.4626 183.5981 436.1511 183.849 435.662 183.849 C 435.3828 183.849 434.9453 183.7553 434.3557 183.563 C 433.7718 183.3706 432.9517 183.273 431.8962 183.273 C 430.0139 183.273 428.4361 183.8197 427.1668 184.9142 C 425.9025 186.0087 424.8471 187.5982 423.9937 189.6866 L 423.9937 209.2837 L 418.5858 209.2837 Z" fill="#5d6968"/>
	<path d="M 453.7438 178.0183 C 455.5881 178.0183 457.286 178.3249 458.8481 178.9468 C 460.4122 179.5629 461.7546 180.4514 462.895 181.6181 C 464.0217 182.7809 464.9102 184.22 465.5497 185.9335 C 466.1853 187.644 466.5036 189.5928 466.5036 191.7818 C 466.5036 192.6351 466.4128 193.2024 466.2302 193.4816 C 466.0544 193.7647 465.7059 193.9083 465.2012 193.9083 L 444.7175 193.9083 C 444.7595 195.8531 445.0241 197.5441 445.5064 198.9843 C 445.9956 200.4195 446.6663 201.6223 447.5128 202.586 C 448.3622 203.5438 449.3757 204.2643 450.5551 204.7437 C 451.7286 205.2153 453.0438 205.4564 454.5034 205.4564 C 455.8615 205.4564 457.0311 205.2972 458.0085 204.9839 C 458.9946 204.6685 459.8391 204.3326 460.5489 203.9636 C 461.2596 203.6024 461.8523 203.2635 462.3278 202.9482 C 462.8032 202.6348 463.2143 202.4756 463.559 202.4756 C 464.0012 202.4756 464.3478 202.6484 464.5919 202.997 L 466.1101 204.9702 C 465.4413 205.7786 464.6407 206.4855 463.7084 207.0791 C 462.7769 207.6776 461.781 208.1696 460.7149 208.5543 C 459.6526 208.939 458.5523 209.228 457.4217 209.4213 C 456.2881 209.6127 455.1614 209.7103 454.0465 209.7103 C 451.9171 209.7103 449.9595 209.3481 448.1709 208.6324 C 446.3754 207.9129 444.8289 206.8594 443.5196 205.4691 C 442.2093 204.0847 441.193 202.3643 440.4626 200.3218 C 439.7333 198.2774 439.3691 195.9244 439.3691 193.2707 C 439.3691 191.1227 439.7001 189.1203 440.3601 187.2535 C 441.0172 185.3897 441.9623 183.7778 443.2003 182.4089 C 444.4315 181.0381 445.9419 179.9671 447.7286 179.187 C 449.5065 178.4098 451.5197 178.0183 453.7438 178.0183 ZM 453.8639 181.9989 C 451.2522 181.9989 449.1931 182.7516 447.6954 184.263 C 446.1977 185.7714 445.2643 187.8628 444.9001 190.5331 L 461.6434 190.5331 C 461.6434 189.2823 461.4745 188.1293 461.1288 187.0865 C 460.7832 186.0448 460.2755 185.1427 459.6038 184.3831 C 458.9399 183.6245 458.1256 183.0357 457.161 182.6179 C 456.1974 182.2049 455.099 181.9989 453.8639 181.9989 Z" fill="#5d6968"/>
	<path d="M 481.2073 209.7689 C 478.7781 209.7689 476.9075 209.0923 475.605 207.7332 C 474.2958 206.3751 473.6436 204.4234 473.6436 201.8703 L 473.6436 183.0289 L 469.9364 183.0289 C 469.6122 183.0289 469.3408 182.9342 469.1163 182.7419 C 468.8947 182.5495 468.7833 182.2498 468.7833 181.8466 L 468.7833 179.6869 L 473.8271 179.0513 L 475.072 169.5388 C 475.1168 169.2361 475.2467 168.9882 475.4674 168.7939 C 475.6968 168.6054 475.9761 168.5068 476.3187 168.5068 L 479.0515 168.5068 L 479.0515 179.1099 L 487.8688 179.1099 L 487.8688 183.0289 L 479.0515 183.0289 L 479.0515 201.5042 C 479.0515 202.8018 479.3718 203.7664 479.9966 204.3903 C 480.6215 205.0239 481.4357 205.3324 482.4268 205.3324 C 482.996 205.3324 483.489 205.2572 483.8981 205.1039 C 484.3159 204.9546 484.6743 204.7856 484.9799 204.606 C 485.2825 204.4234 485.5403 204.2545 485.756 204.1013 C 485.9708 203.9479 486.1534 203.8767 486.3155 203.8767 C 486.6025 203.8767 486.8564 204.0485 487.078 204.3903 L 488.6577 206.9746 C 487.7224 207.8436 486.6025 208.528 485.2825 209.0259 C 483.9674 209.5219 482.6093 209.7689 481.2073 209.7689 Z" fill="#5d6968"/>
	<path d="M 515.6389 209.2837 L 513.2351 209.2837 C 512.7079 209.2837 512.2881 209.2017 511.9659 209.0435 C 511.6388 208.8795 511.424 208.5348 511.3196 208.0066 L 510.7142 205.1528 C 509.9039 205.8792 509.1121 206.5343 508.3436 207.1103 C 507.5743 207.6903 506.7659 208.1726 505.9126 208.5699 C 505.0622 208.9644 504.1532 209.2641 503.1954 209.4633 C 502.2328 209.6683 501.1637 209.7689 499.9911 209.7689 C 498.7921 209.7689 497.6752 209.599 496.6354 209.268 C 495.5868 208.9283 494.6808 208.4274 493.9124 207.7567 C 493.144 207.0879 492.5309 206.2375 492.075 205.2123 C 491.6199 204.1862 491.3915 202.9706 491.3915 201.5667 C 491.3915 200.3482 491.7224 199.1756 492.3912 198.046 C 493.0581 196.9183 494.1399 195.9156 495.6288 195.0447 C 497.1177 194.1689 499.0665 193.4552 501.4819 192.8958 C 503.8867 192.3354 506.8372 192.0552 510.3168 192.0552 L 510.3168 189.6378 C 510.3168 187.234 509.8082 185.4131 508.782 184.1849 C 507.7637 182.9498 506.2484 182.3318 504.244 182.3318 C 502.9221 182.3318 501.8149 182.4978 500.9156 182.8336 C 500.0175 183.1685 499.2354 183.5405 498.5734 183.9564 C 497.9193 184.3733 497.353 184.7453 496.8776 185.0802 C 496.402 185.4131 495.9246 185.582 495.4628 185.582 C 495.0977 185.582 494.7784 185.4873 494.505 185.2921 C 494.2317 185.1026 494.0129 184.8654 493.8538 184.5784 L 492.8823 182.8493 C 494.5841 181.207 496.4138 179.9827 498.3752 179.1714 C 500.3425 178.363 502.5178 177.9558 504.9128 177.9558 C 506.6331 177.9558 508.1611 178.2399 509.5016 178.8072 C 510.8372 179.3735 511.9659 180.1653 512.87 181.1777 C 513.7828 182.1873 514.4731 183.4136 514.9427 184.8556 C 515.4055 186.2928 515.6389 187.8716 515.6389 189.5928 L 515.6389 209.2837 ZM 501.6001 205.9709 C 502.551 205.9709 503.421 205.8733 504.2128 205.6839 C 505.0065 205.4925 505.7505 205.2153 506.4467 204.8638 C 507.1437 204.5084 507.8154 204.0788 508.453 203.5701 C 509.0886 203.0654 509.7106 202.4854 510.3168 201.84 L 510.3168 195.485 C 507.8281 195.485 505.7104 195.6442 503.9687 195.9644 C 502.2328 196.2798 500.8112 196.6938 499.7177 197.2014 C 498.6223 197.7101 497.8285 198.3125 497.3325 199.0038 C 496.8336 199.697 496.5865 200.4683 496.5865 201.3255 C 496.5865 202.1398 496.7174 202.8437 496.98 203.4334 C 497.2417 204.0261 497.6 204.5084 498.0462 204.8901 C 498.4924 205.2641 499.0197 205.5414 499.6259 205.7103 C 500.2352 205.886 500.8903 205.9709 501.6001 205.9709 Z" fill="#5d6968"/>
	<path d="M 522.3239 209.2837 L 522.3239 178.5036 L 525.4208 178.5036 C 526.0076 178.5036 526.4157 178.6139 526.6364 178.8365 C 526.858 179.0611 527.0142 179.4447 527.0963 179.9915 L 527.4584 184.7941 C 528.5099 182.6472 529.8094 180.9698 531.3629 179.765 C 532.9113 178.5582 534.7292 177.9558 536.8137 177.9558 C 537.6671 177.9558 538.4354 178.0515 539.1199 178.2468 C 539.813 178.4362 540.4555 178.7027 541.0384 179.0513 L 540.3373 183.0933 C 540.1978 183.5981 539.8882 183.849 539.4001 183.849 C 539.1199 183.849 538.6824 183.7553 538.0938 183.563 C 537.504 183.3706 536.6898 183.273 535.6314 183.273 C 533.7471 183.273 532.1674 183.8197 530.9049 184.9142 C 529.6406 186.0087 528.5851 187.5982 527.7318 189.6866 L 527.7318 209.2837 L 522.3239 209.2837 Z" fill="#5d6968"/>
	<path d="M 552.528 168.8388 C 552.528 169.367 552.4166 169.8591 552.2087 170.314 C 551.9929 170.77 551.7059 171.1781 551.3553 171.5296 C 550.9999 171.8849 550.5928 172.1613 550.1242 172.3673 C 549.6575 172.5655 549.1595 172.667 548.6372 172.667 C 548.111 172.667 547.615 172.5655 547.1659 172.3673 C 546.706 172.1613 546.3018 171.8849 545.9464 171.5296 C 545.595 171.1781 545.3157 170.77 545.1136 170.314 C 544.9047 169.8591 544.8071 169.367 544.8071 168.8388 C 544.8071 168.3145 544.9047 167.8126 545.1136 167.3372 C 545.3157 166.8617 545.595 166.4448 545.9464 166.0894 C 546.3018 165.7369 546.706 165.4567 547.1659 165.2566 C 547.615 165.0545 548.111 164.9529 548.6372 164.9529 C 549.1595 164.9529 549.6575 165.0545 550.1242 165.2566 C 550.5928 165.4567 550.9999 165.7369 551.3553 166.0894 C 551.7059 166.4448 551.9929 166.8617 552.2087 167.3372 C 552.4166 167.8126 552.528 168.3145 552.528 168.8388 ZM 551.3085 178.5036 L 551.3085 209.2837 L 545.9015 209.2837 L 545.9015 178.5036 L 551.3085 178.5036 Z" fill="#5d6968"/>
	<path d="M 581.9363 209.2837 L 579.5384 209.2837 C 579.0112 209.2837 578.5874 209.2017 578.2614 209.0435 C 577.9362 208.8795 577.7273 208.5348 577.6228 208.0066 L 577.0135 205.1528 C 576.2032 205.8792 575.4143 206.5343 574.645 207.1103 C 573.8766 207.6903 573.0623 208.1726 572.2158 208.5699 C 571.3625 208.9644 570.4565 209.2641 569.4987 209.4633 C 568.5341 209.6683 567.463 209.7689 566.2904 209.7689 C 565.0944 209.7689 563.9745 209.599 562.9318 209.268 C 561.8901 208.9283 560.984 208.4274 560.2117 207.7567 C 559.4434 207.0879 558.8273 206.2375 558.3772 205.2123 C 557.9213 204.1862 557.6879 202.9706 557.6879 201.5667 C 557.6879 200.3482 558.0257 199.1756 558.6974 198.046 C 559.3613 196.9183 560.4363 195.9156 561.9282 195.0447 C 563.421 194.1689 565.3678 193.4552 567.7784 192.8958 C 570.1899 192.3354 573.1346 192.0552 576.6201 192.0552 L 576.6201 189.6378 C 576.6201 187.234 576.1115 185.4131 575.0892 184.1849 C 574.063 182.9498 572.5478 182.3318 570.5472 182.3318 C 569.2253 182.3318 568.1181 182.4978 567.2189 182.8336 C 566.3168 183.1685 565.5318 183.5405 564.8796 183.9564 C 564.2147 184.3733 563.6484 184.7453 563.173 185.0802 C 562.6965 185.4131 562.2278 185.582 561.7592 185.582 C 561.4009 185.582 561.0817 185.4873 560.8083 185.2921 C 560.5349 185.1026 560.3123 184.8654 560.1502 184.5784 L 559.1788 182.8493 C 560.8795 181.207 562.717 179.9827 564.6775 179.1714 C 566.6458 178.363 568.8211 177.9558 571.2122 177.9558 C 572.9324 177.9558 574.4634 178.2399 575.799 178.8072 C 577.1405 179.3735 578.2614 180.1653 579.1742 181.1777 C 580.0851 182.1873 580.7734 183.4136 581.2382 184.8556 C 581.701 186.2928 581.9363 187.8716 581.9363 189.5928 L 581.9363 209.2837 ZM 567.8994 205.9709 C 568.8543 205.9709 569.7271 205.8733 570.5151 205.6839 C 571.303 205.4925 572.046 205.2153 572.7469 204.8638 C 573.447 204.5084 574.1119 204.0788 574.7534 203.5701 C 575.3879 203.0654 576.0138 202.4854 576.6201 201.84 L 576.6201 195.485 C 574.1314 195.485 572.0137 195.6442 570.2739 195.9644 C 568.5282 196.2798 567.1115 196.6938 566.019 197.2014 C 564.9186 197.7101 564.1278 198.3125 563.6279 199.0038 C 563.1339 199.697 562.8859 200.4683 562.8859 201.3255 C 562.8859 202.1398 563.0236 202.8437 563.2833 203.4334 C 563.544 204.0261 563.8994 204.5084 564.3456 204.8901 C 564.7878 205.2641 565.316 205.5414 565.9282 205.7103 C 566.5276 205.886 567.1926 205.9709 567.8994 205.9709 Z" fill="#5d6968"/>
	<path d="M 587.2222 188.7756 L 602.2373 188.7756 L 602.2373 193.3615 L 587.2222 193.3615 L 587.2222 188.7756 Z" fill="#5d6968"/>
	<path d="M 628.4589 204.9995 C 629.6315 204.9995 630.7133 204.9438 631.6935 204.8345 C 632.6737 204.7193 633.6061 204.5543 634.478 204.3326 C 635.345 204.1081 636.1671 203.8396 636.9355 203.5281 C 637.7039 203.2128 638.48 202.8535 639.2484 202.4503 L 639.2484 192.847 L 632.498 192.847 C 632.1133 192.847 631.8048 192.7357 631.5734 192.5111 C 631.3381 192.2866 631.2219 192.0132 631.2219 191.691 L 631.2219 188.349 L 644.5909 188.349 L 644.5909 205.059 C 643.4994 205.8479 642.3551 206.5372 641.1757 207.1279 C 639.9904 207.7127 638.7202 208.2058 637.3777 208.5992 C 636.0294 208.9947 634.5825 209.2905 633.0447 209.4789 C 631.509 209.6742 629.8336 209.7689 628.0361 209.7689 C 624.8718 209.7689 621.9769 209.228 619.3447 208.1433 C 616.7125 207.0596 614.4387 205.5443 612.5367 203.5858 C 610.6348 201.6321 609.1478 199.2859 608.0865 196.5532 C 607.0194 193.8174 606.4902 190.8074 606.4902 187.5269 C 606.4902 184.2073 607.0126 181.1777 608.0543 178.442 C 609.097 175.7093 610.586 173.3631 612.5211 171.4095 C 614.4523 169.4519 616.7946 167.9396 619.541 166.8675 C 622.2825 165.7926 625.358 165.2566 628.7625 165.2566 C 630.4828 165.2566 632.085 165.3835 633.5602 165.6364 C 635.0424 165.8873 636.4141 166.2524 637.6775 166.7318 C 638.9487 167.2034 640.1154 167.7834 641.1894 168.4609 C 642.2643 169.1414 643.268 169.904 644.1926 170.7543 L 642.525 173.4315 C 642.1794 173.9763 641.7371 174.2496 641.1894 174.2496 C 640.8643 174.2496 640.5118 174.1384 640.1242 173.9138 C 639.6194 173.6297 639.0493 173.2889 638.4273 172.8808 C 637.7956 172.4766 637.0331 172.0871 636.1271 171.7121 C 635.2288 171.3372 634.1666 171.0209 632.9422 170.7543 C 631.7159 170.4937 630.2582 170.3609 628.58 170.3609 C 626.1274 170.3609 623.912 170.7612 621.9252 171.5628 C 619.9384 172.3634 618.2473 173.5037 616.8502 174.9917 C 615.4492 176.4845 614.3771 178.2888 613.6322 180.4025 C 612.8813 182.5202 612.5035 184.8957 612.5035 187.5269 C 612.5035 190.2821 612.895 192.7396 613.6771 194.8953 C 614.4523 197.055 615.5526 198.8817 616.9742 200.3814 C 618.387 201.8791 620.074 203.0234 622.016 203.8171 C 623.9628 204.606 626.1069 204.9995 628.4589 204.9995 Z" fill="#5d6968"/>
	<path d="M 663.4636 178.0183 C 665.3079 178.0183 667.0048 178.3249 668.5649 178.9468 C 670.1291 179.5629 671.4745 180.4514 672.6119 181.6181 C 673.7405 182.7809 674.631 184.22 675.2695 185.9335 C 675.907 187.644 676.2205 189.5928 676.2205 191.7818 C 676.2205 192.6351 676.1316 193.2024 675.9539 193.4816 C 675.7714 193.7647 675.4257 193.9083 674.918 193.9083 L 654.4344 193.9083 C 654.4793 195.8531 654.741 197.5441 655.2281 198.9843 C 655.7144 200.4195 656.3822 201.6223 657.2355 202.586 C 658.083 203.5438 659.0994 204.2643 660.2719 204.7437 C 661.4435 205.2153 662.7606 205.4564 664.2232 205.4564 C 665.5813 205.4564 666.7499 205.2972 667.7322 204.9839 C 668.7144 204.6685 669.5628 204.3326 670.2657 203.9636 C 670.9765 203.6024 671.5721 203.2635 672.0515 202.9482 C 672.5201 202.6348 672.9341 202.4756 673.2758 202.4756 C 673.723 202.4756 674.0647 202.6484 674.3117 202.997 L 675.8299 204.9702 C 675.1582 205.7786 674.3566 206.4855 673.432 207.0791 C 672.4938 207.6776 671.4969 208.1696 670.4346 208.5543 C 669.3734 208.939 668.2721 209.228 667.1385 209.4213 C 666.005 209.6127 664.8812 209.7103 663.7633 209.7103 C 661.6368 209.7103 659.6793 209.3481 657.8877 208.6324 C 656.0952 207.9129 654.5457 206.8594 653.2413 205.4691 C 651.933 204.0847 650.9127 202.3643 650.1863 200.3218 C 649.457 198.2774 649.0928 195.9244 649.0928 193.2707 C 649.0928 191.1227 649.418 189.1203 650.075 187.2535 C 650.7331 185.3897 651.6821 183.7778 652.9191 182.4089 C 654.1571 181.0381 655.6656 179.9671 657.4435 179.187 C 659.2263 178.4098 661.2366 178.0183 663.4636 178.0183 ZM 663.5807 181.9989 C 660.9681 181.9989 658.9167 182.7516 657.4122 184.263 C 655.9194 185.7714 654.9811 187.8628 654.6238 190.5331 L 671.3602 190.5331 C 671.3602 189.2823 671.1904 188.1293 670.8457 187.0865 C 670.503 186.0448 669.9924 185.1427 669.3275 184.3831 C 668.6567 183.6245 667.8454 183.0357 666.8788 182.6179 C 665.9142 182.2049 664.8187 181.9989 663.5807 181.9989 Z" fill="#5d6968"/>
	<path d="M 681.6021 209.2837 L 681.6021 178.5036 L 684.7029 178.5036 C 685.2887 178.5036 685.6929 178.6139 685.9155 178.8365 C 686.1362 179.0611 686.2933 179.4447 686.3734 179.9915 L 686.7357 184.7941 C 687.7911 182.6472 689.0867 180.9698 690.642 179.765 C 692.1953 178.5582 694.0064 177.9558 696.0978 177.9558 C 696.9442 177.9558 697.7126 178.0515 698.4039 178.2468 C 699.0951 178.4362 699.7327 178.7027 700.3195 179.0513 L 699.6214 183.0933 C 699.4788 183.5981 699.1664 183.849 698.6772 183.849 C 698.397 183.849 697.9616 183.7553 697.3709 183.563 C 696.788 183.3706 695.9669 183.273 694.9115 183.273 C 693.0291 183.273 691.4465 183.8197 690.1821 184.9142 C 688.9177 186.0087 687.8623 187.5982 687.009 189.6866 L 687.009 209.2837 L 681.6021 209.2837 Z" fill="#5d6968"/>
	<path d="M 726.0275 209.2837 L 723.6227 209.2837 C 723.1024 209.2837 722.6718 209.2017 722.3496 209.0435 C 722.0274 208.8795 721.8116 208.5348 721.7111 208.0066 L 721.1028 205.1528 C 720.2944 205.8792 719.4987 206.5343 718.7342 207.1103 C 717.9609 207.6903 717.1545 208.1726 716.3011 208.5699 C 715.4537 208.9644 714.5447 209.2641 713.583 209.4633 C 712.6194 209.6683 711.5503 209.7689 710.3787 209.7689 C 709.1797 209.7689 708.0657 209.599 707.0172 209.268 C 705.9813 208.9283 705.0684 208.4274 704.3 207.7567 C 703.5277 207.0879 702.9194 206.2375 702.4567 205.2123 C 702.0066 204.1862 701.7791 202.9706 701.7791 201.5667 C 701.7791 200.3482 702.111 199.1756 702.7818 198.046 C 703.4457 196.9183 704.5284 195.9156 706.0125 195.0447 C 707.5053 194.1689 709.459 193.4552 711.8676 192.8958 C 714.2772 192.3354 717.2228 192.0552 720.7113 192.0552 L 720.7113 189.6378 C 720.7113 187.234 720.1968 185.4131 719.1736 184.1849 C 718.1503 182.9498 716.639 182.3318 714.6326 182.3318 C 713.3096 182.3318 712.2025 182.4978 711.3033 182.8336 C 710.4041 183.1685 709.623 183.5405 708.965 183.9564 C 708.3059 184.3733 707.7396 184.7453 707.2642 185.0802 C 706.7819 185.4131 706.3132 185.582 705.8504 185.582 C 705.4853 185.582 705.166 185.4873 704.8926 185.2921 C 704.6193 185.1026 704.3976 184.8654 704.2414 184.5784 L 703.268 182.8493 C 704.9639 181.207 706.8053 179.9827 708.7657 179.1714 C 710.7302 178.363 712.9123 177.9558 715.3033 177.9558 C 717.0208 177.9558 718.5546 178.2399 719.8902 178.8072 C 721.2258 179.3735 722.3496 180.1653 723.2585 181.1777 C 724.1695 182.1873 724.8607 183.4136 725.3275 184.8556 C 725.7922 186.2928 726.0275 187.8716 726.0275 189.5928 L 726.0275 209.2837 ZM 711.9877 205.9709 C 712.9387 205.9709 713.8115 205.8733 714.6004 205.6839 C 715.3922 205.4925 716.1381 205.2153 716.8342 204.8638 C 717.5343 204.5084 718.2031 204.0788 718.8387 203.5701 C 719.4733 203.0654 720.0981 202.4854 720.7113 201.84 L 720.7113 195.485 C 718.2158 195.485 716.0991 195.6442 714.3592 195.9644 C 712.6125 196.2798 711.1988 196.6938 710.1053 197.2014 C 709.0098 197.7101 708.2151 198.3125 707.7211 199.0038 C 707.2251 199.697 706.9771 200.4683 706.9771 201.3255 C 706.9771 202.1398 707.108 202.8437 707.3677 203.4334 C 707.6284 204.0261 707.9876 204.5084 708.4299 204.8901 C 708.879 205.2641 709.4082 205.5414 710.0145 205.7103 C 710.6188 205.886 711.2769 205.9709 711.9877 205.9709 Z" fill="#5d6968"/>
	<path d="M 738.7286 164.5253 L 738.7286 209.2837 L 733.3178 209.2837 L 733.3178 164.5253 L 738.7286 164.5253 Z" fill="#5d6968"/>
	<path d="M 351.5542 8.6263 C 351.3706 8.9328 351.1822 9.1603 350.9811 9.3107 C 350.778 9.4659 350.5115 9.544 350.1893 9.544 C 349.8398 9.544 349.4434 9.3683 348.9864 9.0236 C 348.5315 8.679 347.9515 8.3002 347.2534 7.8833 C 346.5641 7.4664 345.7157 7.0885 344.7335 6.7439 C 343.7532 6.4041 342.5641 6.2284 341.166 6.2284 C 339.8498 6.2284 338.6802 6.4041 337.6707 6.7566 C 336.6543 7.1149 335.8107 7.5972 335.1322 8.2025 C 334.4556 8.8088 333.941 9.5255 333.5983 10.3456 C 333.2537 11.1667 333.0848 12.0532 333.0848 13.0042 C 333.0848 14.2236 333.3806 15.2253 333.9762 16.0279 C 334.5757 16.8285 335.3645 17.5129 336.3477 18.0792 C 337.3318 18.6455 338.4449 19.1346 339.6897 19.5525 C 340.9375 19.9684 342.2116 20.399 343.5209 20.8412 C 344.8233 21.2923 346.1013 21.7922 347.3491 22.3477 C 348.5959 22.9072 349.7109 23.6101 350.6911 24.4566 C 351.6733 25.3119 352.4632 26.3537 353.0578 27.5917 C 353.6572 28.8228 353.9579 30.343 353.9579 32.1453 C 353.9579 34.0511 353.6309 35.8388 352.9816 37.5074 C 352.3353 39.1818 351.3882 40.6336 350.1444 41.8687 C 348.8956 43.1067 347.3676 44.0772 345.5536 44.787 C 343.7425 45.4938 341.6805 45.8492 339.3695 45.8492 C 336.5557 45.8492 333.9898 45.3376 331.67 44.3183 C 329.3474 43.2932 327.3703 41.9068 325.729 40.1689 L 327.4279 37.3697 C 327.5919 37.1491 327.7871 36.9626 328.0225 36.8093 C 328.2499 36.6599 328.5135 36.5828 328.7967 36.5828 C 329.2204 36.5828 329.7096 36.8093 330.2563 37.2662 C 330.805 37.7222 331.4836 38.224 332.3027 38.7708 C 333.1268 39.3185 334.1207 39.8164 335.2825 40.2763 C 336.4492 40.7293 337.8718 40.9597 339.5569 40.9597 C 340.9541 40.9597 342.1979 40.7674 343.2895 40.3798 C 344.384 39.9961 345.3115 39.4552 346.0672 38.7542 C 346.8336 38.0541 347.4096 37.2174 347.8217 36.2498 C 348.2249 35.2755 348.427 34.1937 348.427 32.9986 C 348.427 31.6825 348.1273 30.6007 347.5287 29.7611 C 346.9283 28.9205 346.1462 28.2136 345.1758 27.6502 C 344.2043 27.083 343.0913 26.6007 341.8465 26.2033 C 340.6026 25.8118 339.3246 25.4095 338.0221 24.9917 C 336.7119 24.5806 335.4358 24.0925 334.192 23.5457 C 332.9471 22.999 331.8321 22.294 330.8626 21.4212 C 329.8922 20.5542 329.1062 19.4607 328.5116 18.1505 C 327.9112 16.848 327.6104 15.2322 327.6104 13.3107 C 327.6104 11.7662 327.9112 10.2812 328.5116 8.841 C 329.1062 7.4019 329.9693 6.1307 331.1057 5.0109 C 332.2432 3.9027 333.6442 3.0103 335.3118 2.3396 C 336.9872 1.6689 338.9077 1.3359 341.0712 1.3359 C 343.5023 1.3359 345.7196 1.7196 347.727 2.489 C 349.7372 3.2574 351.482 4.3723 352.9816 5.831 L 351.5542 8.6263 Z" fill="#1c1c1a"/>
	<path d="M 371.2773 14.0986 C 373.1186 14.0986 374.8184 14.4052 376.3786 15.0232 C 377.9398 15.6432 379.2823 16.5346 380.4246 17.7013 C 381.5542 18.8612 382.4417 20.3013 383.0832 22.0148 C 383.7188 23.7273 384.038 25.6761 384.038 27.8611 C 384.038 28.7145 383.9453 29.2827 383.7637 29.5629 C 383.5811 29.8451 383.2364 29.9856 382.7346 29.9856 L 362.252 29.9856 C 362.2939 31.9334 362.5576 33.6245 363.0399 35.0607 C 363.528 36.5047 364.1998 37.7026 365.0462 38.6634 C 365.8966 39.627 366.9101 40.3446 368.0827 40.8201 C 369.2611 41.2985 370.5772 41.5338 372.0329 41.5338 C 373.392 41.5338 374.5636 41.3776 375.5448 41.0642 C 376.529 40.7488 377.3725 40.413 378.0833 40.0449 C 378.7853 39.6797 379.3857 39.3448 379.8612 39.0285 C 380.3367 38.7122 380.7477 38.556 381.0924 38.556 C 381.5356 38.556 381.8803 38.7288 382.1224 39.0734 L 383.6426 41.0476 C 382.9757 41.8579 382.1742 42.5668 381.2427 43.1584 C 380.3103 43.7618 379.3116 44.249 378.2522 44.6337 C 377.187 45.0184 376.0857 45.3083 374.9551 45.5007 C 373.8187 45.6891 372.6949 45.7906 371.5809 45.7906 C 369.4505 45.7906 367.4881 45.4294 365.6974 44.7128 C 363.9059 43.9893 362.3633 42.9378 361.053 41.5494 C 359.7418 40.162 358.7274 38.4447 357.9971 36.4022 C 357.2668 34.3538 356.9026 32.0028 356.9026 29.3501 C 356.9026 27.207 357.2346 25.2006 357.8926 23.3368 C 358.5507 21.4739 359.4948 19.8581 360.7328 18.4902 C 361.9678 17.1214 363.4792 16.0464 365.261 15.2722 C 367.0389 14.4902 369.0473 14.0986 371.2773 14.0986 ZM 371.3983 18.0792 C 368.7856 18.0792 366.7275 18.8349 365.2298 20.3404 C 363.7301 21.8518 362.7987 23.9431 362.4345 26.6143 L 379.1768 26.6143 C 379.1768 25.3627 379.0079 24.2096 378.6633 23.1679 C 378.3176 22.1251 377.808 21.2259 377.1451 20.4634 C 376.4743 19.7077 375.6591 19.1151 374.6954 18.6992 C 373.7318 18.2881 372.6324 18.0792 371.3983 18.0792 Z" fill="#1c1c1a"/>
	<path d="M 410.4158 20.0543 C 410.2469 20.2808 410.0907 20.4507 409.9218 20.5679 C 409.7655 20.6919 409.5302 20.7504 409.2305 20.7504 C 408.9259 20.7504 408.5949 20.6274 408.2415 20.3726 C 407.8822 20.1188 407.4331 19.8454 406.8853 19.5388 C 406.3415 19.2322 405.6766 18.952 404.8995 18.6992 C 404.1174 18.4502 403.1577 18.3213 402.0241 18.3213 C 400.5294 18.3213 399.2006 18.5879 398.0446 19.1278 C 396.8915 19.6628 395.9269 20.438 395.1419 21.4544 C 394.3628 22.4639 393.778 23.6892 393.3796 25.1284 C 392.9891 26.5675 392.787 28.1784 392.787 29.9593 C 392.787 31.8231 393.0018 33.478 393.4245 34.924 C 393.8492 36.3758 394.4478 37.5913 395.2161 38.5716 C 395.9894 39.5557 396.9286 40.3026 398.0309 40.8201 C 399.1313 41.3376 400.3761 41.5953 401.7527 41.5953 C 403.0678 41.5953 404.1555 41.4381 405.0059 41.1228 C 405.8553 40.8133 406.5661 40.4618 407.1333 40.0781 C 407.6996 39.6934 408.1624 39.3448 408.5344 39.0285 C 408.8947 38.7122 409.2569 38.556 409.622 38.556 C 410.0907 38.556 410.4363 38.7288 410.657 39.0734 L 412.1751 41.0476 C 410.8405 42.6888 409.168 43.8887 407.1656 44.6473 C 405.1582 45.4089 403.0415 45.7906 400.8096 45.7906 C 398.8862 45.7906 397.0995 45.4353 395.4485 44.7264 C 393.7975 44.0157 392.3633 42.9866 391.1477 41.6402 C 389.9331 40.2958 388.9754 38.638 388.2783 36.6736 C 387.5811 34.7092 387.2297 32.4714 387.2297 29.9593 C 387.2297 27.6698 387.5489 25.5521 388.1874 23.6101 C 388.8231 21.6633 389.7574 19.9879 390.9827 18.581 C 392.207 17.1741 393.7223 16.0728 395.5227 15.2839 C 397.327 14.497 399.3929 14.0986 401.7224 14.0986 C 403.8684 14.0986 405.7752 14.4501 407.4331 15.1482 C 409.0997 15.8453 410.5661 16.8344 411.8432 18.1124 L 410.4158 20.0543 Z" fill="#1c1c1a"/>
	<path d="M 416.2797 45.364 L 416.2797 14.5878 L 419.3766 14.5878 C 419.9615 14.5878 420.3715 14.6991 420.5922 14.9197 C 420.8148 15.1414 420.9642 15.5261 421.0491 16.0728 L 421.4142 20.8744 C 422.4658 18.7236 423.7653 17.0501 425.3167 15.8453 C 426.8671 14.6395 428.6851 14.0401 430.7696 14.0401 C 431.6229 14.0401 432.3912 14.1309 433.0786 14.3261 C 433.7669 14.5155 434.4074 14.7831 434.9912 15.1345 L 434.2941 19.1746 C 434.1506 19.6814 433.845 19.9303 433.3559 19.9303 C 433.0717 19.9303 432.6324 19.8385 432.0466 19.6433 C 431.4598 19.4539 430.6426 19.3562 429.5833 19.3562 C 427.7029 19.3562 426.1231 19.903 424.8607 20.9984 C 423.5964 22.0919 422.5341 23.6824 421.6876 25.7669 L 421.6876 45.364 L 416.2797 45.364 Z" fill="#1c1c1a"/>
	<path d="M 451.4348 14.0986 C 453.2781 14.0986 454.9789 14.4052 456.5352 15.0232 C 458.0992 15.6432 459.4417 16.5346 460.5792 17.7013 C 461.7146 18.8612 462.5973 20.3013 463.2328 22.0148 C 463.8792 23.7273 464.1946 25.6761 464.1946 27.8611 C 464.1946 28.7145 464.1057 29.2827 463.9211 29.5629 C 463.7415 29.8451 463.3929 29.9856 462.895 29.9856 L 442.4114 29.9856 C 442.4446 31.9334 442.7141 33.6245 443.2003 35.0607 C 443.6846 36.5047 444.3534 37.7026 445.1999 38.6634 C 446.0532 39.627 447.0627 40.3446 448.2421 40.8201 C 449.4176 41.2985 450.7376 41.5338 452.1905 41.5338 C 453.5524 41.5338 454.7172 41.3776 455.7014 41.0642 C 456.6816 40.7488 457.5262 40.413 458.2437 40.0449 C 458.9457 39.6797 459.5394 39.3448 460.0148 39.0285 C 460.4903 38.7122 460.9014 38.556 461.246 38.556 C 461.6951 38.556 462.0369 38.7288 462.2819 39.0734 L 463.7991 41.0476 C 463.1323 41.8579 462.3307 42.5668 461.3964 43.1584 C 460.4679 43.7618 459.4681 44.249 458.4058 44.6337 C 457.3436 45.0184 456.2422 45.3083 455.1087 45.5007 C 453.9752 45.6891 452.8485 45.7906 451.7374 45.7906 C 449.611 45.7906 447.6495 45.4294 445.8579 44.7128 C 444.0624 43.9893 442.5159 42.9378 441.2066 41.5494 C 439.9032 40.162 438.8868 38.4447 438.1575 36.4022 C 437.4272 34.3538 437.0601 32.0028 437.0601 29.3501 C 437.0601 27.207 437.3891 25.2006 438.0472 23.3368 C 438.7111 21.4739 439.6552 19.8581 440.8874 18.4902 C 442.1244 17.1214 443.6328 16.0464 445.4176 15.2722 C 447.2004 14.4902 449.2068 14.0986 451.4348 14.0986 ZM 451.5548 18.0792 C 448.9392 18.0792 446.887 18.8349 445.3893 20.3404 C 443.8838 21.8518 442.9553 23.9431 442.5911 26.6143 L 459.3372 26.6143 C 459.3372 25.3627 459.1615 24.2096 458.8169 23.1679 C 458.4703 22.1251 457.9684 21.2259 457.2977 20.4634 C 456.6269 19.7077 455.8127 19.1151 454.8481 18.6992 C 453.8903 18.2881 452.7899 18.0792 451.5548 18.0792 Z" fill="#1c1c1a"/>
	<path d="M 478.9011 45.8492 C 476.472 45.8492 474.6013 45.1716 473.299 43.8136 C 471.9896 42.4555 471.3384 40.5008 471.3384 37.9497 L 471.3384 19.1082 L 467.6302 19.1082 C 467.3052 19.1082 467.0318 19.0174 466.8102 18.8212 C 466.5885 18.6328 466.4704 18.334 466.4704 17.9298 L 466.4704 15.7662 L 471.521 15.1345 L 472.7649 5.6221 C 472.803 5.3174 472.9338 5.0685 473.1564 4.8732 C 473.3829 4.6848 473.6631 4.5862 474.0097 4.5862 L 476.7454 4.5862 L 476.7454 15.1931 L 485.5559 15.1931 L 485.5559 19.1082 L 476.7454 19.1082 L 476.7454 37.5845 C 476.7454 38.8821 477.0588 39.8428 477.6827 40.4715 C 478.3163 41.1003 479.1228 41.4127 480.1138 41.4127 C 480.6869 41.4127 481.176 41.3376 481.5919 41.1843 C 482.003 41.0359 482.3672 40.865 482.6669 40.6863 C 482.9735 40.5008 483.2341 40.3339 483.4431 40.1816 C 483.6579 40.0312 483.8424 39.956 484.0094 39.956 C 484.2896 39.956 484.5444 40.1288 484.765 40.4715 L 486.3487 43.0549 C 485.4163 43.9268 484.2896 44.6083 482.9735 45.1062 C 481.6583 45.6022 480.2964 45.8492 478.9011 45.8492 Z" fill="#1c1c1a"/>
	<path d="M 513.3259 45.364 L 510.9232 45.364 C 510.3989 45.364 509.9751 45.282 509.653 45.1228 C 509.3259 44.9598 509.1121 44.6151 509.0144 44.0869 L 508.4042 41.2331 C 507.5929 41.9605 506.8059 42.6156 506.0366 43.1916 C 505.2682 43.7686 504.4529 44.2529 503.6064 44.6473 C 502.7532 45.0447 501.8481 45.3445 500.8834 45.5426 C 499.9218 45.7487 498.8536 45.8492 497.6781 45.8492 C 496.4792 45.8492 495.3642 45.6803 494.3224 45.3484 C 493.2739 45.0086 492.3756 44.5068 491.6024 43.836 C 490.834 43.1653 490.2179 42.3158 489.762 41.2917 C 489.307 40.2665 489.0775 39.051 489.0775 37.647 C 489.0775 36.4295 489.4174 35.2559 490.0822 34.1253 C 490.7529 32.9986 491.8269 31.9959 493.3197 31.125 C 494.8047 30.2493 496.7526 29.5326 499.17 28.9722 C 501.5796 28.4157 504.5252 28.1355 508.0107 28.1355 L 508.0107 25.721 C 508.0107 23.3172 507.4952 21.4993 506.473 20.2613 C 505.4508 19.0301 503.9394 18.4121 501.933 18.4121 C 500.616 18.4121 499.5088 18.581 498.6066 18.913 C 497.7045 19.2459 496.9283 19.6237 496.2644 20.0406 C 495.6063 20.4507 495.04 20.8286 494.5665 21.1615 C 494.0881 21.4993 493.6195 21.6633 493.1489 21.6633 C 492.7847 21.6633 492.4664 21.5715 492.1931 21.3763 C 491.9177 21.1879 491.7039 20.9457 491.5399 20.6587 L 490.5694 18.9325 C 492.2711 17.2903 494.1018 16.066 496.0691 15.2527 C 498.0325 14.4443 500.2059 14.0401 502.5969 14.0401 C 504.3241 14.0401 505.855 14.3213 507.1906 14.8875 C 508.5282 15.4548 509.653 16.2485 510.5638 17.2591 C 511.4728 18.2744 512.1611 19.4929 512.6298 20.9389 C 513.0926 22.3721 513.3259 23.9499 513.3259 25.6761 L 513.3259 45.364 ZM 499.291 42.0513 C 500.2381 42.0513 501.111 41.9566 501.8998 41.7642 C 502.6946 41.5689 503.4376 41.2985 504.1346 40.9441 C 504.8308 40.5887 505.5015 40.1581 506.1411 39.6514 C 506.7795 39.1447 507.4044 38.5647 508.0107 37.9174 L 508.0107 31.5693 C 505.522 31.5693 503.4014 31.7255 501.6587 32.0408 C 499.913 32.3601 498.4993 32.7741 497.4038 33.2827 C 496.3093 33.7895 495.5175 34.3899 495.0195 35.0831 C 494.5245 35.7734 494.2736 36.5496 494.2736 37.4068 C 494.2736 38.2201 494.4064 38.924 494.6681 39.5137 C 494.9355 40.1064 495.2871 40.5887 495.7362 40.9695 C 496.1794 41.3444 496.7067 41.6207 497.313 41.7906 C 497.9261 41.9624 498.5803 42.0513 499.291 42.0513 Z" fill="#1c1c1a"/>
	<path d="M 520.0119 45.364 L 520.0119 14.5878 L 523.1118 14.5878 C 523.6985 14.5878 524.1028 14.6991 524.3303 14.9197 C 524.5519 15.1414 524.7023 15.5261 524.7833 16.0728 L 525.1514 20.8744 C 526.2009 18.7236 527.5034 17.0501 529.0538 15.8453 C 530.5984 14.6395 532.4183 14.0401 534.5067 14.0401 C 535.36 14.0401 536.1293 14.1309 536.8137 14.3261 C 537.504 14.5155 538.1425 14.7831 538.7283 15.1345 L 538.0313 19.1746 C 537.8887 19.6814 537.5753 19.9303 537.0871 19.9303 C 536.8069 19.9303 536.3695 19.8385 535.7847 19.6433 C 535.191 19.4539 534.3758 19.3562 533.3204 19.3562 C 531.438 19.3562 529.8622 19.903 528.5978 20.9984 C 527.3315 22.0919 526.2722 23.6824 525.4208 25.7669 L 525.4208 45.364 L 520.0119 45.364 Z" fill="#1c1c1a"/>
	<path d="M 555.3154 1.3359 L 548.2399 9.173 C 547.9538 9.4796 547.6794 9.6944 547.4061 9.8252 C 547.1327 9.9619 546.7812 10.0263 546.3575 10.0263 L 543.1326 10.0263 L 547.6345 2.6774 C 547.9147 2.2088 548.2272 1.871 548.5601 1.6552 C 548.893 1.4463 549.3841 1.3359 550.0324 1.3359 L 555.3154 1.3359 ZM 548.9955 14.5878 L 548.9955 45.364 L 543.5886 45.364 L 543.5886 14.5878 L 548.9955 14.5878 Z" fill="#1c1c1a"/>
	<path d="M 579.6292 45.364 L 577.2254 45.364 C 576.705 45.364 576.2745 45.282 575.9523 45.1228 C 575.6291 44.9598 575.4143 44.6151 575.3099 44.0869 L 574.7045 41.2331 C 573.8961 41.9605 573.1072 42.6156 572.3359 43.1916 C 571.5637 43.7686 570.7562 44.2529 569.9029 44.6473 C 569.0564 45.0447 568.1474 45.3445 567.1857 45.5426 C 566.2211 45.7487 565.154 45.8492 563.9814 45.8492 C 562.7853 45.8492 561.6675 45.6803 560.6188 45.3484 C 559.5771 45.0086 558.6711 44.5068 557.9017 43.836 C 557.1333 43.1653 556.5212 42.3158 556.0593 41.2917 C 555.6083 40.2665 555.3808 39.051 555.3808 37.647 C 555.3808 36.4295 555.7128 35.2559 556.3835 34.1253 C 557.0484 32.9986 558.1302 31.9959 559.6152 31.125 C 561.108 30.2493 563.0587 29.5326 565.4722 28.9722 C 567.8789 28.4157 570.8245 28.1355 574.3101 28.1355 L 574.3101 25.721 C 574.3101 23.3172 573.7985 21.4993 572.7762 20.2613 C 571.7521 19.0301 570.2407 18.4121 568.2343 18.4121 C 566.9124 18.4121 565.8052 18.581 564.9059 18.913 C 564.0058 19.2459 563.2257 19.6237 562.5676 20.0406 C 561.9086 20.4507 561.3414 20.8286 560.8659 21.1615 C 560.3875 21.4993 559.9149 21.6633 559.4521 21.6633 C 559.088 21.6633 558.7687 21.5715 558.4953 21.3763 C 558.2219 21.1879 557.9993 20.9457 557.8431 20.6587 L 556.8697 18.9325 C 558.5666 17.2903 560.408 16.066 562.3685 15.2527 C 564.3319 14.4443 566.515 14.0401 568.9061 14.0401 C 570.6185 14.0401 572.1563 14.3213 573.4919 14.8875 C 574.8275 15.4548 575.9523 16.2485 576.8603 17.2591 C 577.7722 18.2744 578.4634 19.4929 578.9252 20.9389 C 579.3958 22.3721 579.6292 23.9499 579.6292 25.6761 L 579.6292 45.364 ZM 565.5904 42.0513 C 566.5413 42.0513 567.4142 41.9566 568.2031 41.7642 C 568.9939 41.5689 569.7408 41.2985 570.437 40.9441 C 571.137 40.5887 571.8048 40.1581 572.4404 39.6514 C 573.0828 39.1447 573.7009 38.5647 574.3101 37.9174 L 574.3101 31.5693 C 571.8185 31.5693 569.7008 31.7255 567.9609 32.0408 C 566.2143 32.3601 564.8015 32.7741 563.707 33.2827 C 562.6125 33.7895 561.8168 34.3899 561.3228 35.0831 C 560.8278 35.7734 560.5798 36.5496 560.5798 37.4068 C 560.5798 38.2201 560.7106 38.924 560.9703 39.5137 C 561.231 40.1064 561.5903 40.5887 562.0326 40.9695 C 562.4818 41.3444 563.0099 41.6207 563.6162 41.7906 C 564.2216 41.9624 564.8796 42.0513 565.5904 42.0513 Z" fill="#1c1c1a"/>
	<path d="M 616.7838 41.0808 C 617.9632 41.0808 619.0411 41.0222 620.0253 40.9109 C 621.0055 40.8006 621.9321 40.6336 622.8049 40.413 C 623.6768 40.1874 624.4979 39.918 625.2672 39.6046 C 626.0356 39.2921 626.8049 38.9338 627.5733 38.5267 L 627.5733 28.9234 L 620.8337 28.9234 C 620.4451 28.9234 620.1365 28.8121 619.9052 28.5944 C 619.6699 28.3669 619.5536 28.0925 619.5536 27.7742 L 619.5536 24.4322 L 632.9247 24.4322 L 632.9247 41.1394 C 631.8312 41.9312 630.6937 42.6175 629.5074 43.2043 C 628.3183 43.7911 627.0519 44.2861 625.7026 44.6796 C 624.3611 45.074 622.9142 45.3708 621.3804 45.5622 C 619.8407 45.7555 618.1653 45.8492 616.364 45.8492 C 613.2016 45.8492 610.3077 45.3083 607.6697 44.2246 C 605.0375 43.1399 602.7704 41.6207 600.8685 39.667 C 598.9666 37.7114 597.4796 35.3633 596.4125 32.6335 C 595.3502 29.8978 594.8152 26.8877 594.8152 23.6101 C 594.8152 20.2877 595.3375 17.2591 596.3861 14.5214 C 597.4288 11.7925 598.9177 9.4464 600.8548 7.4927 C 602.786 5.5313 605.1282 4.0199 607.8727 2.9449 C 610.6143 1.8768 613.6898 1.3359 617.0904 1.3359 C 618.8165 1.3359 620.4138 1.4668 621.8989 1.7138 C 623.3712 1.9686 624.7449 2.3328 626.0092 2.8082 C 627.2766 3.2837 628.4471 3.8637 629.5211 4.5413 C 630.5961 5.2257 631.5958 5.9882 632.5312 6.8347 L 630.8558 9.5128 C 630.518 10.0595 630.0688 10.3329 629.5211 10.3329 C 629.196 10.3329 628.8426 10.2157 628.453 9.9951 C 627.9512 9.7149 627.3849 9.3683 626.7581 8.966 C 626.1274 8.5618 625.361 8.1703 624.4588 7.7925 C 623.5605 7.4146 622.4983 7.1022 621.274 6.8347 C 620.0448 6.575 618.5959 6.4441 616.9117 6.4441 C 614.4591 6.4441 612.2409 6.8415 610.257 7.6421 C 608.2701 8.4437 606.5791 9.584 605.181 11.0749 C 603.7867 12.5609 602.7128 14.3662 601.962 16.4838 C 601.2063 18.6005 600.8353 20.9721 600.8353 23.6101 C 600.8353 26.3605 601.2268 28.8189 602.0059 30.9757 C 602.786 33.1314 603.8844 34.9601 605.306 36.4607 C 606.7187 37.9604 608.4058 39.1027 610.3478 39.8955 C 612.2897 40.6863 614.4387 41.0808 616.7838 41.0808 Z" fill="#1c1c1a"/>
	<path d="M 651.7953 14.0986 C 653.6328 14.0986 655.3395 14.4052 656.8967 15.0232 C 658.4569 15.6432 659.8033 16.5346 660.9427 17.7013 C 662.0762 18.8612 662.9588 20.3013 663.6013 22.0148 C 664.2388 23.7273 664.559 25.6761 664.559 27.8611 C 664.559 28.7145 664.4673 29.2827 664.2856 29.5629 C 664.0963 29.8451 663.7565 29.9856 663.2498 29.9856 L 642.773 29.9856 C 642.8111 31.9334 643.0728 33.6245 643.5599 35.0607 C 644.0422 36.5047 644.714 37.7026 645.5643 38.6634 C 646.4147 39.627 647.4282 40.3446 648.6037 40.8201 C 649.7822 41.2985 651.0992 41.5338 652.551 41.5338 C 653.913 41.5338 655.0788 41.3776 656.0629 41.0642 C 657.0461 40.7488 657.8945 40.413 658.6034 40.0449 C 659.3083 39.6797 659.9009 39.3448 660.3764 39.0285 C 660.8548 38.7122 661.262 38.556 661.6075 38.556 C 662.0567 38.556 662.4013 38.7288 662.6435 39.0734 L 664.1607 41.0476 C 663.4968 41.8579 662.6923 42.5668 661.757 43.1584 C 660.8284 43.7618 659.8287 44.249 658.7664 44.6337 C 657.7051 45.0184 656.6038 45.3083 655.4732 45.5007 C 654.3368 45.6891 653.213 45.7906 652.099 45.7906 C 649.9706 45.7906 648.011 45.4294 646.2195 44.7128 C 644.424 43.9893 642.8774 42.9378 641.5672 41.5494 C 640.2648 40.162 639.2484 38.4447 638.5152 36.4022 C 637.7819 34.3538 637.4246 32.0028 637.4246 29.3501 C 637.4246 27.207 637.7526 25.2006 638.4068 23.3368 C 639.0659 21.4739 640.0109 19.8581 641.2489 18.4902 C 642.486 17.1214 643.9905 16.0464 645.7792 15.2722 C 647.562 14.4902 649.5644 14.0986 651.7953 14.0986 ZM 651.9194 18.0792 C 649.3037 18.0792 647.2417 18.8349 645.7509 20.3404 C 644.2443 21.8518 643.3198 23.9431 642.9517 26.6143 L 659.6989 26.6143 C 659.6989 25.3627 659.5231 24.2096 659.1775 23.1679 C 658.8318 22.1251 658.33 21.2259 657.6592 20.4634 C 656.9885 19.7077 656.1743 19.1151 655.2125 18.6992 C 654.2528 18.2881 653.1505 18.0792 651.9194 18.0792 Z" fill="#1c1c1a"/>
	<path d="M 669.9338 45.364 L 669.9338 14.5878 L 673.1586 14.5878 C 673.927 14.5878 674.4094 14.9588 674.6115 15.7076 L 675.041 19.0497 C 676.3766 17.5705 677.8695 16.3794 679.5205 15.4675 C 681.1714 14.5546 683.0802 14.0986 685.2506 14.0986 C 686.927 14.0986 688.4091 14.3789 689.6998 14.9324 C 690.9837 15.4929 692.0577 16.2817 692.9178 17.304 C 693.778 18.3272 694.4331 19.5583 694.8793 20.9984 C 695.3284 22.4385 695.5442 24.028 695.5442 25.7669 L 695.5442 45.364 L 690.1401 45.364 L 690.1401 25.7669 C 690.1401 23.4344 689.6022 21.6301 688.5399 20.3404 C 687.4777 19.0565 685.856 18.4121 683.667 18.4121 C 682.0668 18.4121 680.572 18.8027 679.1846 19.572 C 677.8002 20.3404 676.5134 21.3831 675.3408 22.6982 L 675.3408 45.364 L 669.9338 45.364 Z" fill="#1c1c1a"/>
	<path d="M 714.3856 14.0986 C 716.228 14.0986 717.9297 14.4052 719.4918 15.0232 C 721.0501 15.6432 722.3984 16.5346 723.5319 17.7013 C 724.6655 18.8612 725.552 20.3013 726.1895 22.0148 C 726.829 23.7273 727.1473 25.6761 727.1473 27.8611 C 727.1473 28.7145 727.0565 29.2827 726.874 29.5629 C 726.6913 29.8451 726.3536 29.9856 725.842 29.9856 L 705.3613 29.9856 C 705.4013 31.9334 705.6678 33.6245 706.1501 35.0607 C 706.6393 36.5047 707.3062 37.7026 708.1566 38.6634 C 709.0098 39.627 710.0194 40.3446 711.1968 40.8201 C 712.3724 41.2985 713.6875 41.5338 715.1472 41.5338 C 716.5032 41.5338 717.6749 41.3776 718.6522 41.0642 C 719.6364 40.7488 720.4868 40.413 721.1936 40.0449 C 721.9034 39.6797 722.496 39.3448 722.9715 39.0285 C 723.447 38.7122 723.858 38.556 724.2027 38.556 C 724.645 38.556 724.9916 38.7288 725.2318 39.0734 L 726.7568 41.0476 C 726.0851 41.8579 725.2845 42.5668 724.353 43.1584 C 723.4207 43.7618 722.4247 44.249 721.3625 44.6337 C 720.2944 45.0184 719.1921 45.3083 718.0625 45.5007 C 716.9319 45.6891 715.8052 45.7906 714.6921 45.7906 C 712.5637 45.7906 710.5994 45.4294 708.8116 44.7128 C 707.0172 43.9893 705.4697 42.9378 704.1633 41.5494 C 702.853 40.162 701.8376 38.4447 701.1083 36.4022 C 700.3771 34.3538 700.0129 32.0028 700.0129 29.3501 C 700.0129 27.207 700.3419 25.2006 701.0038 23.3368 C 701.658 21.4739 702.606 19.8581 703.8441 18.4902 C 705.0811 17.1214 706.5865 16.0464 708.3684 15.2722 C 710.1541 14.4902 712.1605 14.0986 714.3856 14.0986 ZM 714.5086 18.0792 C 711.8901 18.0792 709.8368 18.8349 708.3391 20.3404 C 706.8414 21.8518 705.908 23.9431 705.5438 26.6143 L 722.2871 26.6143 C 722.2871 25.3627 722.1143 24.2096 721.7736 23.1679 C 721.4279 22.1251 720.9193 21.2259 720.2495 20.4634 C 719.5836 19.7077 718.7693 19.1151 717.8057 18.6992 C 716.8411 18.2881 715.7407 18.0792 714.5086 18.0792 Z" fill="#1c1c1a"/>
	<path d="M 732.5289 45.364 L 732.5289 14.5878 L 735.6239 14.5878 C 736.2175 14.5878 736.6178 14.6991 736.8385 14.9197 C 737.064 15.1414 737.2134 15.5261 737.2983 16.0728 L 737.6625 20.8744 C 738.715 18.7236 740.0155 17.0501 741.5659 15.8453 C 743.1154 14.6395 744.9333 14.0401 747.0247 14.0401 C 747.8721 14.0401 748.6414 14.1309 749.3307 14.3261 C 750.019 14.5155 750.6527 14.7831 751.2463 15.1345 L 750.5433 19.1746 C 750.4037 19.6814 750.0864 19.9303 749.6041 19.9303 C 749.3181 19.9303 748.8885 19.8385 748.2949 19.6433 C 747.709 19.4539 746.8879 19.3562 745.8325 19.3562 C 743.9501 19.3562 742.3734 19.903 741.109 20.9984 C 739.8466 22.0919 738.7843 23.6824 737.9329 25.7669 L 737.9329 45.364 L 732.5289 45.364 Z" fill="#1c1c1a"/>
	<path d="M 776.9485 45.364 L 774.5516 45.364 C 774.0224 45.364 773.6006 45.282 773.2736 45.1228 C 772.9474 44.9598 772.7405 44.6151 772.636 44.0869 L 772.0267 41.2331 C 771.2183 41.9605 770.4275 42.6156 769.6581 43.1916 C 768.8898 43.7686 768.0745 44.2529 767.228 44.6473 C 766.3806 45.0447 765.4697 45.3445 764.5079 45.5426 C 763.5472 45.7487 762.4791 45.8492 761.3026 45.8492 C 760.1076 45.8492 758.9858 45.6803 757.944 45.3484 C 756.9013 45.0086 755.9962 44.5068 755.2278 43.836 C 754.4546 43.1653 753.8395 42.3158 753.3835 41.2917 C 752.9344 40.2665 752.6991 39.051 752.6991 37.647 C 752.6991 36.4295 753.0389 35.2559 753.7097 34.1253 C 754.3745 32.9986 755.4485 31.9959 756.9413 31.125 C 758.4322 30.2493 760.381 29.5326 762.7916 28.9722 C 765.2012 28.4157 768.1468 28.1355 771.6323 28.1355 L 771.6323 25.721 C 771.6323 23.3172 771.1237 21.4993 770.1004 20.2613 C 769.0782 19.0301 767.561 18.4121 765.5604 18.4121 C 764.2365 18.4121 763.1303 18.581 762.2302 18.913 C 761.328 19.2459 760.543 19.6237 759.8918 20.0406 C 759.2279 20.4507 758.6606 20.8286 758.1852 21.1615 C 757.7126 21.4993 757.241 21.6633 756.7724 21.6633 C 756.4131 21.6633 756.0948 21.5715 755.8205 21.3763 C 755.5461 21.1879 755.3255 20.9457 755.1614 20.6587 L 754.191 18.9325 C 755.8917 17.2903 757.7283 16.066 759.6926 15.2527 C 761.657 14.4443 763.8343 14.0401 766.2253 14.0401 C 767.9446 14.0401 769.4756 14.3213 770.8112 14.8875 C 772.1537 15.4548 773.2736 16.2485 774.1854 17.2591 C 775.0983 18.2744 775.7827 19.4929 776.2513 20.9389 C 776.72 22.3721 776.9485 23.9499 776.9485 25.6761 L 776.9485 45.364 ZM 762.9116 42.0513 C 763.8655 42.0513 764.7393 41.9566 765.5272 41.7642 C 766.3161 41.5689 767.0582 41.2985 767.7582 40.9441 C 768.4592 40.5887 769.127 40.1581 769.7656 39.6514 C 770.4001 39.1447 771.025 38.5647 771.6323 37.9174 L 771.6323 31.5693 C 769.1426 31.5693 767.0259 31.7255 765.287 32.0408 C 763.5404 32.3601 762.1237 32.7741 761.0283 33.2827 C 759.9318 33.7895 759.139 34.3899 758.644 35.0831 C 758.1461 35.7734 757.8991 36.5496 757.8991 37.4068 C 757.8991 38.2201 758.0348 38.924 758.2964 39.5137 C 758.5571 40.1064 758.9116 40.5887 759.3587 40.9695 C 759.801 41.3444 760.3282 41.6207 760.9414 41.7906 C 761.5477 41.9624 762.2048 42.0513 762.9116 42.0513 Z" fill="#1c1c1a"/>
	<path d="M 789.6526 0.6066 L 789.6526 45.364 L 784.2447 45.364 L 784.2447 0.6066 L 789.6526 0.6066 Z" fill="#1c1c1a"/>
	<path d="M 337.9177 109.3084 L 329.8101 109.3084 L 329.8101 65.8993 L 337.9177 65.8993 L 337.9177 109.3084 Z" fill="#1c1c1a"/>
	<path d="M 345.8426 109.3084 L 345.8426 64.6975 L 353.2579 64.6975 L 353.2579 82.2911 C 354.4793 80.9877 355.8608 79.9518 357.4015 79.1834 C 358.9441 78.4141 360.7435 78.0274 362.8046 78.0274 C 364.4897 78.0274 366.0236 78.3721 367.4149 79.0623 C 368.8051 79.7536 370.008 80.7602 371.0166 82.0783 C 372.0271 83.3983 372.8091 85.0337 373.3559 86.9756 C 373.9095 88.9166 374.1838 91.1446 374.1838 93.6664 C 374.1838 95.9687 373.8714 98.102 373.2524 100.0644 C 372.6324 102.0239 371.7478 103.7257 370.5967 105.1638 C 369.4466 106.6039 368.0524 107.7326 366.4239 108.5429 C 364.7924 109.3543 362.9657 109.7575 360.9446 109.7575 C 360.0034 109.7575 359.1443 109.6638 358.3622 109.4705 C 357.5841 109.282 356.8733 109.0194 356.2309 108.6767 C 355.5894 108.3369 354.9968 107.921 354.4422 107.4328 C 353.8955 106.9437 353.3682 106.3969 352.8664 105.7975 L 352.5403 107.8683 C 352.4173 108.3906 352.2152 108.7577 351.9223 108.9764 C 351.6352 109.1971 351.2379 109.3084 350.736 109.3084 L 345.8426 109.3084 ZM 360.2544 83.7898 C 358.7108 83.7898 357.3937 84.1159 356.3061 84.7671 C 355.2155 85.4183 354.1991 86.3293 353.2579 87.5135 L 353.2579 101.3219 C 354.0976 102.3637 355.0153 103.0901 356.0063 103.4972 C 356.9973 103.9083 358.0722 104.1152 359.2321 104.1152 C 360.353 104.1152 361.3645 103.9044 362.2676 103.4836 C 363.1658 103.0637 363.9323 102.4223 364.561 101.5621 C 365.1927 100.702 365.6789 99.6172 366.0197 98.3041 C 366.3594 96.9958 366.5283 95.4512 366.5283 93.6664 C 366.5283 91.868 366.3838 90.3401 366.0919 89.0894 C 365.8029 87.8377 365.388 86.8223 364.8481 86.0432 C 364.3072 85.2621 363.6501 84.6919 362.8807 84.3297 C 362.1123 83.9714 361.2346 83.7898 360.2544 83.7898 Z" fill="#1c1c1a"/>
	<path d="M 391.2034 78.0274 C 393.1453 78.0274 394.933 78.336 396.5625 78.9559 C 398.194 79.5779 399.5989 80.4829 400.7803 81.6721 C 401.9636 82.8642 402.8824 84.3268 403.5433 86.0559 C 404.2043 87.7889 404.5333 89.764 404.5333 91.9852 C 404.5333 92.5446 404.508 93.0152 404.4582 93.3823 C 404.4064 93.7514 404.3176 94.0443 404.1887 94.2532 C 404.0579 94.4602 403.8841 94.6135 403.6634 94.7023 C 403.4418 94.7932 403.1616 94.8381 402.8228 94.8381 L 383.7871 94.8381 C 384.0087 97.9975 384.862 100.3241 386.3402 101.8033 C 387.8184 103.2863 389.7838 104.0244 392.2227 104.0244 C 393.4245 104.0244 394.4604 103.8839 395.3313 103.6046 C 396.2042 103.3244 396.9628 103.0149 397.6111 102.6751 C 398.2623 102.3344 398.8354 102.0239 399.3246 101.7447 C 399.8127 101.4645 400.2892 101.3219 400.751 101.3219 C 401.0507 101.3219 401.3114 101.3825 401.5331 101.5035 C 401.7527 101.6217 401.9441 101.7935 402.1003 102.0112 L 404.2619 104.7147 C 403.4418 105.6764 402.524 106.4809 401.5018 107.1321 C 400.4815 107.7843 399.4154 108.3057 398.3023 108.6923 C 397.1952 109.0838 396.0616 109.3611 394.9154 109.5173 C 393.7604 109.6794 392.6464 109.7575 391.5646 109.7575 C 389.4225 109.7575 387.4318 109.4031 385.5914 108.6923 C 383.7471 107.9815 382.1488 106.93 380.7858 105.5436 C 379.4277 104.1484 378.3528 102.4281 377.5746 100.3768 C 376.7965 98.3246 376.405 95.9491 376.405 93.2486 C 376.405 91.1446 376.7438 89.1714 377.4253 87.3202 C 378.1058 85.4671 379.0831 83.8542 380.3523 82.4864 C 381.6235 81.1117 383.174 80.0299 385.0046 79.2293 C 386.8362 78.4277 388.9002 78.0274 391.2034 78.0274 ZM 391.3537 83.3397 C 389.1941 83.3397 387.5001 83.9519 386.2807 85.1713 C 385.0602 86.3917 384.2782 88.1218 383.9404 90.3625 L 397.8688 90.3625 C 397.8688 89.4047 397.739 88.4997 397.4773 87.6463 C 397.2206 86.7999 396.8173 86.0539 396.2755 85.4115 C 395.7355 84.7739 395.058 84.2653 394.2359 83.8933 C 393.4157 83.5252 392.455 83.3397 391.3537 83.3397 Z" fill="#1c1c1a"/>
	<path d="M 409.0655 109.3084 L 409.0655 78.5049 L 413.419 78.5049 C 414.1786 78.5049 414.7097 78.6494 415.0124 78.9296 C 415.3121 79.2098 415.5103 79.6872 415.6119 80.3697 L 416.061 84.0895 C 417.1633 82.1896 418.452 80.688 419.9322 79.5876 C 421.4172 78.4853 423.075 77.9386 424.9164 77.9386 C 426.4366 77.9386 427.697 78.2871 428.7007 78.9872 L 427.74 84.5425 C 427.6785 84.9028 427.5476 85.1577 427.3494 85.307 C 427.1503 85.4574 426.8808 85.5316 426.5381 85.5316 C 426.2383 85.5316 425.8273 85.4632 425.3059 85.3207 C 424.7856 85.183 424.0943 85.1118 423.2342 85.1118 C 421.6964 85.1118 420.3745 85.5355 419.2741 86.3888 C 418.1728 87.2382 417.2414 88.487 416.4818 90.1253 L 416.4818 109.3084 L 409.0655 109.3084 Z" fill="#1c1c1a"/>
	<path d="M 445.2399 78.0274 C 447.5421 78.0274 449.6266 78.3945 451.5002 79.1385 C 453.3689 79.8805 454.9662 80.9291 456.2881 82.2911 C 457.6082 83.6521 458.6275 85.3139 459.3499 87.2753 C 460.0705 89.2358 460.4278 91.4248 460.4278 93.849 C 460.4278 96.2908 460.0705 98.4905 459.3499 100.4549 C 458.6275 102.4154 457.6082 104.084 456.2881 105.4645 C 454.9662 106.8461 453.3689 107.9083 451.5002 108.6474 C 449.6266 109.3865 447.5421 109.7575 445.2399 109.7575 C 442.9396 109.7575 440.8444 109.3865 438.9649 108.6474 C 437.0826 107.9083 435.4765 106.8461 434.1467 105.4645 C 432.814 104.084 431.7849 102.4154 431.0556 100.4549 C 430.3234 98.4905 429.9582 96.2908 429.9582 93.849 C 429.9582 91.4248 430.3234 89.2358 431.0556 87.2753 C 431.7849 85.3139 432.814 83.6521 434.1467 82.2911 C 435.4765 80.9291 437.0826 79.8805 438.9649 79.1385 C 440.8444 78.3945 442.9396 78.0274 445.2399 78.0274 ZM 445.2399 104.0547 C 447.8018 104.0547 449.6978 103.1945 450.93 101.4703 C 452.1573 99.751 452.7733 97.2291 452.7733 93.9066 C 452.7733 90.5841 452.1573 88.0535 450.93 86.3107 C 449.6978 84.5709 447.8018 83.7009 445.2399 83.7009 C 442.636 83.7009 440.7175 84.5777 439.4756 86.3273 C 438.2356 88.0798 437.6137 90.6046 437.6137 93.9066 C 437.6137 97.2106 438.2356 99.7246 439.4756 101.4576 C 440.7175 103.1906 442.636 104.0547 445.2399 104.0547 Z" fill="#1c1c1a"/>
	<path d="M 488.8599 109.3084 L 485.5276 109.3084 C 484.8265 109.3084 484.2759 109.2039 483.8756 108.993 C 483.4753 108.7812 483.1755 108.3574 482.9764 107.7189 L 482.3154 105.5261 C 481.5333 106.2261 480.7679 106.8422 480.019 107.3733 C 479.2692 107.9015 478.4921 108.3477 477.6934 108.7089 C 476.8918 109.0682 476.0414 109.3377 475.1393 109.5173 C 474.2411 109.6989 473.2404 109.7907 472.139 109.7907 C 470.8365 109.7907 469.6367 109.615 468.5364 109.2635 C 467.4351 108.911 466.4899 108.3838 465.6991 107.6799 C 464.9083 106.9749 464.2922 106.1031 463.8528 105.0613 C 463.4125 104.0147 463.1909 102.8001 463.1909 101.4156 C 463.1909 100.2528 463.4974 99.0998 464.1096 97.9662 C 464.7189 96.8327 465.7352 95.8085 467.1548 94.8937 C 468.5764 93.9779 470.4675 93.2222 472.8293 92.6198 C 475.192 92.0174 478.123 91.7177 481.6251 91.7177 L 481.6251 89.9007 C 481.6251 87.8221 481.1887 86.2843 480.3188 85.2875 C 479.4489 84.2916 478.1826 83.7898 476.5209 83.7898 C 475.3209 83.7898 474.3182 83.9323 473.5205 84.2135 C 472.719 84.4937 472.0209 84.8052 471.4321 85.1577 C 470.8434 85.5091 470.2986 85.8225 469.7968 86.1028 C 469.2949 86.382 468.7452 86.5226 468.1458 86.5226 C 467.6439 86.5226 467.2144 86.3917 466.8551 86.1311 C 466.4948 85.8743 466.2039 85.5511 465.9861 85.1713 L 464.6339 82.7988 C 468.1741 79.5583 472.4495 77.9386 477.4523 77.9386 C 479.2536 77.9386 480.8597 78.2315 482.2695 78.8212 C 483.6803 79.4119 484.8763 80.232 485.8605 81.2845 C 486.8398 82.336 487.5828 83.5916 488.0934 85.0532 C 488.605 86.5128 488.8599 88.116 488.8599 89.8558 L 488.8599 109.3084 ZM 474.449 104.6825 C 475.2115 104.6825 475.9116 104.6171 476.5541 104.4775 C 477.1916 104.3418 477.7979 104.1348 478.3671 103.8555 C 478.9382 103.5822 479.4879 103.2434 480.019 102.8392 C 480.5502 102.435 481.0842 101.9556 481.6251 101.4059 L 481.6251 96.2489 C 479.4655 96.2489 477.6563 96.3865 476.2074 96.656 C 474.7546 96.9304 473.5889 97.275 472.7092 97.6997 C 471.8295 98.1225 471.2047 98.6175 470.8326 99.1837 C 470.4617 99.7442 470.2762 100.3641 470.2762 101.028 C 470.2762 102.3373 470.6638 103.2756 471.4321 103.8389 C 472.2054 104.4023 473.2081 104.6825 474.449 104.6825 Z" fill="#1c1c1a"/>
	<path d="M 494.6554 109.3084 L 494.6554 78.5049 L 499.1866 78.5049 C 500.1463 78.5049 500.779 78.9559 501.0787 79.8581 L 501.5571 82.1407 C 502.098 81.5384 502.6643 80.9877 503.255 80.4868 C 503.8438 79.9879 504.4764 79.5583 505.1481 79.1961 C 505.8149 78.8378 506.5345 78.5517 507.3068 78.3428 C 508.0791 78.1319 508.9236 78.0274 509.8443 78.0274 C 511.7863 78.0274 513.3816 78.5517 514.6323 79.6032 C 515.8839 80.6557 516.8193 82.05 517.4373 83.7898 C 517.9196 82.7695 518.5191 81.8937 519.2386 81.1634 C 519.9631 80.4341 520.75 79.8385 521.6102 79.3787 C 522.4742 78.9159 523.389 78.5771 524.3605 78.3565 C 525.33 78.1378 526.3054 78.0274 527.2847 78.0274 C 528.9855 78.0274 530.4968 78.2871 531.8198 78.8056 C 533.1388 79.3269 534.2489 80.0895 535.152 81.0892 C 536.0512 82.089 536.7386 83.3114 537.2072 84.7534 C 537.6758 86.1935 537.9141 87.8426 537.9141 89.7045 L 537.9141 109.3084 L 530.4968 109.3084 L 530.4968 89.7045 C 530.4968 87.744 530.0673 86.2648 529.2071 85.2738 C 528.3469 84.2848 527.0865 83.7898 525.4247 83.7898 C 524.6632 83.7898 523.9592 83.9196 523.308 84.1803 C 522.6558 84.441 522.0856 84.8188 521.5965 85.307 C 521.1054 85.7962 520.7207 86.4152 520.4415 87.1513 C 520.1613 87.8933 520.0207 88.7447 520.0207 89.7045 L 520.0207 109.3084 L 512.5742 109.3084 L 512.5742 89.7045 C 512.5742 87.6424 512.1611 86.1408 511.3303 85.2026 C 510.4995 84.2623 509.2751 83.7898 507.6524 83.7898 C 506.5901 83.7898 505.5972 84.0563 504.6658 84.5845 C 503.7334 85.1186 502.8703 85.8421 502.0687 86.7628 L 502.0687 109.3084 L 494.6554 109.3084 Z" fill="#1c1c1a"/>
	<path d="M 556.4372 78.0274 C 558.3772 78.0274 560.1629 78.336 561.7944 78.9559 C 563.4258 79.5779 564.8308 80.4829 566.0131 81.6721 C 567.1926 82.8642 568.1142 84.3268 568.7762 86.0559 C 569.4362 87.7889 569.7652 89.764 569.7652 91.9852 C 569.7652 92.5446 569.7408 93.0152 569.6901 93.3823 C 569.6432 93.7514 569.5504 94.0443 569.4206 94.2532 C 569.2897 94.4602 569.114 94.6135 568.8963 94.7023 C 568.6746 94.7932 568.3944 94.8381 568.0566 94.8381 L 549.0219 94.8381 C 549.2396 97.9975 550.091 100.3241 551.5731 101.8033 C 553.0552 103.2863 555.0166 104.0244 557.4555 104.0244 C 558.6574 104.0244 559.6943 103.8839 560.5632 103.6046 C 561.437 103.3244 562.1947 103.0149 562.8478 102.6751 C 563.4952 102.3344 564.0654 102.0239 564.5565 101.7447 C 565.0495 101.4645 565.5211 101.3219 565.9838 101.3219 C 566.2836 101.3219 566.5433 101.3825 566.763 101.5035 C 566.9836 101.6217 567.1721 101.7935 567.3361 102.0112 L 569.4957 104.7147 C 568.6746 105.6764 567.7559 106.4809 566.7327 107.1321 C 565.7144 107.7843 564.6482 108.3057 563.5372 108.6923 C 562.4271 109.0838 561.2964 109.3611 560.1434 109.5173 C 558.9933 109.6794 557.8763 109.7575 556.7975 109.7575 C 554.6544 109.7575 552.6636 109.4031 550.8242 108.6923 C 548.9799 107.9815 547.3797 106.93 546.0197 105.5436 C 544.6577 104.1484 543.5886 102.4281 542.8065 100.3768 C 542.0245 98.3246 541.6378 95.9491 541.6378 93.2486 C 541.6378 91.1446 541.9756 89.1714 542.6572 87.3202 C 543.3376 85.4671 544.311 83.8542 545.5862 82.4864 C 546.8554 81.1117 548.4068 80.0299 550.2374 79.2293 C 552.0681 78.4277 554.1331 78.0274 556.4372 78.0274 ZM 556.5856 83.3397 C 554.426 83.3397 552.733 83.9519 551.5145 85.1713 C 550.2931 86.3917 549.511 88.1218 549.1722 90.3625 L 563.1017 90.3625 C 563.1017 89.4047 562.9709 88.4997 562.7102 87.6463 C 562.4495 86.7999 562.0482 86.0539 561.5122 85.4115 C 560.9703 84.7739 560.2899 84.2653 559.4688 83.8933 C 558.6476 83.5252 557.6879 83.3397 556.5856 83.3397 Z" fill="#1c1c1a"/>
	<path d="M 574.3003 109.3084 L 574.3003 78.5049 L 578.6519 78.5049 C 579.4114 78.5049 579.9426 78.6494 580.2423 78.9296 C 580.5421 79.2098 580.7432 79.6872 580.8447 80.3697 L 581.2938 84.0895 C 582.3951 82.1896 583.6849 80.688 585.167 79.5876 C 586.6461 78.4853 588.3069 77.9386 590.1512 77.9386 C 591.6694 77.9386 592.9289 78.2871 593.9335 78.9872 L 592.9728 84.5425 C 592.9103 84.9028 592.7795 85.1577 592.5813 85.307 C 592.3821 85.4574 592.1127 85.5316 591.7709 85.5316 C 591.4712 85.5316 591.0602 85.4632 590.5378 85.3207 C 590.0204 85.183 589.3311 85.1118 588.467 85.1118 C 586.9263 85.1118 585.6073 85.5355 584.507 86.3888 C 583.4047 87.2382 582.4733 88.487 581.7137 90.1253 L 581.7137 109.3084 L 574.3003 109.3084 Z" fill="#1c1c1a"/>
	<path d="M 606.3311 69.5323 C 606.3311 70.1728 606.2012 70.7722 605.9435 71.3327 C 605.6838 71.8921 605.3372 72.3813 604.9076 72.805 C 604.4751 73.2209 603.9703 73.5607 603.3904 73.8077 C 602.8104 74.0586 602.1904 74.1855 601.5305 74.1855 C 600.888 74.1855 600.2817 74.0586 599.7125 73.8077 C 599.1423 73.5607 598.6463 73.2209 598.2265 72.805 C 597.8067 72.3813 597.4708 71.8921 597.2199 71.3327 C 596.969 70.7722 596.8459 70.1728 596.8459 69.5323 C 596.8459 68.8703 596.969 68.2513 597.2199 67.6724 C 597.4708 67.0924 597.8067 66.5896 598.2265 66.1659 C 598.6463 65.75 599.1423 65.4141 599.7125 65.1632 C 600.2817 64.9123 600.888 64.7853 601.5305 64.7853 C 602.1904 64.7853 602.8104 64.9123 603.3904 65.1632 C 603.9703 65.4141 604.4751 65.75 604.9076 66.1659 C 605.3372 66.5896 605.6838 67.0924 605.9435 67.6724 C 606.2012 68.2513 606.3311 68.8703 606.3311 69.5323 ZM 605.22 78.5049 L 605.22 109.3084 L 597.8067 109.3084 L 597.8067 78.5049 L 605.22 78.5049 Z" fill="#1c1c1a"/>
	<path d="M 633.7399 85.021 C 633.5212 85.3002 633.3064 85.5228 633.0936 85.6819 C 632.8866 85.8421 632.58 85.9202 632.1787 85.9202 C 631.798 85.9202 631.4299 85.8089 631.0686 85.5775 C 630.7074 85.347 630.2758 85.0854 629.7779 84.7954 C 629.2761 84.5054 628.6805 84.2448 627.9893 84.0182 C 627.3 83.7869 626.4457 83.6717 625.4235 83.6717 C 624.1229 83.6717 622.9836 83.907 622.0033 84.3756 C 621.0231 84.8452 620.2049 85.5228 619.5566 86.4025 C 618.9054 87.2812 618.4192 88.3493 618.1009 89.6 C 617.7787 90.8517 617.6186 92.2644 617.6186 93.849 C 617.6186 95.4902 617.7943 96.9489 618.1458 98.2328 C 618.4943 99.5108 618.9991 100.5887 619.6611 101.4576 C 620.3211 102.3305 621.1207 102.9885 622.0609 103.4377 C 623.0031 103.8878 624.0654 104.1152 625.2448 104.1152 C 626.4271 104.1152 627.381 103.9688 628.1113 103.6798 C 628.8406 103.3898 629.4557 103.0667 629.9576 102.7191 C 630.4584 102.3705 630.8919 102.0503 631.2649 101.7574 C 631.6359 101.4684 632.0489 101.3219 632.5087 101.3219 C 633.1111 101.3219 633.5602 101.5523 633.86 102.0112 L 635.9913 104.7147 C 635.1693 105.6764 634.2798 106.4809 633.3201 107.1321 C 632.3584 107.7843 631.3644 108.3057 630.3315 108.6923 C 629.3024 109.0838 628.2382 109.3611 627.1359 109.5173 C 626.0356 109.6794 624.945 109.7575 623.8632 109.7575 C 621.9603 109.7575 620.1717 109.4031 618.4914 108.6923 C 616.8073 107.9815 615.3408 106.9466 614.0901 105.5856 C 612.8394 104.2265 611.8494 102.559 611.1191 100.5887 C 610.3898 98.6175 610.0256 96.369 610.0256 93.849 C 610.0256 91.5869 610.3478 89.4897 610.999 87.5585 C 611.6502 85.6273 612.605 83.9558 613.8655 82.545 C 615.126 81.1342 616.6901 80.0299 618.55 79.2293 C 620.4099 78.4277 622.554 78.0274 624.9743 78.0274 C 627.2766 78.0274 629.2936 78.3945 631.0228 79.1385 C 632.7557 79.8805 634.3091 80.9389 635.6906 82.3204 L 633.7399 85.021 Z" fill="#1c1c1a"/>
	<path d="M 663.3699 109.3084 L 660.0366 109.3084 C 659.3366 109.3084 658.7859 109.2039 658.3856 108.993 C 657.9854 108.7812 657.6856 108.3574 657.4865 107.7189 L 656.8254 105.5261 C 656.0434 106.2261 655.277 106.8422 654.5281 107.3733 C 653.7793 107.9015 653.0012 108.3477 652.2035 108.7089 C 651.4019 109.0682 650.5505 109.3377 649.6484 109.5173 C 648.7501 109.6989 647.7504 109.7907 646.649 109.7907 C 645.3466 109.7907 644.1467 109.615 643.0464 109.2635 C 641.9451 108.911 640.9999 108.3838 640.2091 107.6799 C 639.4173 106.9749 638.8022 106.1031 638.3619 105.0613 C 637.9225 104.0147 637.7 102.8001 637.7 101.4156 C 637.7 100.2528 638.0065 99.0998 638.6196 97.9662 C 639.2289 96.8327 640.2443 95.8085 641.6649 94.8937 C 643.0845 93.9779 644.9776 93.2222 647.3394 92.6198 C 649.7011 92.0174 652.6331 91.7177 656.1352 91.7177 L 656.1352 89.9007 C 656.1352 87.8221 655.6987 86.2843 654.8279 85.2875 C 653.9589 84.2916 652.6907 83.7898 651.0309 83.7898 C 649.8309 83.7898 648.8282 83.9323 648.0306 84.2135 C 647.229 84.4937 646.5309 84.8052 645.9422 85.1577 C 645.3525 85.5091 644.8087 85.8225 644.3068 86.1028 C 643.805 86.382 643.2553 86.5226 642.6558 86.5226 C 642.153 86.5226 641.7244 86.3917 641.3651 86.1311 C 641.0038 85.8743 640.7139 85.5511 640.4952 85.1713 L 639.1439 82.7988 C 642.6841 79.5583 646.9576 77.9386 651.9613 77.9386 C 653.7637 77.9386 655.3698 78.2315 656.7795 78.8212 C 658.1904 79.4119 659.3854 80.232 660.3696 81.2845 C 661.3498 82.336 662.0928 83.5916 662.6035 85.0532 C 663.116 86.5128 663.3699 88.116 663.3699 89.8558 L 663.3699 109.3084 ZM 648.9591 104.6825 C 649.7216 104.6825 650.4216 104.6171 651.0631 104.4775 C 651.7016 104.3418 652.3079 104.1348 652.8771 103.8555 C 653.4483 103.5822 653.997 103.2434 654.5281 102.8392 C 655.0593 102.435 655.5943 101.9556 656.1352 101.4059 L 656.1352 96.2489 C 653.9745 96.2489 652.1674 96.3865 650.7175 96.656 C 649.2647 96.9304 648.0989 97.275 647.2192 97.6997 C 646.3395 98.1225 645.7137 98.6175 645.3427 99.1837 C 644.9708 99.7442 644.7862 100.3641 644.7862 101.028 C 644.7862 102.3373 645.1729 103.2756 645.9422 103.8389 C 646.7145 104.4023 647.7172 104.6825 648.9591 104.6825 Z" fill="#1c1c1a"/>
	<path d="M 669.1654 109.3084 L 669.1654 78.5049 L 673.6956 78.5049 C 674.6564 78.5049 675.289 78.9559 675.5887 79.8581 L 676.0964 82.2911 C 676.7184 81.6497 677.3735 81.0697 678.0648 80.5474 C 678.754 80.0299 679.4844 79.5779 680.2557 79.1961 C 681.025 78.8183 681.853 78.5254 682.7317 78.3272 C 683.6113 78.128 684.5731 78.0274 685.6158 78.0274 C 687.2961 78.0274 688.7879 78.3096 690.0864 78.8827 C 691.3869 79.45 692.4755 80.2515 693.3445 81.2845 C 694.2154 82.3165 694.8754 83.5447 695.3255 84.976 C 695.7756 86.4093 696.004 87.9851 696.004 89.7045 L 696.004 109.3084 L 688.5868 109.3084 L 688.5868 89.7045 C 688.5868 87.8221 688.1533 86.3693 687.2795 85.3363 C 686.4095 84.3043 685.1032 83.7898 683.3643 83.7898 C 682.0804 83.7898 680.8824 84.0827 679.7607 84.6626 C 678.6408 85.2426 677.5786 86.0315 676.5788 87.0332 L 676.5788 109.3084 L 669.1654 109.3084 Z" fill="#1c1c1a"/>
	<path d="M 725.9337 109.3084 L 722.6005 109.3084 C 721.9005 109.3084 721.3498 109.2039 720.9495 108.993 C 720.5472 108.7812 720.2495 108.3574 720.0493 107.7189 L 719.3884 105.5261 C 718.6073 106.2261 717.8408 106.8422 717.092 107.3733 C 716.3431 107.9015 715.565 108.3477 714.7654 108.7089 C 713.9648 109.0682 713.1144 109.3377 712.2122 109.5173 C 711.313 109.6989 710.3123 109.7907 709.212 109.7907 C 707.9086 109.7907 706.7106 109.615 705.6102 109.2635 C 704.5079 108.911 703.5638 108.3838 702.772 107.6799 C 701.9802 106.9749 701.3641 106.1031 700.9258 105.0613 C 700.4854 104.0147 700.2638 102.8001 700.2638 101.4156 C 700.2638 100.2528 700.5704 99.0998 701.1816 97.9662 C 701.7927 96.8327 702.8082 95.8085 704.2277 94.8937 C 705.6483 93.9779 707.5414 93.2222 709.9032 92.6198 C 712.265 92.0174 715.1959 91.7177 718.6981 91.7177 L 718.6981 89.9007 C 718.6981 87.8221 718.2607 86.2843 717.3917 85.2875 C 716.5218 84.2916 715.2545 83.7898 713.5938 83.7898 C 712.3948 83.7898 711.3922 83.9323 710.5925 84.2135 C 709.7919 84.4937 709.0948 84.8052 708.5051 85.1577 C 707.9154 85.5091 707.3726 85.8225 706.8697 86.1028 C 706.3679 86.382 705.8172 86.5226 705.2188 86.5226 C 704.7169 86.5226 704.2863 86.3917 703.928 86.1311 C 703.5668 85.8743 703.2768 85.5511 703.0591 85.1713 L 701.7068 82.7988 C 705.248 79.5583 709.5215 77.9386 714.5252 77.9386 C 716.3256 77.9386 717.9316 78.2315 719.3434 78.8212 C 720.7533 79.4119 721.9493 80.232 722.9324 81.2845 C 723.9137 82.336 724.6557 83.5916 725.1673 85.0532 C 725.6779 86.5128 725.9337 88.116 725.9337 89.8558 L 725.9337 109.3084 ZM 711.521 104.6825 C 712.2835 104.6825 712.9836 104.6171 713.626 104.4775 C 714.2655 104.3418 714.8699 104.1348 715.441 103.8555 C 716.0102 103.5822 716.5609 103.2434 717.092 102.8392 C 717.6231 102.435 718.1562 101.9556 718.6981 101.4059 L 718.6981 96.2489 C 716.5384 96.2489 714.7302 96.3865 713.2814 96.656 C 711.8276 96.9304 710.6618 97.275 709.7812 97.6997 C 708.9034 98.1225 708.2766 98.6175 707.9056 99.1837 C 707.5346 99.7442 707.3481 100.3641 707.3481 101.028 C 707.3481 102.3373 707.7367 103.2756 708.5051 103.8389 C 709.2773 104.4023 710.2811 104.6825 711.521 104.6825 Z" fill="#1c1c1a"/>
	<path d="M 337.9177 273.3745 L 329.8101 273.3745 L 329.8101 229.9625 L 337.9177 229.9625 L 337.9177 273.3745 Z" fill="#5d6968"/>
	<path d="M 345.8426 273.3745 L 345.8426 228.7626 L 353.2579 228.7626 L 353.2579 246.3533 C 354.4793 245.0577 355.8608 244.0219 357.4015 243.2466 C 358.9441 242.4773 360.7435 242.0936 362.8046 242.0936 C 364.4897 242.0936 366.0236 242.4382 367.4149 243.1285 C 368.8051 243.8197 370.008 244.8224 371.0166 246.1464 C 372.0271 247.4683 372.8091 249.0969 373.3559 251.0378 C 373.9095 252.9797 374.1838 255.2146 374.1838 257.7355 C 374.1838 260.0348 373.8714 262.1661 373.2524 264.1276 C 372.6324 266.0881 371.7478 267.7918 370.5967 269.2319 C 369.4466 270.674 368.0524 271.7987 366.4239 272.6091 C 364.7924 273.4204 362.9657 273.8246 360.9446 273.8246 C 360.0034 273.8246 359.1443 273.7299 358.3622 273.5405 C 357.5841 273.3521 356.8733 273.0845 356.2309 272.7458 C 355.5894 272.4031 354.9968 271.9901 354.4422 271.498 C 353.8955 271.0069 353.3682 270.4631 352.8664 269.8607 L 352.5403 271.9315 C 352.4173 272.4519 352.2152 272.8248 351.9223 273.0455 C 351.6352 273.2671 351.2379 273.3745 350.736 273.3745 L 345.8426 273.3745 ZM 360.2544 247.8589 C 358.7108 247.8589 357.3937 248.184 356.3061 248.8333 C 355.2155 249.4815 354.1991 250.3993 353.2579 251.5797 L 353.2579 265.39 C 354.0976 266.4298 355.0153 267.1562 356.0063 267.5673 C 356.9973 267.9763 358.0722 268.1784 359.2321 268.1784 C 360.353 268.1784 361.3645 267.9705 362.2676 267.5497 C 363.1658 267.1299 363.9323 266.4923 364.561 265.6321 C 365.1927 264.7681 365.6789 263.6834 366.0197 262.3741 C 366.3594 261.0609 366.5283 259.5144 366.5283 257.7355 C 366.5283 255.9303 366.3838 254.4062 366.0919 253.1555 C 365.8029 251.9038 365.388 250.8884 364.8481 250.1064 C 364.3072 249.3282 363.6501 248.7581 362.8807 248.3997 C 362.1123 248.0346 361.2346 247.8589 360.2544 247.8589 Z" fill="#5d6968"/>
	<path d="M 391.2034 242.0936 C 393.1453 242.0936 394.933 242.406 396.5625 243.024 C 398.194 243.644 399.5989 244.5491 400.7803 245.7421 C 401.9636 246.9333 402.8824 248.3929 403.5433 250.122 C 404.2043 251.8531 404.5333 253.8331 404.5333 256.0552 C 404.5333 256.6147 404.508 257.0775 404.4582 257.4485 C 404.4064 257.8195 404.3176 258.1065 404.1887 258.3194 C 404.0579 258.5302 403.8841 258.6796 403.6634 258.7724 C 403.4418 258.8593 403.1616 258.9052 402.8228 258.9052 L 383.7871 258.9052 C 384.0087 262.0675 384.862 264.3873 386.3402 265.8694 C 387.8184 267.3515 389.7838 268.0916 392.2227 268.0916 C 393.4245 268.0916 394.4604 267.9519 395.3313 267.6698 C 396.2042 267.3905 396.9628 267.081 397.6111 266.7393 C 398.2623 266.4005 398.8354 266.0881 399.3246 265.8079 C 399.8127 265.5277 400.2892 265.39 400.751 265.39 C 401.0507 265.39 401.3114 265.4496 401.5331 265.5697 C 401.7527 265.6898 401.9441 265.8596 402.1003 266.0813 L 404.2619 268.7809 C 403.4418 269.7425 402.524 270.55 401.5018 271.1983 C 400.4815 271.8475 399.4154 272.3679 398.3023 272.7585 C 397.1952 273.15 396.0616 273.4233 394.9154 273.5874 C 393.7604 273.7426 392.6464 273.8246 391.5646 273.8246 C 389.4225 273.8246 387.4318 273.4692 385.5914 272.7585 C 383.7471 272.0496 382.1488 271.0001 380.7858 269.6058 C 379.4277 268.2185 378.3528 266.4943 377.5746 264.443 C 376.7965 262.3946 376.405 260.0162 376.405 257.3127 C 376.405 255.2146 376.7438 253.2326 377.4253 251.3834 C 378.1058 249.5333 379.0831 247.9243 380.3523 246.5486 C 381.6235 245.1817 383.174 244.0931 385.0046 243.2915 C 386.8362 242.4939 388.9002 242.0936 391.2034 242.0936 ZM 391.3537 247.4058 C 389.1941 247.4058 387.5001 248.0151 386.2807 249.2394 C 385.0602 250.4579 384.2782 252.1909 383.9404 254.4326 L 397.8688 254.4326 C 397.8688 253.4709 397.739 252.5658 397.4773 251.7154 C 397.2206 250.8621 396.8173 250.1191 396.2755 249.4776 C 395.7355 248.8352 395.058 248.3353 394.2359 247.9633 C 393.4157 247.5913 392.455 247.4058 391.3537 247.4058 Z" fill="#5d6968"/>
	<path d="M 409.0655 273.3745 L 409.0655 242.5749 L 413.419 242.5749 C 414.1786 242.5749 414.7097 242.7116 415.0124 242.9928 C 415.3121 243.273 415.5103 243.7553 415.6119 244.4348 L 416.061 248.1595 C 417.1633 246.2557 418.452 244.7551 419.9322 243.6528 C 421.4172 242.5554 423.075 242.0018 424.9164 242.0018 C 426.4366 242.0018 427.697 242.3533 428.7007 243.0533 L 427.74 248.6087 C 427.6785 248.966 427.5476 249.2198 427.3494 249.3732 C 427.1503 249.5235 426.8808 249.5977 426.5381 249.5977 C 426.2383 249.5977 425.8273 249.5264 425.3059 249.3907 C 424.7856 249.2462 424.0943 249.1779 423.2342 249.1779 C 421.6964 249.1779 420.3745 249.6046 419.2741 250.452 C 418.1728 251.3053 417.2414 252.5502 416.4818 254.1904 L 416.4818 273.3745 L 409.0655 273.3745 Z" fill="#5d6968"/>
	<path d="M 445.2399 242.0936 C 447.5421 242.0936 449.6266 242.4646 451.5002 243.2037 C 453.3689 243.9437 454.9662 244.9952 456.2881 246.3533 C 457.6082 247.7153 458.6275 249.3771 459.3499 251.3376 C 460.0705 253.299 460.4278 255.4948 460.4278 257.9152 C 460.4278 260.355 460.0705 262.5567 459.3499 264.5172 C 458.6275 266.4786 457.6082 268.1521 456.2881 269.5346 C 454.9662 270.9161 453.3689 271.9745 451.5002 272.7135 C 449.6266 273.4565 447.5421 273.8246 445.2399 273.8246 C 442.9396 273.8246 440.8444 273.4565 438.9649 272.7135 C 437.0826 271.9745 435.4765 270.9161 434.1467 269.5346 C 432.814 268.1521 431.7849 266.4786 431.0556 264.5172 C 430.3234 262.5567 429.9582 260.355 429.9582 257.9152 C 429.9582 255.4948 430.3234 253.299 431.0556 251.3376 C 431.7849 249.3771 432.814 247.7153 434.1467 246.3533 C 435.4765 244.9952 437.0826 243.9437 438.9649 243.2037 C 440.8444 242.4646 442.9396 242.0936 445.2399 242.0936 ZM 445.2399 268.1208 C 447.8018 268.1208 449.6978 267.2607 450.93 265.5404 C 452.1573 263.821 452.7733 261.2962 452.7733 257.9727 C 452.7733 254.6542 452.1573 252.1196 450.93 250.3798 C 449.6978 248.637 447.8018 247.7681 445.2399 247.7681 C 442.636 247.7681 440.7175 248.6399 439.4756 250.3934 C 438.2356 252.146 437.6137 254.6727 437.6137 257.9727 C 437.6137 261.2767 438.2356 263.7947 439.4756 265.5238 C 440.7175 267.2538 442.636 268.1208 445.2399 268.1208 Z" fill="#5d6968"/>
	<path d="M 463.764 252.1528 L 479.3122 252.1528 L 479.3122 258.335 L 463.764 258.335 L 463.764 252.1528 Z" fill="#5d6968"/>
	<path d="M 521.3436 273.3745 L 515.0989 273.3745 C 514.3989 273.3745 513.8219 273.2027 513.3728 272.8502 C 512.9237 272.4987 512.5966 272.0623 512.3984 271.5429 L 509.1541 262.6875 L 491.1727 262.6875 L 487.9313 271.5429 C 487.7693 272.0028 487.4558 272.4275 486.9833 272.8053 C 486.5137 273.1832 485.9376 273.3745 485.2581 273.3745 L 478.9832 273.3745 L 496.0359 229.9625 L 504.2909 229.9625 L 521.3436 273.3745 ZM 493.2446 256.9837 L 507.0823 256.9837 L 501.7993 242.5427 C 501.561 241.9042 501.2935 241.1485 501.0035 240.2756 C 500.7136 239.4067 500.4304 238.4606 500.1502 237.4423 C 499.8661 238.4606 499.5928 239.4086 499.3223 240.2913 C 499.0529 241.1748 498.7882 241.9442 498.5286 242.6013 L 493.2446 256.9837 Z" fill="#5d6968"/>
	<path d="M 523.8968 273.3745 L 523.8968 242.5749 L 528.429 242.5749 C 529.3896 242.5749 530.0214 243.024 530.3211 243.9242 L 530.8005 246.2039 C 531.3404 245.6045 531.9077 245.0577 532.4963 244.5559 C 533.087 244.0531 533.7188 243.6245 534.3895 243.2661 C 535.0573 242.9039 535.7778 242.6179 536.5491 242.406 C 537.3224 242.1971 538.165 242.0936 539.0867 242.0936 C 541.0286 242.0936 542.6249 242.6179 543.8756 243.6694 C 545.1263 244.718 546.0616 246.1151 546.6797 247.8589 C 547.162 246.8356 547.7614 245.9628 548.482 245.2305 C 549.2045 244.5002 549.9933 243.9047 550.8525 243.4419 C 551.7166 242.9859 552.6314 242.6442 553.6019 242.4246 C 554.5724 242.2039 555.5468 242.0936 556.528 242.0936 C 558.2278 242.0936 559.7392 242.3533 561.0612 242.8756 C 562.3812 243.396 563.4922 244.1556 564.3943 245.1554 C 565.2936 246.1581 565.9809 247.3775 566.4496 248.8167 C 566.9192 250.2567 567.1564 251.9106 567.1564 253.7706 L 567.1564 273.3745 L 559.7392 273.3745 L 559.7392 253.7706 C 559.7392 251.8101 559.3096 250.3348 558.4504 249.3439 C 557.5903 248.3529 556.3288 247.8589 554.6681 247.8589 C 553.9056 247.8589 553.2016 247.9887 552.5504 248.2465 C 551.8992 248.5062 551.329 248.882 550.8398 249.3732 C 550.3488 249.8662 549.9641 250.4774 549.6838 251.2204 C 549.4036 251.9595 549.264 252.8109 549.264 253.7706 L 549.264 273.3745 L 541.8175 273.3745 L 541.8175 253.7706 C 541.8175 251.7086 541.4025 250.2109 540.5726 249.2657 C 539.7418 248.3285 538.5175 247.8589 536.8958 247.8589 C 535.8335 247.8589 534.8396 248.1225 533.9072 248.6536 C 532.9758 249.1818 532.1136 249.9111 531.3111 250.8298 L 531.3111 273.3745 L 523.8968 273.3745 Z" fill="#5d6968"/>
	<path d="M 585.6786 242.0936 C 587.6205 242.0936 589.4043 242.406 591.0377 243.024 C 592.6692 243.644 594.0732 244.5491 595.2555 245.7421 C 596.4349 246.9333 597.3575 248.3929 598.0176 250.122 C 598.6795 251.8531 599.0085 253.8331 599.0085 256.0552 C 599.0085 256.6147 598.9822 257.0775 598.9333 257.4485 C 598.8846 257.8195 598.7928 258.1065 598.6619 258.3194 C 598.5331 258.5302 598.3574 258.6796 598.1396 258.7724 C 597.917 258.8593 597.6368 258.9052 597.298 258.9052 L 578.2653 258.9052 C 578.483 262.0675 579.3334 264.3873 580.8154 265.8694 C 582.2975 267.3515 584.258 268.0916 586.6979 268.0916 C 587.8998 268.0916 588.9357 267.9519 589.8065 267.6698 C 590.6784 267.3905 591.438 267.081 592.0892 266.7393 C 592.7375 266.4005 593.3087 266.0881 593.7998 265.8079 C 594.2909 265.5277 594.7644 265.39 595.2262 265.39 C 595.5259 265.39 595.7866 265.4496 596.0043 265.5697 C 596.226 265.6898 596.4154 265.8596 596.5775 266.0813 L 598.7381 268.7809 C 597.917 269.7425 596.9983 270.55 595.975 271.1983 C 594.9557 271.8475 593.8906 272.3679 592.7795 272.7585 C 591.6694 273.15 590.5378 273.4233 589.3867 273.5874 C 588.2356 273.7426 587.1177 273.8246 586.0399 273.8246 C 583.8958 273.8246 581.907 273.4692 580.0656 272.7585 C 578.2223 272.0496 576.623 271.0001 575.261 269.6058 C 573.899 268.2185 572.8319 266.4943 572.0499 264.443 C 571.2678 262.3946 570.8802 260.0162 570.8802 257.3127 C 570.8802 255.2146 571.219 253.2326 571.8985 251.3834 C 572.581 249.5333 573.5544 247.9243 574.8275 246.5486 C 576.0988 245.1817 577.6492 244.0931 579.4798 243.2915 C 581.3094 242.4939 583.3754 242.0936 585.6786 242.0936 ZM 585.8289 247.4058 C 583.6693 247.4058 581.9753 248.0151 580.7559 249.2394 C 579.5355 250.4579 578.7534 252.1909 578.4146 254.4326 L 592.3441 254.4326 C 592.3441 253.4709 592.2133 252.5658 591.9525 251.7154 C 591.6918 250.8621 591.2916 250.1191 590.7536 249.4776 C 590.2137 248.8352 589.5313 248.3353 588.7111 247.9633 C 587.891 247.5913 586.9293 247.4058 585.8289 247.4058 Z" fill="#5d6968"/>
	<path d="M 603.5397 273.3745 L 603.5397 242.5749 L 607.8903 242.5749 C 608.6499 242.5749 609.181 242.7116 609.4818 242.9928 C 609.7815 243.273 609.9836 243.7553 610.0832 244.4348 L 610.5323 248.1595 C 611.6346 246.2557 612.9233 244.7551 614.4064 243.6528 C 615.8856 242.5554 617.5473 242.0018 619.3896 242.0018 C 620.9078 242.0018 622.1693 242.3533 623.172 243.0533 L 622.2113 248.6087 C 622.1498 248.966 622.0189 249.2198 621.8207 249.3732 C 621.6216 249.5235 621.3521 249.5977 621.0094 249.5977 C 620.7097 249.5977 620.2986 249.5264 619.7783 249.3907 C 619.2608 249.2462 618.5695 249.1779 617.7054 249.1779 C 616.1658 249.1779 614.8458 249.6046 613.7454 250.452 C 612.6441 251.3053 611.7127 252.5502 610.9531 254.1904 L 610.9531 273.3745 L 603.5397 273.3745 Z" fill="#5d6968"/>
	<path d="M 635.5706 233.5975 C 635.5706 234.236 635.4397 234.8384 635.1829 235.3988 C 634.9222 235.9602 634.5756 236.4513 634.147 236.8682 C 633.7136 237.291 633.2087 237.6239 632.6288 237.8748 C 632.0489 238.1248 631.4299 238.2487 630.7689 238.2487 C 630.1274 238.2487 629.5211 238.1248 628.9509 237.8748 C 628.3807 237.6239 627.8857 237.291 627.465 236.8682 C 627.0451 236.4513 626.7093 235.9602 626.4584 235.3988 C 626.2075 234.8384 626.0844 234.236 626.0844 233.5975 C 626.0844 232.9365 626.2075 232.3136 626.4584 231.7336 C 626.7093 231.1537 627.0451 230.6538 627.465 230.2359 C 627.8857 229.8122 628.3807 229.4802 628.9509 229.2293 C 629.5211 228.9784 630.1274 228.8544 630.7689 228.8544 C 631.4299 228.8544 632.0489 228.9784 632.6288 229.2293 C 633.2087 229.4802 633.7136 229.8122 634.147 230.2359 C 634.5756 230.6538 634.9222 231.1537 635.1829 231.7336 C 635.4397 232.3136 635.5706 232.9365 635.5706 233.5975 ZM 634.4595 242.5749 L 634.4595 273.3745 L 627.0451 273.3745 L 627.0451 242.5749 L 634.4595 242.5749 Z" fill="#5d6968"/>
	<path d="M 662.9793 249.09 C 662.7606 249.3702 662.5458 249.5889 662.334 249.748 C 662.125 249.9111 661.8195 249.9892 661.4191 249.9892 C 661.0374 249.9892 660.6693 249.8721 660.308 249.6436 C 659.9459 249.4132 659.5162 249.1554 659.0173 248.8616 C 658.5165 248.5726 657.9199 248.3109 657.2297 248.0795 C 656.5394 247.853 655.6861 247.7349 654.6619 247.7349 C 653.3624 247.7349 652.222 247.9731 651.2418 248.4417 C 650.2615 248.9153 649.4443 249.5889 648.795 250.4686 C 648.1439 251.3503 647.6596 252.4154 647.3394 253.6642 C 647.0172 254.9149 646.857 256.3345 646.857 257.9152 C 646.857 259.5525 647.0328 261.016 647.3862 262.296 C 647.7328 263.5789 648.2395 264.6548 648.8995 265.5238 C 649.5615 266.3937 650.3591 267.0547 651.3013 267.5077 C 652.2415 267.9568 653.3038 268.1784 654.4832 268.1784 C 655.6656 268.1784 656.6194 268.0359 657.3497 267.7459 C 658.0791 267.456 658.6951 267.1367 659.197 266.7852 C 659.6989 266.4327 660.1323 266.1145 660.5034 265.8235 C 660.8743 265.5345 661.2883 265.39 661.7472 265.39 C 662.3496 265.39 662.7997 265.6185 663.0994 266.0813 L 665.2298 268.7809 C 664.4077 269.7425 663.5192 270.55 662.5585 271.1983 C 661.5968 271.8475 660.6039 272.3679 659.5719 272.7585 C 658.5419 273.15 657.4767 273.4233 656.3754 273.5874 C 655.275 273.7426 654.1835 273.8246 653.1017 273.8246 C 651.1998 273.8246 649.4111 273.4692 647.7308 272.7585 C 646.0467 272.0496 644.5802 271.0128 643.3295 269.6517 C 642.0778 268.2897 641.0888 266.6251 640.3585 264.6548 C 639.6292 262.6807 639.264 260.4361 639.264 257.9152 C 639.264 255.6501 639.5862 253.5568 640.2384 251.6246 C 640.8896 249.6924 641.8445 248.0219 643.105 246.6111 C 644.3664 245.2003 645.9285 244.0931 647.7885 243.2915 C 649.6484 242.4939 651.7924 242.0936 654.2128 242.0936 C 656.5169 242.0936 658.5321 242.4646 660.2612 243.2037 C 661.9952 243.9437 663.5485 245.005 664.9301 246.3865 L 662.9793 249.09 Z" fill="#5d6968"/>
	<path d="M 692.6083 273.3745 L 689.2761 273.3745 C 688.576 273.3745 688.0244 273.2671 687.6241 273.0582 C 687.2248 272.8502 686.9241 272.4275 686.7259 271.7811 L 686.0649 269.5922 C 685.2828 270.2942 684.5174 270.9093 683.7686 271.4365 C 683.0187 271.9706 682.2405 272.4138 681.4419 272.7721 C 680.6403 273.1363 679.791 273.4038 678.8888 273.5874 C 677.9896 273.765 676.9888 273.8539 675.8875 273.8539 C 674.5851 273.8539 673.3871 273.6782 672.2849 273.3257 C 671.1845 272.9771 670.2394 272.4499 669.4476 271.7499 C 668.6567 271.045 668.0406 270.1721 667.6013 269.1274 C 667.161 268.0808 666.9394 266.8701 666.9394 265.4818 C 666.9394 264.316 667.2459 263.1698 667.8591 262.0324 C 668.4673 260.8988 669.4837 259.8727 670.9053 258.9608 C 672.3248 258.0479 674.217 257.2903 676.5788 256.6859 C 678.9406 256.0835 681.8715 255.7809 685.3737 255.7809 L 685.3737 253.9698 C 685.3737 251.8911 684.9372 250.3544 684.0673 249.3546 C 683.1984 248.3529 681.9311 247.8589 680.2693 247.8589 C 679.0714 247.8589 678.0677 247.9955 677.269 248.2758 C 676.4675 248.555 675.7714 248.8752 675.1807 249.2198 C 674.5919 249.5723 674.0471 249.8887 673.5453 250.1689 C 673.0444 250.4481 672.4938 250.5887 671.8943 250.5887 C 671.3925 250.5887 670.9629 250.4579 670.6046 250.1972 C 670.2433 249.9375 669.9533 249.6172 669.7346 249.2394 L 668.3834 246.8688 C 671.9236 243.6245 676.198 242.0018 681.2007 242.0018 C 683.0021 242.0018 684.6092 242.2976 686.018 242.8883 C 687.4288 243.48 688.6249 244.3021 689.609 245.3506 C 690.5892 246.3992 691.3312 247.6567 691.8439 249.1154 C 692.3555 250.5789 692.6083 252.1772 692.6083 253.921 L 692.6083 273.3745 ZM 678.1975 268.7525 C 678.9601 268.7525 679.6601 268.6812 680.3026 268.5436 C 680.9401 268.4069 681.5464 268.1989 682.1156 267.9256 C 682.6868 267.6473 683.2374 267.3095 683.7686 266.9053 C 684.2987 266.5011 684.8337 266.0227 685.3737 265.4681 L 685.3737 260.315 C 683.214 260.315 681.4068 260.4527 679.9559 260.726 C 678.5041 260.9965 677.3384 261.345 676.4587 261.7678 C 675.578 262.1925 674.9532 262.6836 674.5822 263.2479 C 674.2101 263.8142 674.0247 264.4254 674.0247 265.0903 C 674.0247 266.4034 674.4123 267.3388 675.1807 267.9051 C 675.9539 268.4694 676.9566 268.7525 678.1975 268.7525 Z" fill="#5d6968"/>
	<path d="M 698.4068 273.3745 L 698.4068 242.5749 L 702.939 242.5749 C 703.8997 242.5749 704.5304 243.024 704.8301 243.9242 L 705.3388 246.3533 C 705.9617 245.7158 706.6168 245.1358 707.3062 244.6145 C 707.9974 244.0931 708.7277 243.644 709.499 243.2661 C 710.2674 242.8815 711.0944 242.5954 711.974 242.3933 C 712.8547 242.1912 713.8145 242.0936 714.8572 242.0936 C 716.5384 242.0936 718.0303 242.3796 719.3298 242.9469 C 720.6293 243.52 721.7179 244.3216 722.5869 245.3506 C 723.4568 246.3797 724.1187 247.6108 724.5678 249.0441 C 725.0179 250.4745 725.2454 252.0483 725.2454 253.7706 L 725.2454 273.3745 L 717.8282 273.3745 L 717.8282 253.7706 C 717.8282 251.8911 717.3947 250.4325 716.5218 249.4025 C 715.6519 248.3734 714.3456 247.8589 712.6057 247.8589 C 711.3228 247.8589 710.1238 248.1459 709.004 248.7258 C 707.8832 249.3087 706.8209 250.0995 705.8211 251.0974 L 705.8211 273.3745 L 698.4068 273.3745 Z" fill="#5d6968"/>
	<path d="M 755.1722 273.3745 L 751.839 273.3745 C 751.1389 273.3745 750.5883 273.2671 750.188 273.0582 C 749.7877 272.8502 749.4879 272.4275 749.2888 271.7811 L 748.6278 269.5922 C 747.8457 270.2942 747.0803 270.9093 746.3304 271.4365 C 745.5816 271.9706 744.8035 272.4138 744.0058 272.7721 C 743.2042 273.1363 742.3538 273.4038 741.4507 273.5874 C 740.5525 273.765 739.5527 273.8539 738.4514 273.8539 C 737.1489 273.8539 735.949 273.6782 734.8487 273.3257 C 733.7474 272.9771 732.8023 272.4499 732.0115 271.7499 C 731.2197 271.045 730.6046 270.1721 730.1642 269.1274 C 729.7249 268.0808 729.5032 266.8701 729.5032 265.4818 C 729.5032 264.316 729.8088 263.1698 730.422 262.0324 C 731.0312 260.8988 732.0466 259.8727 733.4672 258.9608 C 734.8868 258.0479 736.7799 257.2903 739.1417 256.6859 C 741.5044 256.0835 744.4354 255.7809 747.9375 255.7809 L 747.9375 253.9698 C 747.9375 251.8911 747.5011 250.3544 746.6312 249.3546 C 745.7612 248.3529 744.493 247.8589 742.8332 247.8589 C 741.6333 247.8589 740.6306 247.9955 739.8329 248.2758 C 739.0313 248.555 738.3333 248.8752 737.7445 249.2198 C 737.1548 249.5723 736.611 249.8887 736.1091 250.1689 C 735.6073 250.4481 735.0576 250.5887 734.4581 250.5887 C 733.9553 250.5887 733.5267 250.4579 733.1674 250.1972 C 732.8062 249.9375 732.5162 249.6172 732.2975 249.2394 L 730.9463 246.8688 C 734.4865 243.6245 738.7599 242.0018 743.7637 242.0018 C 745.566 242.0018 747.1711 242.2976 748.5819 242.8883 C 749.9927 243.48 751.1877 244.3021 752.1719 245.3506 C 753.1522 246.3992 753.8951 247.6567 754.4058 249.1154 C 754.9174 250.5789 755.1722 252.1772 755.1722 253.921 L 755.1722 273.3745 ZM 740.7604 268.7525 C 741.522 268.7525 742.2239 268.6812 742.8644 268.5436 C 743.504 268.4069 744.1093 268.1989 744.6794 267.9256 C 745.2506 267.6473 745.8003 267.3095 746.3304 266.9053 C 746.8616 266.5011 747.3966 266.0227 747.9375 265.4681 L 747.9375 260.315 C 745.7769 260.315 743.9687 260.4527 742.5198 260.726 C 741.067 260.9965 739.9003 261.345 739.0215 261.7678 C 738.1419 262.1925 737.5161 262.6836 737.145 263.2479 C 736.7731 263.8142 736.5885 264.4254 736.5885 265.0903 C 736.5885 266.4034 736.9752 267.3388 737.7445 267.9051 C 738.5158 268.4694 739.5195 268.7525 740.7604 268.7525 Z" fill="#5d6968"/>
		<path d="M 0.0845 137.2317 C 0.0845 212.6901 61.2571 273.8627 136.7164 273.8627 C 212.1797 273.8627 273.3523 212.6901 273.3523 137.2317 C 273.3523 61.7684 212.1797 0.5998 136.7164 0.5998 C 61.2571 0.5998 0.0845 61.7684 0.0845 137.2317 L 0.0845 137.2317 Z" fill="none"/>
	<g clip-path="url(#mask1)">
		<path d="M 0.0913 273.8568 L 136.7164 273.8568 L 136.7164 137.2317 L 0.0913 137.2317 L 0.0913 273.8568 Z" fill="#008a9c"/>
		<path d="M 136.7164 137.2317 L 273.3357 137.2317 L 273.3357 0.6134 L 136.7164 0.6134 L 136.7164 137.2317 Z" fill="#39b9d8"/>
	</g>
</svg>