<?xml version="1.0" encoding="UTF-8" standalone="no"?>
<svg
   xmlns:dc="http://purl.org/dc/elements/1.1/"
   xmlns:cc="http://creativecommons.org/ns#"
   xmlns:rdf="http://www.w3.org/1999/02/22-rdf-syntax-ns#"
   xmlns:svg="http://www.w3.org/2000/svg"
   xmlns="http://www.w3.org/2000/svg"
   viewBox="0 0 1003 380"
   height="380"
   width="1003"
   xml:space="preserve"
   version="1.1"
   id="svg2"><metadata
     id="metadata8"><rdf:RDF><cc:Work
         rdf:about=""><dc:format>image/svg+xml</dc:format><dc:type
           rdf:resource="http://purl.org/dc/dcmitype/StillImage" /><dc:title></dc:title></cc:Work></rdf:RDF></metadata><defs
     id="defs6"><clipPath
       id="clipPath16"
       clipPathUnits="userSpaceOnUse"><path
         id="path18"
         d="M 36.986,324.731 C 18.029,305.767 18.022,275.044 37.005,256.055 l 0,0 c 18.944,-18.945 49.68,-18.937 68.637,0.026 l 0,0 17.726,17.726 -12.856,12.842 -17.718,-17.719 c -5.746,-5.745 -13.374,-8.9 -21.487,-8.9 l 0,0 c -8.106,0 -15.728,3.148 -21.446,8.879 l 0,0 c -11.853,11.853 -11.867,31.134 -0.027,42.973 l 0,0 73.588,73.587 -12.85,12.842 -73.586,-73.58 z" /></clipPath><linearGradient
       id="linearGradient24"
       spreadMethod="pad"
       gradientTransform="matrix(88.481552,85.275688,85.275688,-88.481552,146.49173,194.09428)"
       gradientUnits="userSpaceOnUse"
       y2="0"
       x2="1"
       y1="0"
       x1="0"><stop
         id="stop26"
         offset="0"
         style="stop-opacity:1;stop-color:#000000" /><stop
         id="stop28"
         offset="0.38294369"
         style="stop-opacity:1;stop-color:#000000" /><stop
         id="stop30"
         offset="1"
         style="stop-opacity:1;stop-color:#000000" /></linearGradient><clipPath
       id="clipPath38"
       clipPathUnits="userSpaceOnUse"><path
         id="path40"
         d="m 144.572,432.31 -17.679,-17.666 12.855,-12.861 17.672,17.678 c 5.738,5.745 13.366,8.907 21.466,8.907 l 0,0 c 8.126,0 15.761,-3.169 21.513,-8.914 l 0,0 c 5.732,-5.738 8.88,-13.36 8.88,-21.466 l 0,0 c 0,-8.113 -3.163,-15.735 -8.907,-21.479 l 0,0 -73.533,-73.534 12.848,-12.855 73.541,73.54 c 18.963,18.963 18.963,49.693 0.02,68.636 l 0,0 c -9.494,9.497 -21.926,14.244 -34.353,14.245 l 0,0 c -12.424,0 -24.843,-4.744 -34.323,-14.231" /></clipPath><linearGradient
       id="linearGradient46"
       spreadMethod="pad"
       gradientTransform="matrix(88.4785,85.272751,85.272751,-88.4785,145.87073,194.73677)"
       gradientUnits="userSpaceOnUse"
       y2="0"
       x2="1"
       y1="0"
       x1="0"><stop
         id="stop48"
         offset="0"
         style="stop-opacity:1;stop-color:#000000" /><stop
         id="stop50"
         offset="0.38294369"
         style="stop-opacity:1;stop-color:#000000" /><stop
         id="stop52"
         offset="1"
         style="stop-opacity:1;stop-color:#000000" /></linearGradient><clipPath
       id="clipPath60"
       clipPathUnits="userSpaceOnUse"><path
         id="path62"
         d="m 182.559,329.702 17.82,-17.82 c 5.737,-5.738 8.9,-13.366 8.9,-21.466 l 0,0 c 0,-8.119 -3.163,-15.761 -8.914,-21.507 l 0,0 c -5.731,-5.731 -13.353,-8.886 -21.466,-8.879 l 0,0 c -8.113,0.006 -15.727,3.155 -21.473,8.9 l 0,0 -73.607,73.621 -12.861,-12.856 73.62,-73.614 c 18.957,-18.963 49.685,-18.971 68.636,-0.026 l 0,0 c 18.977,18.989 18.977,49.719 0.02,68.676 l 0,0 -17.826,17.826 -12.849,-12.855 z" /></clipPath><linearGradient
       id="linearGradient68"
       spreadMethod="pad"
       gradientTransform="matrix(-11.541365,87.843079,87.843079,11.541365,165.77678,208.89149)"
       gradientUnits="userSpaceOnUse"
       y2="0"
       x2="1"
       y1="0"
       x1="0"><stop
         id="stop70"
         offset="0"
         style="stop-opacity:1;stop-color:#000000" /><stop
         id="stop72"
         offset="0.29270413"
         style="stop-opacity:1;stop-color:#000000" /><stop
         id="stop74"
         offset="0.300613"
         style="stop-opacity:1;stop-color:#000000" /><stop
         id="stop76"
         offset="0.472393"
         style="stop-opacity:1;stop-color:#000000" /><stop
         id="stop78"
         offset="1"
         style="stop-opacity:1;stop-color:#000000" /></linearGradient><clipPath
       id="clipPath86"
       clipPathUnits="userSpaceOnUse"><path
         id="path88"
         d="M 36.972,432.296 C 18.029,413.353 18.029,382.623 36.999,363.667 l 0,0 17.638,-17.652 12.856,12.855 -17.646,17.639 c -5.744,5.744 -8.906,13.373 -8.906,21.486 l 0,0 c 0,8.106 3.162,15.728 8.879,21.459 l 0,0 c 11.853,11.847 31.133,11.853 42.974,0.007 l 0,0 73.445,-73.439 12.848,12.856 -73.439,73.439 c -9.479,9.479 -21.901,14.222 -34.323,14.222 l 0,0 C 58.896,446.54 46.466,441.794 36.972,432.296" /></clipPath><linearGradient
       id="linearGradient94"
       spreadMethod="pad"
       gradientTransform="matrix(-11.541027,87.840507,87.840507,11.541027,126.74126,203.75563)"
       gradientUnits="userSpaceOnUse"
       y2="0"
       x2="1"
       y1="0"
       x1="0"><stop
         id="stop96"
         offset="0"
         style="stop-opacity:1;stop-color:#000000" /><stop
         id="stop98"
         offset="0.29270413"
         style="stop-opacity:1;stop-color:#000000" /><stop
         id="stop100"
         offset="0.300613"
         style="stop-opacity:1;stop-color:#000000" /><stop
         id="stop102"
         offset="0.472393"
         style="stop-opacity:1;stop-color:#000000" /><stop
         id="stop104"
         offset="1"
         style="stop-opacity:1;stop-color:#000000" /></linearGradient><clipPath
       id="clipPath112"
       clipPathUnits="userSpaceOnUse"><path
         id="path114"
         d="m 0,595.28 841.89,0 L 841.89,0 0,0 0,595.28 Z" /></clipPath></defs><g
     transform="matrix(1.25,0,0,-1.25,0,380.00002)"
     id="g10"><g
       transform="translate(-22.56265,-142.93533)"
       id="g3512"><g
         id="g12"><g
           id="g14"
           clip-path="url(#clipPath16)"><g
             id="g20"><g
               id="g22"><path
                 d="M 36.986,324.731 C 18.029,305.767 18.022,275.044 37.005,256.055 l 0,0 c 18.944,-18.945 49.68,-18.937 68.637,0.026 l 0,0 17.726,17.726 -12.856,12.842 -17.718,-17.719 c -5.746,-5.745 -13.374,-8.9 -21.487,-8.9 l 0,0 c -8.106,0 -15.728,3.148 -21.446,8.879 l 0,0 c -11.853,11.853 -11.867,31.134 -0.027,42.973 l 0,0 73.588,73.587 -12.85,12.842 -73.586,-73.58 z"
                 style="fill:url(#linearGradient24);stroke:none"
                 id="path32" /></g></g></g></g><g
         id="g34"><g
           id="g36"
           clip-path="url(#clipPath38)"><g
             id="g42"><g
               id="g44"><path
                 d="m 144.572,432.31 -17.679,-17.666 12.855,-12.861 17.672,17.678 c 5.738,5.745 13.366,8.907 21.466,8.907 l 0,0 c 8.126,0 15.761,-3.169 21.513,-8.914 l 0,0 c 5.732,-5.738 8.88,-13.36 8.88,-21.466 l 0,0 c 0,-8.113 -3.163,-15.735 -8.907,-21.479 l 0,0 -73.533,-73.534 12.848,-12.855 73.541,73.54 c 18.963,18.963 18.963,49.693 0.02,68.636 l 0,0 c -9.494,9.497 -21.926,14.244 -34.353,14.245 l 0,0 c -12.424,0 -24.843,-4.744 -34.323,-14.231"
                 style="fill:url(#linearGradient46);stroke:none"
                 id="path54" /></g></g></g></g><g
         id="g56"><g
           id="g58"
           clip-path="url(#clipPath60)"><g
             id="g64"><g
               id="g66"><path
                 d="m 182.559,329.702 17.82,-17.82 c 5.737,-5.738 8.9,-13.366 8.9,-21.466 l 0,0 c 0,-8.119 -3.163,-15.761 -8.914,-21.507 l 0,0 c -5.731,-5.731 -13.353,-8.886 -21.466,-8.879 l 0,0 c -8.113,0.006 -15.727,3.155 -21.473,8.9 l 0,0 -73.607,73.621 -12.861,-12.856 73.62,-73.614 c 18.957,-18.963 49.685,-18.971 68.636,-0.026 l 0,0 c 18.977,18.989 18.977,49.719 0.02,68.676 l 0,0 -17.826,17.826 -12.849,-12.855 z"
                 style="fill:url(#linearGradient68);stroke:none"
                 id="path80" /></g></g></g></g><g
         id="g82"><g
           id="g84"
           clip-path="url(#clipPath86)"><g
             id="g90"><g
               id="g92"><path
                 d="M 36.972,432.296 C 18.029,413.353 18.029,382.623 36.999,363.667 l 0,0 17.638,-17.652 12.856,12.855 -17.646,17.639 c -5.744,5.744 -8.906,13.373 -8.906,21.486 l 0,0 c 0,8.106 3.162,15.728 8.879,21.459 l 0,0 c 11.853,11.847 31.133,11.853 42.974,0.007 l 0,0 73.445,-73.439 12.848,12.856 -73.439,73.439 c -9.479,9.479 -21.901,14.222 -34.323,14.222 l 0,0 C 58.896,446.54 46.466,441.794 36.972,432.296"
                 style="fill:url(#linearGradient94);stroke:none"
                 id="path106" /></g></g></g></g><g
         id="g108"><g
           id="g110"
           clip-path="url(#clipPath112)"><g
             id="g116"
             transform="translate(310.6758,374.3896)"><path
               d="m 0,0 0,3.626 c 0,8.947 -3.626,16.407 -11.295,16.407 -8.523,0 -12.364,-6.606 -12.364,-13.427 0,-30.05 64.788,-15.344 64.788,-70.964 0,-32.39 -18.964,-46.887 -53.918,-46.887 -32.814,0 -51.145,11.295 -51.145,42.838 l 0,5.328 38.358,0 0,-3.62 c 0,-12.996 5.334,-17.692 13.003,-17.692 8.099,0 12.788,6.398 12.788,14.699 0,30.056 -62.232,15.129 -62.232,69.053 0,30.689 16.414,47.52 49.868,47.52 C 22.374,46.881 37.079,32.599 37.079,0 L 0,0 Z"
               style="fill:#000000;fill-opacity:1;fill-rule:nonzero;stroke:none"
               id="path118" /></g><path
             d="m 364.371,418.291 39.636,0 0,-152.159 -39.636,0 0,152.159 z"
             style="fill:#000000;fill-opacity:1;fill-rule:nonzero;stroke:none"
             id="path120" /><g
             id="g122"
             transform="translate(441.2948,384.6149)"><path
               d="m 0,0 -29.828,0 0,33.676 99.305,0 0,-33.676 -29.834,0 0,-118.484 -39.643,0 L 0,0 Z"
               style="fill:#000000;fill-opacity:1;fill-rule:nonzero;stroke:none"
               id="path124" /></g><g
             id="g126"
             transform="translate(558.0893,387.1781)"><path
               d="m 0,0 -0.424,0 -10.877,-64.573 22.172,0 L 0,0 Z m -25.145,31.113 49.867,0 37.08,-152.16 -42.199,0 -4.049,26.639 -31.537,0 -4.05,-26.639 -42.192,0 37.08,152.16 z"
               style="fill:#000000;fill-opacity:1;fill-rule:nonzero;stroke:none"
               id="path128" /></g><g
             id="g130"
             transform="translate(674.259,418.2907)"><path
               d="m 0,0 35.808,0 15.553,-105.272 0.424,0 L 62.441,0 l 38.357,0 -26,-152.159 -43.47,0 -13.212,102.298 -0.43,0 -13.213,-102.298 -43.469,0 -26,152.159 38.357,0 11.927,-105.272 0.437,0 L 0,0 Z"
               style="fill:#000000;fill-opacity:1;fill-rule:nonzero;stroke:none"
               id="path132" /></g><path
             d="m 782.935,418.291 39.636,0 0,-152.159 -39.636,0 0,152.159 z"
             style="fill:#000000;fill-opacity:1;fill-rule:nonzero;stroke:none"
             id="path134" /><g
             id="g136"
             transform="translate(27.5137,224.0736)"><path
               d="m 0,0 31.133,0 0,-4.756 -25.502,0 0,-22.865 23.834,0 0,-4.749 -23.834,0 0,-30.434 -5.631,0 L 0,0 Z"
               style="fill:#000000;fill-opacity:1;fill-rule:nonzero;stroke:none"
               id="path138" /></g><path
             d="m 87.318,224.074 5.637,0 0,-62.804 -5.637,0 0,62.804 z"
             style="fill:#000000;fill-opacity:1;fill-rule:nonzero;stroke:none"
             id="path140" /><g
             id="g142"
             transform="translate(125.1369,224.0736)"><path
               d="m 0,0 7.561,0 24.016,-54.704 0.175,0 0,54.704 5.63,0 0,-62.804 -7.568,0 -24.008,54.711 -0.175,0 0,-54.711 -5.631,0 L 0,0 Z"
               style="fill:#000000;fill-opacity:1;fill-rule:nonzero;stroke:none"
               id="path144" /></g><g
             id="g146"
             transform="translate(221.1721,184.3104)"><path
               d="m 0,0 -9.667,35.364 -0.181,0 L -19.522,0 0,0 Z m -13.279,39.763 7.036,0 18.56,-62.804 -5.98,0 -5.099,18.298 -21.991,0 -5.106,-18.298 -5.973,0 18.553,62.804 z"
               style="fill:#000000;fill-opacity:1;fill-rule:nonzero;stroke:none"
               id="path148" /></g><g
             id="g150"
             transform="translate(260.3099,224.0736)"><path
               d="m 0,0 7.568,0 24.009,-54.704 0.175,0 0,54.704 5.624,0 0,-62.804 -7.561,0 -24.009,54.711 -0.175,0 0,-54.711 -5.631,0 L 0,0 Z"
               style="fill:#000000;fill-opacity:1;fill-rule:nonzero;stroke:none"
               id="path152" /></g><g
             id="g154"
             transform="translate(348.0845,160.2137)"><path
               d="m 0,0 c -12.31,0.619 -19.091,10.555 -19.091,32.458 0,22.509 7.218,32.452 20.06,32.452 12.754,0 18.028,-9.062 18.028,-19.347 l -5.631,0 c 0,8.53 -4.311,14.597 -12.397,14.597 -8.974,0 -14.423,-7.386 -14.423,-27.702 0,-20.316 5.449,-27.708 14.423,-27.708 7.911,0 12.397,6.774 13.017,17.598 l 5.63,0 C 18.91,9.062 13.105,1.15 3.256,0.182 L 0.175,-3.861 0.35,-3.955 c 0.793,0.356 1.85,0.437 2.987,0.437 3.787,0 6.781,-2.631 6.781,-5.886 0,-4.925 -5.275,-7.48 -9.324,-7.48 -2.731,0 -6.068,0.881 -7.831,1.762 l 1.057,2.724 c 1.406,-0.706 3.343,-1.318 5.281,-1.318 4.218,0 6.067,1.762 6.067,3.868 0,2.206 -2.287,3.161 -4.668,3.161 -1.669,0 -2.9,-0.262 -3.862,-0.874 L -4.312,-6.067 0,0 Z"
               style="fill:#000000;fill-opacity:1;fill-rule:nonzero;stroke:none"
               id="path156" /></g><g
             id="g158"
             transform="translate(423.9861,184.3104)"><path
               d="m 0,0 -9.68,35.364 -0.175,0 L -19.529,0 0,0 Z m -13.28,39.763 7.03,0 18.567,-62.804 -5.987,0 -5.106,18.298 -21.984,0 -5.099,-18.298 -5.98,0 18.559,62.804 z"
               style="fill:#000000;fill-opacity:1;fill-rule:nonzero;stroke:none"
               id="path160" /></g><g
             id="g162"
             transform="translate(490.644,207.9758)"><path
               d="m 0,0 c 0,7.743 -3.605,12.398 -11.254,12.398 -7.649,0 -11.873,-5.011 -11.873,-11.261 0,-18.728 30.433,-8.442 30.433,-30.514 0,-12.129 -7.562,-18.385 -19.004,-18.385 -11.779,0 -18.291,6.337 -18.291,18.648 l 0,1.849 5.631,0 0,-2.381 c 0,-7.998 4.217,-13.366 12.492,-13.366 7.911,0 13.534,3.962 13.534,12.754 0,18.641 -30.419,8.012 -30.419,30.783 0,9.848 6.417,16.623 17.315,16.623 C 0.269,17.148 5.631,11.167 5.631,0 L 0,0 Z"
               style="fill:#000000;fill-opacity:1;fill-rule:nonzero;stroke:none"
               id="path164" /></g><g
             id="g166"
             transform="translate(541.3929,164.6134)"><path
               d="m 0,0 c 5.368,0 10.198,2.731 10.198,20.047 0,17.248 -4.83,19.972 -10.198,19.972 -5.274,0 -10.198,-2.724 -10.198,-19.972 C -10.198,2.731 -5.274,0 0,0 m 10.736,4.393 -0.181,0 C 9.149,-0.969 4.662,-4.4 -0.881,-4.4 c -10.286,0 -14.947,8.275 -14.947,24.447 0,16.104 4.661,24.365 14.947,24.365 5.806,0 9.761,-3.162 10.904,-8.086 l 0.175,0 0,23.134 5.281,0 0,-62.804 -4.743,0 0,7.737 z"
               style="fill:#000000;fill-opacity:1;fill-rule:nonzero;stroke:none"
               id="path168" /></g><g
             id="g170"
             transform="translate(602.1655,164.6134)"><path
               d="M 0,0 C 5.893,0 10.46,5.106 10.46,20.047 10.46,34.914 5.893,40.019 0,40.019 -5.893,40.019 -10.467,34.914 -10.467,20.047 -10.467,5.106 -5.893,0 0,0 m 0,44.412 c 10.292,0 16.091,-8.174 16.091,-24.365 C 16.091,3.78 10.292,-4.4 0,-4.4 c -10.293,0 -16.098,8.18 -16.098,24.447 0,16.191 5.805,24.365 16.098,24.365"
               style="fill:#000000;fill-opacity:1;fill-rule:nonzero;stroke:none"
               id="path172" /></g><g
             id="g174"
             transform="translate(653.4385,166.0194)"><path
               d="m 0,0 10.468,0 c 9.754,0 14.51,4.393 14.51,12.842 0,8.442 -4.756,12.842 -14.51,12.842 L 0,25.684 0,0 Z m 0,30.433 8.88,0 c 9.673,0 14.073,4.131 14.073,11.429 0,8.362 -4.305,11.436 -13.104,11.436 L 0,53.298 0,30.433 Z m -5.63,27.621 17.329,0 c 12.135,0 16.885,-6.424 16.885,-15.748 0,-6.161 -3.344,-12.048 -9.681,-13.628 l 0,-0.182 C 26.646,27.002 30.608,21.015 30.608,12.842 30.608,1.85 23.477,-4.75 11.611,-4.75 l -17.241,0 0,62.804 z"
               style="fill:#000000;fill-opacity:1;fill-rule:nonzero;stroke:none"
               id="path176" /></g><g
             id="g178"
             transform="translate(713.7673,224.0736)"><path
               d="m 0,0 31.133,0 0,-4.756 -25.503,0 0,-22.865 23.834,0 0,-4.749 -23.834,0 0,-25.684 26.296,0 0,-4.75 L 0,-62.804 0,0 Z"
               style="fill:#000000;fill-opacity:1;fill-rule:nonzero;stroke:none"
               id="path180" /></g><g
             id="g182"
             transform="translate(775.3333,224.0736)"><path
               d="m 0,0 9.754,0 15.136,-55.767 0.174,0 L 40.187,0 l 9.237,0 0,-62.804 -5.631,0 0,57.523 -0.175,0 -16.266,-57.523 -5.274,0 -16.279,57.523 -0.175,0 0,-57.523 -5.624,0 L 0,0 Z"
               style="fill:#000000;fill-opacity:1;fill-rule:nonzero;stroke:none"
               id="path184" /></g></g></g></g></g></svg>